<mxfile host="app.diagrams.net" agent="Mozilla/5.0 (Macintosh; Intel Mac OS X 10_15_7) AppleWebKit/537.36 (KHTML, like Gecko) Chrome/133.0.0.0 Safari/537.36" version="26.0.16">
  <diagram name="페이지-1" id="PRcVCi0T5VSf2IbJ--ZE">
    <mxGraphModel dx="3252" dy="1242" grid="0" gridSize="10" guides="1" tooltips="1" connect="1" arrows="1" fold="1" page="0" pageScale="1" pageWidth="827" pageHeight="1169" math="0" shadow="0">
      <root>
        <mxCell id="0" />
        <mxCell id="1" parent="0" />
        <mxCell id="KeAtxHLE9qD8ygLtUr-u-43" value="" style="rounded=1;whiteSpace=wrap;html=1;" vertex="1" parent="1">
          <mxGeometry x="-72" y="932.06" width="193" height="117.94" as="geometry" />
        </mxCell>
        <mxCell id="KeAtxHLE9qD8ygLtUr-u-15" value="" style="rounded=1;whiteSpace=wrap;html=1;" vertex="1" parent="1">
          <mxGeometry x="-132" y="692" width="556" height="400" as="geometry" />
        </mxCell>
        <UserObject label="&lt;b style=&quot;font-weight:normal;&quot; id=&quot;docs-internal-guid-647173f1-7fff-23f0-3b4b-ef23cdf10fce&quot;&gt;&lt;img width=&quot;40px;&quot; height=&quot;40px;&quot; src=&quot;https://lh7-rt.googleusercontent.com/slidesz/AGV_vUdSnlWJNvkHVMkDPvyn9CNDx6tPIjR9woqZY8CI9uCo7hlyEnR70CqmjtImastqRVs80AVufFmXad-Cnx54peThmbAber742jh0vZ-D4j5_yUAC5p3aUYAvpeLUqOrQRBWaL33OPN2y24-SSBwhEA=s2048?key=42c68_u_G01Ytpazy-9bWayp&quot;&gt;&lt;br&gt;&lt;p dir=&quot;ltr&quot; style=&quot;line-height:1.2;margin-top:0pt;margin-bottom:0pt;&quot;&gt;&lt;span style=&quot;font-size: 12pt; font-family: Arial, sans-serif; color: rgb(0, 0, 0); background-color: transparent; font-weight: 400; font-style: normal; font-variant: normal; text-decoration: none; vertical-align: baseline; white-space: pre-wrap;&quot;&gt;AWS Cloud&lt;/span&gt;&lt;/p&gt;&lt;p dir=&quot;ltr&quot; style=&quot;line-height:1.2;margin-top:0pt;margin-bottom:0pt;&quot;&gt;&lt;br&gt;&lt;/p&gt;&lt;/b&gt;" link="&lt;b style=&quot;font-weight:normal;&quot; id=&quot;docs-internal-guid-647173f1-7fff-23f0-3b4b-ef23cdf10fce&quot;&gt;&lt;img width=&quot;40px;&quot; height=&quot;40px;&quot; src=&quot;https://lh7-rt.googleusercontent.com/slidesz/AGV_vUdSnlWJNvkHVMkDPvyn9CNDx6tPIjR9woqZY8CI9uCo7hlyEnR70CqmjtImastqRVs80AVufFmXad-Cnx54peThmbAber742jh0vZ-D4j5_yUAC5p3aUYAvpeLUqOrQRBWaL33OPN2y24-SSBwhEA=s2048?key=42c68_u_G01Ytpazy-9bWayp&quot;&gt;&lt;br&gt;&lt;p dir=&quot;ltr&quot; style=&quot;line-height:1.2;margin-top:0pt;margin-bottom:0pt;&quot;&gt;&lt;span style=&quot;font-size:12pt;font-family:Arial,sans-serif;color:#000000;background-color:transparent;font-weight:400;font-style:normal;font-variant:normal;text-decoration:none;vertical-align:baseline;white-space:pre;white-space:pre-wrap;&quot;&gt;AWS Cloud&lt;/span&gt;&lt;/p&gt;&lt;img width=&quot;48px;&quot; height=&quot;48px;&quot; src=&quot;https://lh7-rt.googleusercontent.com/slidesz/AGV_vUdOiUaJkmcq3s46cDYlH1mzSfe-WNvgOghZSOZmvFj5DmkhJtV_2w-iWCyghVVTJR_9Wzdq2R_lOhh-nqNEALGtyDdsExPqyqV4tW68458k35yTDXaTsNo0gucC08J96PaakAcJCp7zgiZBhHrK_a0=s2048?key=42c68_u_G01Ytpazy-9bWayp&quot; alt=&quot;Bucket with objects resource icon for the S3 service.&quot;&gt;&lt;br&gt;&lt;p dir=&quot;ltr&quot; style=&quot;line-height:1.2;text-align: center;margin-top:0pt;margin-bottom:0pt;&quot;&gt;&lt;span style=&quot;font-size:12pt;font-family:Arial,sans-serif;color:#000000;background-color:transparent;font-weight:400;font-style:normal;font-variant:normal;text-decoration:none;vertical-align:baseline;white-space:pre;white-space:pre-wrap;&quot;&gt;Amazon S3&amp;nbsp;&lt;/span&gt;&lt;/p&gt;&lt;p dir=&quot;ltr&quot; style=&quot;line-height:1.2;text-align: center;margin-top:0pt;margin-bottom:0pt;&quot;&gt;&lt;span style=&quot;font-size:12pt;font-family:Arial,sans-serif;color:#000000;background-color:transparent;font-weight:400;font-style:normal;font-variant:normal;text-decoration:none;vertical-align:baseline;white-space:pre;white-space:pre-wrap;&quot;&gt;SSH key bucket&lt;/span&gt;&lt;/p&gt;&lt;img width=&quot;80px;&quot; height=&quot;80px;&quot; src=&quot;https://lh7-rt.googleusercontent.com/slidesz/AGV_vUcYm1ey-WHW1qIlGZdUvKji2aQxS2iGEuNeFG1Z8gld2mK0_xH2N8GOYhH2mCQ1BK6Rva-lpJehKJNXz-AybmALMu5sZGdCOiN3mqPg9RyypUrbDcWOpOLmV1lAsKV7nwg1zgWM2MU6QWuMY75IZOY=s2048?key=42c68_u_G01Ytpazy-9bWayp&quot; alt=&quot;Lambda service icon.&quot;&gt;&lt;img width=&quot;48px;&quot; height=&quot;48px;&quot; src=&quot;https://lh7-rt.googleusercontent.com/slidesz/AGV_vUcj9c7kVP3G1KW0A1fwi5h0Yq8cqDy3T8j5YFoV2wjnXC7m26DIhiwYNUyA7yq6vlMF8LCfUeaM4tdTvisHAbCC39Yj74tpNMWnWF4wYV5Ef_8i-pMRBM7GZmnk0X7wAR10WEyWZkhw67GIvXxwahE=s2048?key=42c68_u_G01Ytpazy-9bWayp&quot; alt=&quot;Add-on resource icon for the AWS (IAM) service.&quot;&gt;&lt;img width=&quot;49px;&quot; height=&quot;49px;&quot; src=&quot;https://lh7-rt.googleusercontent.com/slidesz/AGV_vUcpOkxqfhdGkSM6SwYYy2R8kRLqAwenmQhKi7zmE-YsmkbY3qMuf6oxfcng9SzfOoh3O67Vg_SAzxcstQ8j2qSNPFVsBrSSE7Pcl0i5LMRDa0Tkn80yKPAFttfmAXezfKOyr76Jb6qqaJwtbzczmEc=s2048?key=42c68_u_G01Ytpazy-9bWayp&quot; alt=&quot;General resource icon.&quot;&gt;&lt;br&gt;&lt;p dir=&quot;ltr&quot; style=&quot;line-height:1.2;text-align: center;margin-top:0pt;margin-bottom:0pt;&quot;&gt;&lt;span style=&quot;font-size:12pt;font-family:Arial,sans-serif;color:#000000;background-color:transparent;font-weight:400;font-style:italic;font-variant:normal;text-decoration:none;vertical-align:baseline;white-space:pre;white-space:pre-wrap;&quot;&gt;Git push&lt;/span&gt;&lt;/p&gt;&lt;br&gt;&lt;p dir=&quot;ltr&quot; style=&quot;line-height:1.2;text-align: center;margin-top:0pt;margin-bottom:0pt;&quot;&gt;&lt;span style=&quot;font-size:12pt;font-family:Arial,sans-serif;color:#000000;background-color:transparent;font-weight:400;font-style:italic;font-variant:normal;text-decoration:none;vertical-align:baseline;white-space:pre;white-space:pre-wrap;&quot;&gt;Git webhook&lt;/span&gt;&lt;/p&gt;&lt;br&gt;&lt;p dir=&quot;ltr&quot; style=&quot;line-height:1.2;text-align: center;margin-top:0pt;margin-bottom:0pt;&quot;&gt;&lt;span style=&quot;font-size:13.999999999999998pt;font-family:Arial,sans-serif;color:#000000;background-color:transparent;font-weight:700;font-style:normal;font-variant:normal;text-decoration:none;vertical-align:baseline;white-space:pre;white-space:pre-wrap;&quot;&gt;Third-party Git repository&lt;/span&gt;&lt;/p&gt;&lt;br&gt;&lt;p dir=&quot;ltr&quot; style=&quot;line-height:1.2;text-align: center;margin-top:0pt;margin-bottom:0pt;&quot;&gt;&lt;span style=&quot;font-size:12pt;font-family:Arial,sans-serif;color:#000000;background-color:transparent;font-weight:400;font-style:normal;font-variant:normal;text-decoration:none;vertical-align:baseline;white-space:pre;white-space:pre-wrap;&quot;&gt;AWS KMS key&lt;/span&gt;&lt;/p&gt;&lt;br&gt;&lt;p dir=&quot;ltr&quot; style=&quot;line-height:1.2;text-align: center;margin-top:0pt;margin-bottom:0pt;&quot;&gt;&lt;span style=&quot;font-size:12pt;font-family:Arial,sans-serif;color:#000000;background-color:transparent;font-weight:400;font-style:normal;font-variant:normal;text-decoration:none;vertical-align:baseline;white-space:pre;white-space:pre-wrap;&quot;&gt;Git users&lt;/span&gt;&lt;/p&gt;&lt;br&gt;&lt;p dir=&quot;ltr&quot; style=&quot;line-height:1.2;text-align: center;margin-top:0pt;margin-bottom:0pt;&quot;&gt;&lt;span style=&quot;font-size:12pt;font-family:Arial,sans-serif;color:#000000;background-color:transparent;font-weight:400;font-style:normal;font-variant:normal;text-decoration:none;vertical-align:baseline;white-space:pre;white-space:pre-wrap;&quot;&gt;AWS Lambda&lt;/span&gt;&lt;/p&gt;&lt;img width=&quot;48px;&quot; height=&quot;48px;&quot; src=&quot;https://lh7-rt.googleusercontent.com/slidesz/AGV_vUf6OwkWfKX8ycsMJsR4IEFKesvFUcKuOO18qcl7mbd6mHSkip0hgd5wdUQ3GdR6-skpFydLUTuihrs6_-i3phptOdaj6inC09oaXKT1nsWe29B_giuJgHNUgwiHp3q3DfRSE4w1m5Kpc_XaAjQkXJc=s2048?key=42c68_u_G01Ytpazy-9bWayp&quot; alt=&quot;Bucket with objects resource icon for the S3 service.&quot;&gt;&lt;br&gt;&lt;p dir=&quot;ltr&quot; style=&quot;line-height:1.2;text-align: center;margin-top:0pt;margin-bottom:0pt;&quot;&gt;&lt;span style=&quot;font-size:12pt;font-family:Arial,sans-serif;color:#000000;background-color:transparent;font-weight:400;font-style:normal;font-variant:normal;text-decoration:none;vertical-align:baseline;white-space:pre;white-space:pre-wrap;&quot;&gt;Amazon S3 output bucket&lt;/span&gt;&lt;/p&gt;&lt;/b&gt;&lt;br class=&quot;Apple-interchange-newline&quot;&gt;" id="KeAtxHLE9qD8ygLtUr-u-13">
          <mxCell style="text;whiteSpace=wrap;html=1;strokeColor=default;strokeWidth=2;" vertex="1" parent="1">
            <mxGeometry x="-221" y="549" width="1040" height="612" as="geometry" />
          </mxCell>
        </UserObject>
        <mxCell id="KeAtxHLE9qD8ygLtUr-u-2" value="" style="outlineConnect=0;dashed=0;verticalLabelPosition=bottom;verticalAlign=top;align=center;html=1;shape=mxgraph.aws3.ec2;fillColor=#F58534;gradientColor=none;" vertex="1" parent="1">
          <mxGeometry x="-59" y="650" width="76.5" height="93" as="geometry" />
        </mxCell>
        <mxCell id="KeAtxHLE9qD8ygLtUr-u-20" value="" style="edgeStyle=none;curved=1;rounded=0;orthogonalLoop=1;jettySize=auto;html=1;fontSize=12;startSize=8;endSize=8;" edge="1" parent="1" source="KeAtxHLE9qD8ygLtUr-u-4" target="KeAtxHLE9qD8ygLtUr-u-19">
          <mxGeometry relative="1" as="geometry" />
        </mxCell>
        <mxCell id="KeAtxHLE9qD8ygLtUr-u-4" value="" style="outlineConnect=0;dashed=0;verticalLabelPosition=bottom;verticalAlign=top;align=center;html=1;shape=mxgraph.aws3.s3;fillColor=#E05243;gradientColor=none;" vertex="1" parent="1">
          <mxGeometry x="597" y="964" width="76.5" height="93" as="geometry" />
        </mxCell>
        <mxCell id="KeAtxHLE9qD8ygLtUr-u-18" value="" style="edgeStyle=none;curved=1;rounded=0;orthogonalLoop=1;jettySize=auto;html=1;fontSize=12;startSize=8;endSize=8;" edge="1" parent="1" source="KeAtxHLE9qD8ygLtUr-u-5" target="KeAtxHLE9qD8ygLtUr-u-17">
          <mxGeometry relative="1" as="geometry" />
        </mxCell>
        <mxCell id="KeAtxHLE9qD8ygLtUr-u-5" value="" style="outlineConnect=0;dashed=0;verticalLabelPosition=bottom;verticalAlign=top;align=center;html=1;shape=mxgraph.aws3.rds;fillColor=#2E73B8;gradientColor=none;" vertex="1" parent="1">
          <mxGeometry x="586" y="739" width="80" height="81" as="geometry" />
        </mxCell>
        <mxCell id="KeAtxHLE9qD8ygLtUr-u-8" value="" style="dashed=0;outlineConnect=0;html=1;align=center;labelPosition=center;verticalLabelPosition=bottom;verticalAlign=top;shape=mxgraph.weblogos.github" vertex="1" parent="1">
          <mxGeometry x="-1024" y="574" width="107" height="107" as="geometry" />
        </mxCell>
        <mxCell id="KeAtxHLE9qD8ygLtUr-u-10" style="edgeStyle=none;curved=1;rounded=0;orthogonalLoop=1;jettySize=auto;html=1;exitX=1;exitY=0.5;exitDx=0;exitDy=0;exitPerimeter=0;fontSize=12;startSize=8;endSize=8;" edge="1" parent="1" source="KeAtxHLE9qD8ygLtUr-u-4" target="KeAtxHLE9qD8ygLtUr-u-4">
          <mxGeometry relative="1" as="geometry" />
        </mxCell>
        <UserObject label="&lt;b style=&quot;font-weight:normal;&quot; id=&quot;docs-internal-guid-36481b95-7fff-680f-012c-77910bbb17d0&quot;&gt;&amp;nbsp; &amp;nbsp;&amp;nbsp;&lt;img width=&quot;49px;&quot; height=&quot;49px;&quot; src=&quot;https://lh7-rt.googleusercontent.com/slidesz/AGV_vUcpOkxqfhdGkSM6SwYYy2R8kRLqAwenmQhKi7zmE-YsmkbY3qMuf6oxfcng9SzfOoh3O67Vg_SAzxcstQ8j2qSNPFVsBrSSE7Pcl0i5LMRDa0Tkn80yKPAFttfmAXezfKOyr76Jb6qqaJwtbzczmEc=s2048?key=42c68_u_G01Ytpazy-9bWayp&quot; alt=&quot;General resource icon.&quot;&gt;&lt;br&gt;&lt;p dir=&quot;ltr&quot; style=&quot;line-height:1.2;text-align: center;margin-top:0pt;margin-bottom:0pt;&quot;&gt;&lt;span style=&quot;font-size: 12pt; font-family: Arial, sans-serif; color: rgb(0, 0, 0); background-color: transparent; font-weight: 400; font-style: italic; font-variant: normal; text-decoration: none; vertical-align: baseline; white-space: pre-wrap;&quot;&gt;   &lt;/span&gt;&lt;span style=&quot;background-color: transparent; color: light-dark(rgb(0, 0, 0), rgb(255, 255, 255)); text-align: left;&quot; id=&quot;docs-internal-guid-36481b95-7fff-680f-012c-77910bbb17d0&quot;&gt;&lt;span style=&quot;font-family: Arial, sans-serif; font-size: 16px; text-align: center; white-space-collapse: preserve;&quot;&gt; users&lt;/span&gt;&lt;/span&gt;&lt;span style=&quot;background-color: transparent; color: light-dark(rgb(0, 0, 0), rgb(237, 237, 237)); font-family: Arial, sans-serif; font-size: 12pt; font-style: italic; white-space-collapse: preserve;&quot;&gt;                 &lt;/span&gt;&lt;/p&gt;&lt;br&gt;&lt;p dir=&quot;ltr&quot; style=&quot;line-height:1.2;text-align: center;margin-top:0pt;margin-bottom:0pt;&quot;&gt;&lt;br&gt;&lt;/p&gt;&lt;/b&gt;" link="&lt;b style=&quot;font-weight:normal;&quot; id=&quot;docs-internal-guid-36481b95-7fff-680f-012c-77910bbb17d0&quot;&gt;&lt;img width=&quot;49px;&quot; height=&quot;49px;&quot; src=&quot;https://lh7-rt.googleusercontent.com/slidesz/AGV_vUcpOkxqfhdGkSM6SwYYy2R8kRLqAwenmQhKi7zmE-YsmkbY3qMuf6oxfcng9SzfOoh3O67Vg_SAzxcstQ8j2qSNPFVsBrSSE7Pcl0i5LMRDa0Tkn80yKPAFttfmAXezfKOyr76Jb6qqaJwtbzczmEc=s2048?key=42c68_u_G01Ytpazy-9bWayp&quot; alt=&quot;General resource icon.&quot;&gt;&lt;br&gt;&lt;p dir=&quot;ltr&quot; style=&quot;line-height:1.2;text-align: center;margin-top:0pt;margin-bottom:0pt;&quot;&gt;&lt;span style=&quot;font-size:12pt;font-family:Arial,sans-serif;color:#000000;background-color:transparent;font-weight:400;font-style:italic;font-variant:normal;text-decoration:none;vertical-align:baseline;white-space:pre;white-space:pre-wrap;&quot;&gt;Git push&lt;/span&gt;&lt;/p&gt;&lt;br&gt;&lt;p dir=&quot;ltr&quot; style=&quot;line-height:1.2;text-align: center;margin-top:0pt;margin-bottom:0pt;&quot;&gt;&lt;span style=&quot;font-size:12pt;font-family:Arial,sans-serif;color:#000000;background-color:transparent;font-weight:400;font-style:normal;font-variant:normal;text-decoration:none;vertical-align:baseline;white-space:pre;white-space:pre-wrap;&quot;&gt;Git users&lt;/span&gt;&lt;/p&gt;&lt;/b&gt;&lt;br class=&quot;Apple-interchange-newline&quot;&gt;" id="KeAtxHLE9qD8ygLtUr-u-14">
          <mxCell style="text;whiteSpace=wrap;html=1;" vertex="1" parent="1">
            <mxGeometry x="219.82" y="216" width="90.86" height="87.29" as="geometry" />
          </mxCell>
        </UserObject>
        <mxCell id="KeAtxHLE9qD8ygLtUr-u-17" value="" style="shape=singleArrow;whiteSpace=wrap;html=1;arrowWidth=0.4;arrowSize=0.4;verticalAlign=top;fillColor=#2E73B8;dashed=0;gradientColor=none;" vertex="1" parent="1">
          <mxGeometry x="386" y="749.5" width="80" height="60" as="geometry" />
        </mxCell>
        <mxCell id="KeAtxHLE9qD8ygLtUr-u-19" value="" style="shape=singleArrow;whiteSpace=wrap;html=1;arrowWidth=0.4;arrowSize=0.4;verticalAlign=top;fillColor=#E05243;dashed=0;gradientColor=none;" vertex="1" parent="1">
          <mxGeometry x="398.75" y="980.5" width="80" height="60" as="geometry" />
        </mxCell>
        <mxCell id="KeAtxHLE9qD8ygLtUr-u-21" value="" style="shape=image;verticalLabelPosition=bottom;verticalAlign=top;imageAspect=0;aspect=fixed;image=data:image/webp,iVBORw0KGgoAAAANSUhEUgAABskAAASGCAYAAABrMkDsAAAAAXNSR0IArs4c6QAAAARnQU1BAACxjwv8YQUAAAAJcEhZcwAADsMAAA7DAcdvqGQAAP+lSURBVHhe7N0JmFxlmT/s563uzs6mgjugiLss7oI6qKDjPo6GURToAAaXkREkCTpL244KSRBmYFyIkjSLa8bxc18ABXedkUURdVzYBTcgkIUkXfV+p1Ov/2Ec1KSrqlNddd91nVPP7zkx6VR3lVznyXtOAAAAAAAAAAAAAAAAAAAAAAAAAAAAAAAAAAAAAAAAAAAAAAAAAAAAAAAAAAAAAAAAAAAAAAAAAAAAAAAAAAAAAAAAAAAAAAAAAAAAAAAAAAAAAAAAAAAAAAAAAAAAAAAAAAAAAAAAAAAAAAAAAAAAAAAAAAAAAAAAAAAAAAAAAAAAAAAAAAAAAAAAAAAAAAAAAAAAAAAAAAAAAAAAAAAAAAAAAAAAAAAAAAAAAAAAAAAAAAAAAAAAAAAAAAAAAAAAAAAAAAAAAAAAAAAAAAAAAAAAAAAAAAAAAAAAAAAAAAAAAAAAAAAAAAAAAAAAAAAAAAAAAAAAAAAAAAAAAAAAAAAAAAAAAAAAAAAAAAAAAAAAAAAAAAAAAAAAAAAAAAAAAAAAAAAAAAAAAAAAAAAAAAAAAAAAAAAAAAAAAAAAAAAAAAAAAAAAAAAAAAAAAAAAAAAAAAAAAAAAAAAAAAAAAAAAAAAAAAAAAAAAAAAAAAAAAAAAAAAAAAAAAAAAAAAAAAAAAAAAAAAAAAAAAAAAAAAAAAAAAAAAAAAAAAAAAAAAAAAAAAAAAAAAAAAAAAAAAAAAAAAAAAAAAAAAAAAAAAAAAAAAAAAAAAAAAAAAAAAAAAAAAAAAAAAAAAAAAAAAAAAAAAAAAAAAAAAAAAAAAAAAAAAAAAAAAAAAAAAAAAAAAAAAAAAAAAAAAAAAAAAAAAAAAAAAAAAAAAAAAAAAAAAAAAAAAAAAAAAAAAAAAAAAAAAAAAAAAAAAAAAAAAAAAAAAAAAAAAAAAAAAAAAAAAAAAAAAAAAAAAAAAAAAAAAAAAAAAAAAAAAAAAAAAAAAAAAAAAAAAAAAAAAAAAAAAAAAAAAAAAAAAAAAAAAAAAAAAAAAAAAAAAAAAAAAAAAAAAAAAAAAAAAAAAAAAAAAAAAAAAAAAAAAAAAAAAAAAAAAAAAAAAAAAAAAAAAAAAAAAAAAAAAAAAAAAAAAAAAAAAAAAAAAAAAAAAAAAAAAAAAAAAAAAAAAAAAAAAAAAAAAAAAAAAAAAAAAAAAAAAAAAAAAAAAAAAAAAAAAAAAAAAAAAAAAAAAAAAAAAAAAAAAAAAAAAAAAAAAAAAAAAAAAAAAAAAAAAAAAAAAAAAAAAAAAAAAAAAAAAAAAAAAAAAAAAAAAAAAAAAAAAAAAAAAAAAAAAAAAAAAAAAAAAAAAAAAAAAAAAAAAAAAAAAAAAAAAAAAAAAAAAAAAAAAAAAAAAAAAAAAAAAAAAAAAAAAAAAAAAAAAAAAAAAAAAAAAAAAAAAAAAAAAAAAAAAAAAAAAAAAAAAAAAAAAAAAAAAAAAAAAAAAAAAAAAAAAAAAAAAAAAAAAAAAAAAAAAAAAAAAAAAAAAAAAAAAAAAAAAAAAAAAAAAAAAAAAAAAAMG2l8gwAAADQn155xo5R23jPGKjPi9rAvMgxu+rWop6GYrCqGvXxarc5YsadEfU7I2+8o/p1t8fajWti9eimLb8HAADTjiEZAAAA0F8OGhmMB809MHK8MCI/JVJ6YNWdVW1DZRuotolzJrXmU87Vrh4p1yOnelVvqvqbqvbEgOwn1S/5bqTat2Nw/Jux4qQ1VQ8AgGnAkAwAAADobSMjtbhm7oOilp4e0XheRHpq1b1P82A7pXrk+GmkuDQajUsjpR9FLf88Hrj+5zE6Ol5+EQAAXcKQDAAAAOhdw8v2jpT+NSJPDMbmVlttS39qbK62TdHIN0WKD8aMvDJWnHRd8xAAANubIRkAAADQWyZWjl2/wwHRqB8TKeZHpDnlyPY2MTT7YfX1fDVy45IYH/9WnP/3NzUPAQAw1QzJAAAAgN6Rc4rh5W+LWiyp0sT9xbpUmrjP2Xj1BX+xeh6JVYsv3dIGAGDKGJIBAAAAvWF46ZMj0qmR4sDSmS4a1fbjiHxhNNJnY8dZl8SZx21sHgIAoFMMyQAAAIDpbmL12AsiGp+IlAZKb/rK8fPq7/JPMWfDp2LXWB+joxNDNAAA2syQDAAAAJi+5s8fiLmPPzFSmri84i7NZk+YGIxdU20XRq5/OK658+tx8ej4liMAALSFIRkAAAAwfQ0v+7tI8S8l9a6cLova+EnRuPO7MTZ6W+kCANACQzIAAABgehpe+ppI6ZSq2qnZ6HG5eqS4MnL6eIwProjzj7+pHAEAYBIMyQAAAIDpZ3jpIZFqn4/I0/8eZJOzJhrpPTE4vjJuv/TqWL26XvoAAGwlQzIAAABgejlq6Q6R0zer6tHNRl/7VUS+JFLtn2PloitLDwCArWBIBgAAAEwfC0fmxMa5n4haPLt0mJBjU6T0gUj1FXHHg6+M1YdaWQYA8GfUyjMAAABA99s497lRi2eUxO+lmBGRXxe59uWYc83qOPrkh5QjAAD8EVaSAQAAANPDlsssxtci0r6lwx+T86ZItQ9EPc6Kc0/8QfWa5XIEAIDCSjIAAABgemikfzYg20opzaj2r41a4+IYXv6eeMFZc5oHAAD4PSvJAAAAgO43cfnAxsA3qmq3ZoNtk38VubYs6mvPj/NGf12aAAB9zUoyAAAAoPvV03Mjx64lsc3SvSPl5TEw+6oYXv7y0gQA6GtWkgEAAADd7XUj82LDnCsi0oNLh5bkRqT0lWjEqTG2+AulCQDQdwzJAAAAgO62YNlrq/17mqEDcvVI+b8j0uVV+E31PFR1do6cHxEpPTJSDJZf2Vsm/t4Rn4pN9QXxoTff2mwCAPQPQzIAAACge80/bXbM23xhRDqgdNrpO5EbZ8R4/Stx/t/fVHr/2/DIrIiZe0YMTqxi2ytSelxEfkI04qFR65HhWc7XRE7vjcF1H4izR28pXQCAnmdIBgAAAHSvo5c+Ihrpq1V1r2ajZY3IcWVEPjHGllxQettmZKQW18+5T0Tt1ZHz0VXn3tU2VG3T/DxL+lnkTfNjj03fj9HRRmkCAPQsQzIAAACgew0vmx8pPlJVtWajJWsi57fEuvXnxurRtaXXmuNPmx23bnx0pNpTIqcXVV/rU6vuzObBaSjnddXuozE+4+Q4/4SflS4AQE8yJAMAAAC614Jl51X7VzVDi3IejbEloxNVs9EBhy9/UAw0ToyU/joi3bP6oyZWmE1Ht0SKY2LurM/FmcdtLD0AgJ7Sjn+FBQAAANAZOZ5Zqtbk/JOoxbsmqmajQ85bdHWMLf7bqG96fPVnvrLaPhuR6uXodHKP6pX6aKzdcG4sPP2+pQcA0FOsJAMAAAC608SqrMH8i5ImL1ePlBfEqiXnlM7UOmb5PjGe3x4pnhSRdq2+oOl1PibHr6Mx/ldx7pu/XX39nR0yAgBMISvJAAAAgO400Ni/VK1J+erYPP6lkqbeBxZ9P8YWvTg256dXX8sbqs5PmgemiRS7xcDgJ+PI5a/bkgAAeoQhGQAAANCdcnpIqVqT0+fj/L+/uaTtJOU4f8lPYuXid0det1/kxisjxzeikdeWX9Dtdo1a/FscseydMX9kRukBAExrhmQAAABAd0qxe6lak+PDW/bdYmz0zhg76UOxbt1fRkpPq76y91VfXqMc7W4D8aaYM/fjMXz6zqUDADBtGZIBAAAA3aodg5hGzFx3Wam7y+rRtTG2+PJqe23UBh5cfanvjRxXV0e6eWA2FLV4QcTmj8bhp7RniAkAsJ0YkgEAAADdKcWOpZq8HBtjxej6krrX2SdeG7tv+NsY33xg9Rf/u8jp1+VId0rx7BiIS+KIk9tz3zgAgO3AzVYBAACA7jS87JOR4kUlTU6OdTG2eF5J08crz9gxhjYcG1F7RfUa7FP9RQbKke6S48bI+XVx7frPxcWj46ULADAtWEkGAAAAdKvN5XnyUsyJo5buUNL08cHjbo+xJctj3dqnR86vqDo3NA90mRT3j5Q+Eg+a+4bSAQCYNgzJAAAAgG61pjy3IkVOe5d6+mnet2x15KHHRD2/IXL+XvVXyuVod0gxO3K8K4aXjsUxSx9QugAAXc+QDAAAAOhOOX5ZqtbkxuNKNX2NHX9bnLvk32LGz59SvS6HVdvvypHukCYe6cgYj+/F8NJDShcAoKsZkgEAAADdKTXadInB2kExMtIb50BWrNgcY4s+EuNDj4mcF0eOn5cj3SGl3artEzG89L0xvGy/iOx++ABA1/IfKgAAAEB3Gl72tEjx1ZJakK6IjePPiA+9+dbS6B2HL58bg3l5VR1VbTO39LrHxD3lVkU9vhy1+q9ioPar2Fz/dWyYtT7mrsmxwz1z3Py7HLvcL8d9f5njkupX7/qoHI/8YY7Rt+bq+9Zdl5UEAHqOIRkAAADQnQ47eZeYOfibiDxQOpO1LlJ6cqxcdGXJPSanOPqU/aJee31EOiwm7hHW3RrVtqHa1lbbui1bnnjOd0aqbYyc10Yt1ld/rTuq+rbq+B1Vruq0JlKuvpf59qgP3B6NKjfuvCN23HRH7Fr9+tHRid8XAGCrGZIBAAAA3Wt42ZWR4lElTV7Oy2NsyeKSetfhpzw1BtLZkdJeVWp1uDiN5E3N+7Sl31ThF5HypyLP+EpV3xY7DGyIM4/buOWXAQDchSEZAAAA0L2Gl/1bpHh9Sa24I1J+eKxc8suSe9fw6TtHjP9N9ff9+yo9sNnsQzlvipSur6pfRCOujFr+ZgzEt+MDS26cOLrl1wAAfc2QDAAAAOheC5a9oNp/stpqW3JrlsSqxctK3fte8Y57x8yhd0fOz4lamle65PhR5MZnI9IXolH7RcwYWBO3f2tNrF5dL78CAOgThmQAAABA9xo+9eGRGl+rqns1Gy35VgztdHCsOHZ9yb1v/scGYs7PnxVp4F8jxcNLl6aJ1WS3VtvEyrJfRG58NaL25Vi35w9i9aEGZgDQBwzJAAAAgO71unfPi/Vrvxop7V86k9fI45Eah8TYmy8unf5x0Mhg7DnvnZHywirt1Gxyt3L8JlJ8OXL6VNTi+5E3/yp23/i7GB1tlF8BAPQIQzIAAACguy1Y+s6I9OaSWpPzf8cOs/eJM4/bWDr9Y2RkMK6f/ajItfdV6cnNJn/Gmmq7OXL8d6T8mUjxmb64rx0A9AlDMgAAAKC7verkh8TgwA8jxYzSaU2Oo2Ns8cqS+s/RI/eI+tx3RS2/LLJ7lW2TidWIEZdGLX26ev5a1Ad/FueeMHG5RgBgGjIkAwAAALrfgmUTQ4kXNEOr8tdjaOdnxopjN5dG/5m4V9nsX7wiaumcSKlWumybidWIv6m2H0eOD8a6wY/G6hM2bDkCAEwLhmQAAABA91uw9GUR6UNVNdRstCI3IgYPi1Vv+mhp9K/hZU+rXo8PREoPLR0m77bqtfxSNPJnY3DGN+MBa37hPmYA0N0MyQAAAIDut+Cdu0YMfq+qHthstCrfGeO1R8Z5i64ujf41fPKeEbUvGpS1Tb3a7oicv1dtp8c5J32uynnLEQCgqwyUZwAAAIDudflF62O/Z8+LFM8onRalwer3qsXlF3y+NPrX5RfdFk/8y49EIz+ySgZlrZu4fOWsSOnB1XZY7H9ItT3rAbHvwZvirw68Pi65xMAMALqElWQAAADA9DAyMhjXzb2xqnZrNlqUYmPkgb1j1ZuuL53+NvH6Xj/nfZHjaKeMOqAR49X++hiovT5Wnmg4CwBdwH/xAAAAANPHgmX/FDneGqld5zTSlREznxmrjvtNafS3hSNzYvPcJVU1sc3c0qO9cvVI6dLI9Q9FPf49zjvpunIEAJhihmQAAADA9HH0aQ+Jxvh/VdVOzUYbNBpvi3NOGimJCUec+twYaHy0qnZoNuiQO6MRJ8fMnU6OFcduLj0AYIq4JxkAAAAwfVz2xVti/0MGq+qZzUYbpLRvPPZZ34jLLrSi5/eu+OLPY79vfr2qHhIpdq+e/UPrzpi4N94zor7x5dXP9S7x+Of/OC79wrpyDADoMP+BAwAAAEw/w8t+GCkeWVI7/DoGZuwTH3jjr0pmwlFLd4gcH4hIL66Syy92Ws43R9SPjtj45RgbvbN0AYAOqZVnAAAAgGkk/cuWezu1S45do77pbSXxeyuX3BG7r39F5DS/St9qNumYlO4TafBTEXM/EUctf0rpAgAdYiUZAAAAMP0sPGtObFrzX5HiEaXTHo18bOy5/gMxOtooHe7qyGWvj1osisj3jkizSpdOacSp0UjL47xFv6lS+4bCAMAWhmQAAADA9HTksr2iFv9ZVbs0G22Q862Ras+NVYu+Uzr8odeevEusrz02ammfSPmPX6WoEfeOqD2p+jX7V2mHZpNtlKufyZ9GTmfEOYvfXXoAQJsYkgEAAADT15GnLI9a7cSS2uXSGKo9J1ac+NuSacVBI4Ox944Pjs2bHxu1gb2j3nhQDOS9olHbMVLMjhwzqueh6lcObalzHopaGopGDEQtBpu/CdHIX69ekePjgesvtdIRANrDkAwAAACYvo5aer/I6Yqqulez0S7585Hib7bck4vOGB6ZFY2Zc6Mxe0bMrM+IeqPa0sxIaSgGNs2ImDkQjfHZUavNi5R3ika615bnnKsc94wc96t+l/tU3//7bsmpD85z5bi12n0mBmcuig+88VelCwBMkiEZAAAAML0teNcBEfUvVFU7L+k3sVJnJHZf906rdqaB554xMx545wOinh4ejfyIantk1NIeEXnXiHTfyD02RMtxdfW3+fvYtO6z8cHR20sXANhGhmQAAADA9DYyUotr554RKV5fOu2yKXI6LsYWnVUy08nChUNRv+8O0Zi1c+TYPWLgZRH55ZHSPcuvmN4aMV79zH8v6vlv47wl/1W6AMA2MCQDAAAApr/hZfeJyF+NlPYunXa5Oer5xXHuku+WzHTWHKg+O1J+SUR6bNV5RLXN3XJs2srrq92/xnjt/XHeoqubPQBgaxiSAQAAAL1h+JTHRKp9rap2ajbaJd8QOT0hxhbfXBpMfyle9+65sWHjbhHjR0aO11Sdqp62crVdF9E4Nlad9MVmCwD4cwzJAAAAgN6wZZXQnH+MlN5aOu2T43NRT4fGeYvWlQ69ZP7IjNhxztNiPP4qaumgqjOxwmxgy7HpJG8Zlp0TUVsaYyf+uNkEAP4YQzIAAACgd8z/2EDMu+bzVXVIs9EmW4YP+dQYW7K4dOhJOcUbzpwRt214TNRiJFJ6fqTpdv4sTfysbqx+YhfH2KJ/a2YA4O4YkgEAAAC95ZilD4h6+nJVtff+ZHli1lB7TYyduMLgoU8ctfRh0cjPr77fL4xUe1r1QzB9VpflqFdf94VV8Y4YWzxxGVIA4A8YkgEAAAC954hlL4iB9KmYWBnUXrfFpvyY+OCSG0qmXxzzjnvH+OD7IqUXVanWbE4DE6sgUz4z1q5fFKtHN5UuAFAxJAMAAAB60/DyEyLlk6tqRrPRJjmurrZD4pzFPy8d+kZOseBdj4g8/qJI6bCI9KiqOT0GZjn+s/pST4k97vhUjI6Oly4A9DVDMgAAAKA3DY/MijznP6KWnls67ZPzR2KP9a+M0dFG6dBvRkZqcd3sF0auvTNS7FV1ZjYPdLEt99aLVTFn3d/Fe0bXbekAQB+bPtdRBgAAANgWl18yHvs/+6JI8RdVun+z2SYpPSxunXFnXHHBN0uHfnPJJTkuv/Ancd8Xnh2zN3+1+jnbVG0Pr3442rtysZ3Slsf+sXnGX8d+B6+pvv7vlyMA0JesJAMAAAB621Gn7BuN2pcixW6l0yYpR248J8aWXFAa9LvDTt0jZtTfEWnL6sVdqq27z73l+FCMD50Y5x9/U+kAQF+xkgwAAADobS868DexZtZPI+WXVGmw2WyLFCntH489+Py47MJNpUc/+8GX1sTeCz8Zg7d8Omrpl5HzY6ufkdnlaDd6dNQaL4j9DlkXOx9wZVxzicuHAtBXrCQDAAAA+sORS/8+amm0qtr7j4Zz+nTE2kNjbPTO0oGmhWfNiU23/VOkdFiVJi75WdvS7z71yPmsaAy9M8494ZdVdq8yAPqClWQAAABAf3joSy6Loc2PiRQPK532SPGQiMEb4/ILv1c60PS9z2yOyy+4KB7z9Y9HyjdWPyxPrX5euvGeZbVI6QlRq78o9j/4FvcqA6BfWEkGAAAA9I/5p82OueMXR4onlk6b5N9FLZ4WZy/5UWnA/zU8snPEnJFI6a+qtHu1defKspzPjmi8PcbefE3pAEBPMiQDAAAA+suCZY+NnL/e9ntF5cYPYsbgM2PFib8tHfi/RkZqcd2O9488/uqI9OZIbb1PXnvk6pHixkiNN8XKkz5WugDQcwzJAAAAgP6zYPmLI+dzI8WOpdMOjcixLMYWv7lk+NMWnPzgyAP/WFUvrn4Wd2k2u0iOTRHp32KwcXp8YMkNpQsAPcM9yQAAAID+c/kFP4n9D5lYwfPMZqMtUvV4Yux/8I/j8guvKj344y6/6NZ44oM+F/V7fSJSnrhX3l7NA10ixUC1PSUatRfEPs/8Rlxx0c3lCAD0BCvJAAAAgP70upF5sX7uRyPF80qnXa6L2uCz4uwTflYybI0Uw8teFpFfFzk9NWpddxnGOyPHaMxZ92/xntG1pQcA01p33hwUAAAAoNMmTvSvG3xZVV3ZbLTN7tGoLy01bK0cY4tXx7r1z4lafkVEY33pd4tZkeIdsX7ON+PwU3YvPQCY1qwkAwAAAPrbglOeE1H7ZFXNbDbapBFLYs91p8boaKN0YOstfMd9Y/PQGyPHa6K9985rh+ui0XhbpHt/MMYW3Fl6ADDtGJIBAAAALDj1mIjG+0tql1ticz4gzl/yk5Jh2y0cmROb5nwqUnpW6XSTT8bV614WF4+OlwwA04rLLQIAAACsvePcyPk/SmqXe8RQfCAWnrJTybDtVoyuj3VDL4yoza/SfzabXePFseec78eCZS8oGQCmFSvJAAAAACYML7tPpPhRVe3cbLRLPiN2X3+8yy7SsoVnDcWm2/6x+jl9U0SaU7rdIccpEetGY2zU5RcBmDYGyjMAAABAf7v8grWx/yHfrqoXVdvsLb12yOmhcdvgN+OKC68tHZic732mUf2cXhz7fvsLEY3ZkdIjq253nN/L8eRIg0+O/Z59ZfU13ly6ANDVXG4RAAAA4Pd2X/e1yPnsqsrNRhuk2CVS+li84tR7lQ60IOU458TvxR7rh6MRx0Ru3FQ1t/8qxVoMRqo9u/p5/0IMn3zQllVvANDlrCQDAAAA+L1LLsnxxAO/EfUZj4kUDyvd1qU0LwbyTrH3qz8fV61u3wCO/jXxs3rFBVfEPs/7SKQ8XnWeWP3MdsO5vnmRaq+I+sZ7xIsPuLD6Ol1mFICu5Z5kAAAAAH/o8FN2j4HaxZHiQaXTDutjPD0zzlv0nZKhfY465amRB/4tIj+mSt1x9agcl8bQ+Cvi/W/579IBgK7icosAAAAAf+i8k66PFMdVVb3ZaIs5MVD/eBxx2v1LhvZZedLXo775WRH5H6q0sdnczlI8NjYPXBDDpxy2JQFAl3G5RQAAAIC7c/kF/x2PPWRmVR1Qbe35h8Yp7Ri1+mBcfuEXSwfa54qLNlQ/W1+PfQ/5SqR4VOS4f/W8fYdTKe1UbS+pvqYcjzv40rjswk3lCABsd1aSAQAAAPwxd9ZPjUb+fkltUhuOI5c9uARov3MWfyM21p8bkU6IyOtLd3uaOAf5j5Hjs1suZQoAXcIyZwAAAIA/5ailD4scF0ek+5ROO/wkhhpPihUnrSkZOmPB8idF1E+NqFXPMdRsblc/jlx/bazb62ux+tB2Xs4UALaZlWQAAAAAf8rKJT+JnN9UVZubjbZ4WGwaWFBq6JxVi74TQ7s8JxpxfPVz3Cjd7enhkQY+GXOvfnXJALDdWEkGAAAA8OcMj8yKmHt2pDisdFqX4+qIocfG2PG3lU7/GBkZjKtn7hR5aMfqNd0hao05UcuD0ail5vPA2rjmjsvi4tHx8r+gHY4+df9o1E+PSH9ROttPrh4R74k0azRWHfebZhMAppYhGQAAAMDWmD8yI+bN/UZVPb7ZaIsPx6rF7Ru8dasFb39gpJlPiUbjSZHSgVVn72obqLZaRC7PW05TpS1POcajEYvinMXvnWjSRlsGvnNOipz+vnrVB0t3+9gyKMtXxviM58T5x99UugAwZQzJAAAAALbWEUufEQPxuYg0q3RatSmi8YxYddI3S+4dw8tOjpT3jZweFSk9MKqiHNk6eWKhUVoZM2pLYsWJv202aYuRkVrcMO/50chvrV7j/bf5e9N2+RfVl/D6GFv8hdIAgCnhnmQAAAAAW+vcJV+JSGeU1A4zqt/vb0vdW3JcV/3dDogUu09qCJOq/0mKo2JT46cxvGy/0qUdRkcbcfaiT8d4enrkxidLdztKD66+15+rvs9/NxGaPQDovInl7AAAAABsrRcfcHGsmfGUqtqr2WhVemg89tkXxWUX3FAaveHyL30vPvnNXapq4vKKk5diVrUdGvsdPCce+awr4gcX3VmO0KrvX7A5njj/P6K+8ZoqPb56nXdsHtguJoZjfxH7HbJrPPKZ3/F9BmAq+JcZAAAAANvq6GUHRiO+WlXtuUpPzpfHjJ2fGCuO3Vw6vWHisn7Xzf1pVT242WhRzl+LOfOeF+95/drSoV0Wnnqv2FT/dER6UjTvDLcd5Qti9vq/jveM+j4D0FFWkgEAAABsq8u+dEPs982JgdYz2zJQSGmn2Lz+W3HFRb8ond5wySU59jv4hurv95IqtX4eKqU9Ynzz4bHvwT+PKy78SenSDt/70vrY++B/jxmxpnqdn1R1ZjYPbA9prxif+fzY/9mXxeUX3FiaANB2VpIBAAAATE6K4aVfj5QOKLk1OVbH2OK/2VL1ki2ryeZ8NHJ6aVsGilvkO7f8fuv+84uxenW9NGmXI5YfHINxbuR839LZPnL8uvqJeW6s/c8rfJ8B6IT2XBIAAAAAoP/kaAy8vdStS/HiGF62b0m9Y3S0EWvnLYjUuKh02iDNqnYfi3lPfEEz01bnLrowNm+5l9wnmo3tJMVu1f6r1ff5tc0GALSXlWQAAAAArThy2TlRiyNKak1On4x1e7w0Vh/ae6tmXnXKvjFUmxiU3bPZaIOcb4pIj42xxTeXDu208Kyh2Hj7O6uf74XVi71j6U69nCfeG6fH3Ln/5H50ALSTlWQAAAAAraiNnxg5ri6pNalxQOxw9UNK6i3nn3RFNOrPqV6r35VO61K6b6S8MuaPzCgd2mnFsZvjnEWLqtf55VW6pdncDlKaOIv5d7Fh7aqYf9rs0gWAlhmSAQAAALRi1Vt+G6mxsqQWpV0j5xeW0HvOefP3ohYnVtWmZqMd0lNj3uzHl0AnrDzx8xGzHl5VF1bb9rpnXq36Xr8s5o5/OYZP3rP0AKAlhmQAAAAArcmxac4Z1fO1zdiiXDsuDhoZLKn3/GLd+dVf8jXRiPHSadUO1faqZknHrDruN5HXza++d/9YpY3N5naQ4kkRtc/F8KkTQzsAaMlAeQYAAABgsn7w+Y2x33OuiZRfWqXWzrek2Cl2Gvx5XHHhFaXTW665pBEvPvD7sWbmnCodWP19W79nfo5Hxv4HnReXf/n20qETLr/kzup79424deiGSOlJVWde88CUqn5i0q7Ve+0lsc/Bl1Xvk2tKHwC2mZVkAAAAAO1Qq19U7S9vhhbV0qtjeGRWSb1ndLQRsfatUYuzSqc1Kc2Nxoy3R+TWB278aRPfu3OWjEWjcXCVftxsbhf3j4H4RCxY9oqSAWCbWUkGAAAA0A6XXbgp9nt2LVK8oHRakOZFbean4rILfl0avefyS8bjCQd8JeozHlO9Zg8r3clL+T6x79c/H1dc+JvSoZMmXufHH/zJaKS9q7RX9T3cDv8YP82KHIdU77vfxYsPuDwuuWR73S8NgGnKSjIAAACAdpmx48pq/4tmaMk9opFfVOretWJ0fQwMLogcPy+dFqR7R6qdajXZFPrAkhtixrqXVy/5+0pn6qXYMVJ+d1wzdyRGRpzrBGCb+I8GAAAAgHY68pSjo1ZbUVWtnrC/NvKuD4+xBXeW3LuOPO1RUdv8pYh0v9KZvJxeEWOLPlISU2X4lFdX37+lkdIupTO1cmyqdqfHunlvj9WvX1u6APAn+dcVAAAAAO1UG/pStb+xGVqyRwz87i9L3dvOOeGHkWtvLak1jfpgqZhKYyd9IMaHnhg5bi6dqZViRqS0JOase28cNOJnAICtYkgGAAAA0E5D826OnL9fUmvqjcNipE9O+O+x9uyI/PmSJq+W1peKqZXj/BN+Vn0DnlHVX262toNaHBYPmntuHL58t9IBgD/KkAwAAACgnVYcuzlq6WMlterxce3ce5W6t42ONqJe++eq2thsTFItbygV28PYiT+OVYufFTmfE5Fy6U6lifOdr4iBxjmx8KyhZgsA7p4hGQAAAEC7bZz1/0WOO0qavJR2j0Y8paTeN9i4stpf3gyTVI/rSsX2tHn2cdHIE5fQ3D731EvpL2PTmotieNnepQMA/4chGQAAAEC7ffC426v9V5qhFXkgaumN1XMqjd62csnEYPH0yNVjcnIMJEOybjDxHjhn8duq6oRq206DsnhatZ0XC0/ZqXQA4H8xJAMAAADojE+W59ak/NQYXr5vSb3v6nUfjxTfLmkb5V+XQRvdYvd1Z8V4vLSqftlsTLknxabaV+NVSx9WMgD8P4ZkAAAAAJ2Qtlw2sB0Dm1r1e00MGfrDxaPjkervikaMl842SN8sBd1i4l5z5y3+XORc/Qzn7TMoS7FPDKaPxBGn3b90AGALQzIAAACAThhPN1T7XzdDy54WwyOzSt37BocuiVpcW9I2yBeXgm4ztuTbkdNBkSe7SrBFKfaLgfEL48hTHlU6AGBIBgAAANAR5534m2jkn5bUqn2iNucepe59K078beQ4s6StdWdE7TulphuNLf5ppFkvikZcWH1/J7FSsGUPj1RbHcPL9i4ZgD5nSAYAAADQESlH5M+U0KpdojHwV6XuE+vOihw/KmErpBtiYOiaEuhWq477TcxsvKx6b5xTOlMrxSO2vC+HT3146QDQxwzJAAAAADplcHBiSNZohhal+htj4VlDJfW+sdE7IzfeXVVb9/rlxn/F/W/9TUl0sxUnrYl1/3Vs9UN9RpU2NptTKKWHRmp8PBac+sjSAaBPGZIBAAAAdMrZJ14bOX5cUovS3nHnuv1L6A+btwwZb2uGPyU3ol57R4yOtmcgSeetXl2Pm2cujpxOLp2p9sjI9U/E0afuUTIAfciQDAAAAKCTanFRqVo3MP6XpeoPHzrx2oj0/pL+lHPivEVXlprp4vPHbYyxRaOR8/EReX3pTp2JFWWNxmfi6KWPKB0A+owhGQAAAEAnNfLFEaleUmtyPD3mf2ygpP5w88yRyPmmku7OLVGv/UupmY7WPejMyLVXV1V73ifb5tFRT6tjwRm7lgxAHzEkAwAAAOikWu2/I+fbS2pNyo+PuTfuUFJ/mFhtVEurJv7ypXMXuVG13xnnLvpBaTAdrT60HmOLPlR9O19Vpa24vGabpXhUxJ2fjYXL9iodAPqEIRkAAABAJ82d+dOIfEtJLUo7Rdr4ihL6x3j6aPUajpf0P3J6b6xcfNpE1WwwrY2d9NGo158ZOd9ROlPpCbEpnx/zT5tdMgB9wJAMAAAAoJPOPG5jpHRuSa3L6Y19d8nFc0+cWCn20Wao5IlHY3UMDP7T3a8wY5rKce6bL4s88IKq/FXpTZ2UnhxzN30ujnj7/UsHgB5nSAYAAADQabPqZ0bO7bnfUkoPjVnXPqKkPpFy7Dy4MBp5bRUmLrF4ZoyddGicfUKbVujRVc458auxecb+kePXpTN1Uu2gqA2dFQeNDJYOAD3MkAwAAACg09775lsjpS+W1LrBxkGl6h+nn7Ahaun9kfPrY97sxaVLrzr/+JsiNV5SVTc3G1MopefFnrM/EsOn71w6APSoVJ4BAAAA6KThU14dUTsrUlvOx3w0Vi1+ean7SfXaTVxd0SUW+8bwsvtU++9U3/ndm40plPP74pr1b4iLR//v/fAA6AlWkgEAAABMhRzfjFpeV1KL8tMi5378x8/ZgKzPjC2+OdL4odXP+02lM3VSOjr23OG0mD8yo3QA6DGGZAAAAABTYc8NP4p6/KSkFqX7xfDyQ0qA3rbqLd+JwU0HRuRflM5UGYrUeH3MnfN3fTqUBuh5hmQAAAAAU2F0tBEp3l5S61K4Lxf94wP/eHX1Qz8/ctxYOlOlFimNxPCyN5QMQA/xLyAAAAAApkxOMbz8mjbdX2lj1Af3inNPmOqhAWw/Ry7bK1L+XKT00NKZGjk2VH/mK2LVok+WDgA9wEoyAAAAgCmTcqT4bAmtGora5ieUGvrDOYt/EbXaS6vqhmZjiqSYHdF4fxy57MDSAaAHGJIBAAAATKUUF1T73AwtmTivc0CzhL6RY+WiK2MgPb+qr222pkratXrXfSSOWL5PaQAwzRmSAQAAAEyltO6SyHm8pNakdEipoL98YNEPoj54aOS4vXSmygOiVv9oHPFv9ywZgGnMkAwAAABgKp09ektEXllSq/aJVy19WKmhn+Q494TvRkovjZx/V3pTI9UeHrV1/x6vOPVepQPANGVIBgAAADDVNs4aadNqsloMpdeWGvrP7mu/HJFeFZE3l87USOnpMbPxryUBME2l8gwAAADAVFqw7KvV/mnN0JIbIuVHxsold5QM/eeopa+MnM6qqrnNxlTJJ8fa9W+N1aObSgOAacRKMgAAAIDtoZ4vKlWrdonxeESpoT+tXPyhiPSayNVjSqUTY87cF5YAwDRjSAYAAACwPeTaF0rVmhxzYiCeWBL0qZRj1aLzo5YXVe+JdlzKdGsNVX/muTG89K+q2lW7AKYZQzIAAACA7eG8Rd+JHNeWNHlp4sR8elFJ0N9WLnlXtV9WbVO4oizNiZTOjMOX71oaAEwThmQAAAAA20st/32pWvW0eNU77ltq6G9ji/8hcrynpKnygBjMX4yjT92jZACmAUMyAAAAgO1lcOdPRI5fl9SKWTFj6MhSQ7/LscOsN0XO395ST539otH415g/MqNkALqcIRkAAADA9nLrLhsj8tdLak0j/ibmnza7JOhvZx63MeasPyRy/nLpTJUXxLw5y2P+/IGSAehihmQAAAAA28vqQ+sRtS+V1JoUu8cO9b1KAt4zujYGBo6u3hs3lM5UGKjejMfFnCcdXTIAXcyQDAAAAGB7qjU+HTnGS2rFzpEbjys1MOHsE6+N8fFnVe+xn5fO1Ej1f44Fyx5bEgBdypAMAAAAYHtaueSXkdJ/lNSKWuT461IDv3fuW/476o3XV9WaZmMKpLRbtb8gjj75Ic0GAN3IkAwAAABge6s33hWNNqwmS+nZMbzsPiUBv3feSV+MnA6PRl5bOlPhHtEYPCOqP7hkALqMIRkAAADA9lab8d9Ri/8uqRWzqu2oZgn8L3us/WykeFtbBtJbLT83Fiw7I4ZHJt6bAHQZQzIAAACA7W2P226PnL9VUmtSvCTmj8wrCfi90dFGzNj5XyLlkyNXjymTjo00529KAKCLGJIBAAAAbG8TJ+9r+eMltSbHXjF73oNLAu5qxbGbY/PsUyPFZ0tnKgxFpHfF8MlPKBmALmFIBgAAANANHrjhgmjEDSVNXopdYiA/qyTgD33wuNtj7bojq+qqZmNK3DPSwAfjqKX3KxmALmBIBgAAANANRkfHI+V/K6lVx8TCs4ZKDfyh1aO3RBo4LHLcWDpT4SGR08kxMjKjZAC2M0MyAAAAgG4xMDRxycVbmqElj4zNtz+t1MDdWfmm70eqHR2RG6XTaSlyHB7Xzf3nkgHYzgzJAAAAALrFwJpfRs5XltSaRuNVMTLi3A/8cTlWnfjFyLVFVb2p2eqwVD0iFsaRJz+72QBge/IfSgAAAADdYsXo+ojaJ0tqTS09Ja6bec+SgD9m3R7/Go34bElTYeeoDXwwXnvyLiUDsJ0YkgEAAAB0k3qcHzndXlIr9ooY2rfUwB+z+tB6rB98ZeT8qdKZCveKDQPnxPyReSUDsB0YkgEAAAB0k/MW/Tqi8dGSWjEUOb+pep64vBvwp6w+YUPUa2+MyL8pnanwgpg751XVn+k9CrCdGJIBAAAAdJuUPhg5NpQ0eSkOiVe9a5+SgD/lvEVXV++7F1XVLc1Gh03cnyzF6XHksheWDgBTzJAMAAAAoNvUx6+MyNeU1IqBGKofWT1bqQJbY2zJt6u3y0jk6jEl0qxI6ZQ4fPlupQHAFDIkAwAAAOg2577ldxHpEyW16pBYeMqOpQb+nJ0Hzo5a/lBJnZfiETGQ3x8LzxoqHQCmiCEZAAAAQHc6MyKvL3UrHhkba08qNfDnnH7Chli5+PDI8Y3S6bwUL4rx21/v/mQAU8uQDAAAAKAbjS2+OXKsLqkVtUj51Jg/f6Bk4M9KORq1N0TkTaXReY385hhe/pCSAJgChmQAAAAA3arROL/ab2yGFqT0mJj3uINLArbGuSdeFlE7tKrWNRsdlmK3iPyZWHDGrqUDQIcZkgEAAAB0q6GZl0bON5XUotqRVpPBNtp97acjGitK6ryUHhqx4R9KAqDDDMkAAAAAutXZJ9wSOa8qqVXPiXlPvl+pga0xOtqIlEaq6pJmYyqkY+KI5VZ+AkwBQzIAAACAbjZzw6nV/rfN0JJ7RNSXlhrYWiuX3BEpHxaRflY6nTYnBuLj8aqT3Z8MoMMMyQAAAAC62YrR9dV+ZUTKzUYLcrw8Fix7bEnA1lq55JfVG+gfohHjpdNheccYHHhrVaRmBqATDMkAAAAAul76j4i8oYTJS9UjxxElAdti5aKPRS1P3WrMFK+Io045qiQAOsCQDAAAAKDbrV17WeR8eUmtSfHSeN2755UEbK2UctSGTquqbzUbHVeLPHBaHHHy/iUD0GaGZAAAAADdbvXopmjE8SW16gGxfu3EiX5gW519wi1RHx+OSJtLp8PyjjEw+I4SAGizgfIMAAAAQDe74sIbY/9D/qKqHtRstCDHvvHYZ382Lr/gptIBttYVF/0u9jvkxkj5ORFpsHQ7J8dDYr9nN+LFB3w9Lrmk9XsTAvD/WEkGAAAAMF004v2Rq0eraltO7B/bDMA2W7fu/Or9eFFJnTVxL8GU3xTXz3ls6QDQJoZkAAAAANNFGvp8tb+hGVr2iljwzkeWGtgWE5dArc94dVVd1Wx03E7RiOXx3DNmlgxAGxiSAQAAAEwXY8ffFpGPq6pGs9GSHSIGPxALzxoqGdgW5x8/cbnS10XKa5uNDkvpoLjPhpGYP98tdADaxJAMAAAAYDoZW/LJav/tZmjZ42LTmmeVGthWQz/7ZuR4d0lTIL02Zj/+cSUA0CJDMgAAAIDpJUe9cW6pWzUjUpxgNRlM0ooVm2Pl4jdX1TebjY7bOWrptFg4MqdkAFpgSAYAAAAw3dRmfjRy/LqkVj0rxm97famBbZVSjvHakqpa12x0WIoDY9O8f4qREed2AVrkgxQAAABgutlyb7LGMVW1udloSS1yekscffJDSga21Xknfj1ynFlV7bhf4J+X8lFx9ax9SwJgkgzJAAAAAKajPTZ8PnL6RkmtulfUB/621MBkrFs3EjlfVFKn7Rq1gbNcKhWgNQPlGQAAAIDp5JJLGrHvIZsixUtLpxUpIj8+9nv2xXH5BdeVHrAtrrqkHvs852fVu+mwauv88CrF/aOxaWO8+IBvVJ8HuXQB2AZWkgEAAABMV+vXfTxy/GdJrUlpMCL/axx28i6lA2yrB639TvVm+oeSOi/n4+IXsx9QEgDbyJAMAAAAYLpaPTqxkuw10chrS6c1KT06ZgweWhKwrUZHGzG26LTI+YLS6awUu8Vg7b0x/7TZpQPANjAkAwAAAJjOhnb6QaT0lZJaNRTROD2OXLZXycBkNGLqVpNFPC/mbj6y1ABsA0MyAAAAgOlsxbGbo9ZYVlWbm40WpTQ7avG+OGrpDqUDbKtzl3w3GvnvqqrebHRa+ruYP3KPEgDYSoZkAAAAANPdypO+HrnxnpJal+NZ0Yi/KgmYjGvXV+/J/NWSOivFw2Pe3NNLAmArGZIBAAAA9II09K5qf20ztChNPNK746hTnlo6wLa6eHQ8xtNo9YaamtVkOR8Rw0sNtwG2gSEZAAAAQC9Y9abroxEfLakddohcOzVeecaOJQPb6rzFl0Tk0yNSLp3OSWliWxQjI875AmwlH5gAAAAAvWJwcGm1/2kztMUTYvDOd8X8kRklA9sqD70jovH9kjrtyXHtvH8sNQB/hiEZAAAAQK84+4RbItKiattcOq2qVY9jYu7sEyNyKj1gW4wdf1s0YnlVNZqNjqpFym+N4VOfUDIAf4IhGQAAAEAvmb32omr/tWZok1RbHAuWvbokYFvtuf6jkfMHS5oCjbeUAoA/wb8AAgAAAOg1C5Y9ttpPDMrmbMntc1isWvzhUgPb4qil94tGfCtS2r10OmjiFmhp4v36kRIAuBsD5RkAAACAXnH5BTfF/odMXEHooGpr5z+Sfkbse/CNccWFPygZ2FovOnBd3L7l9n7P2ZI7asvb/umxzzM+GVdc9LstLQD+D5dbBAAAAOhFA3ksIv+ipHa5R9TS+bFg+atKBrbW6Ggj1u55RlVd0mx03K4xMPiaUgNwNwzJAAAAAHrRB5bcECmdVFKb5XfHgqULSwC21upD69Gov6mqbmk2Om5hHLN8n1ID8AcMyQAAAAB61crFH4+UPxLVrnTaZcfq9/y3WLDsmJKBrbV+r8ujkT9ZUqfNjXp+Xxy+fG7JANyFIRkAAABAL9scb4vIa0pqp6Hq9/3XGF52VMnA1phYTTa4/sTI+Vel02mPi4HGIaUG4C4GyjMAAAAAvej7F/429jt4TUR6bqR2/4PpNFT9ngfHYw/5UVx2wY9LE/hzLrtkQ+z37N9W75/nV6nT52gHqj/nIfGM550f3/7ieOkBULGSDAAAAKDX7bF+RbX/UDO03dzIcU4cecqjSga2xuZ1/1Htf9oMnVZ7XNyy+XUlAFCk8gwAAABALxt+58MjDV5cVfduNtosx4+j3nhOnHfSdaUD/DnDpx4SqfGpqprVbHTUz6v36VNjbPHNJQP0PSvJAAAAAPrB2Ft+HLX8oqqqNxttluLhMZDeVhKwNcZOvCByPq+kTntQpHRwqQGoGJIBAAAA9Iuzl3w3Un57Se2X0uExfMrLSwK2Rr12RuS4raROqkVu/GMctXSHkgH6niEZAAAAQD+547/+OXJ8sqoazUZb1SLV3hKHnbxLycCfc96iKyOl95bUWSk9NBq115QE0PcMyQAAAAD6yerV9bhm3csip/eVTrs9LAYHDiw1sDXWDvxztb+0GTotL4gF79y1BIC+ZkgGAAAA0G8uHh2PsUV/GznOrNLmZrNtZsRA+tvqOTUj8GetPmFDtT+12jqxwvN/S/GwqNWeXBJAXzMkAwAAAOhPOWbs9KbqaaSqcum1SX5mHLH0CSUAW2PTrM9W78SflNRJtainkZg/f6BkgL5lSAYAAADQr1YcuzlWLTk5ovHayDGxkqVdhqKWXhuRrSaDrfXB426PRh6uqk3NRgel9LiY8/jnlwTQtwzJAAAAAPrdjF1WRs7vKKk9Ujw8XvfWuSUBW+PcJd+t3oufKKmzUm1hvOGMmSUB9CVDMgAAAIB+N7Gi7Jwl74gcH61Smy69mHeLO+bNKQHYWim9t3oXtvkSqHcj5afEmrV7lATQlwzJAAAAACjqJ1W7q5t1i3LMjqHGYEnA1lq759cj0sTAutPuEbWBY0sN0JcMyQAAAABoGnvzNdGID5XUmhS1GB9yTzLYVqsPrcfs8ddV1c3NRgel9JoYHrlPSQB9x5AMAAAAgP8xOHh6RN5cUgvSeMxKjRKAbfHeN98WOX+wpE6aE2nuq0oN0HcMyQAAAAD4H2efcEvk9JWSJi/ndRH1NgzboC/lSEPvqZ7XNGNHvSiGR2aVGqCvGJIBAAAA8AfS10vRinUR44ZkMFmrTvhF5MaSkjrpSRFzH1hqgL5iSAYAAADA/zhq6Q6R8vNKmryUfhu3bthQEjAZ9YHzq/1VzdAxM6rtHc0SoL8YkgEAAABwF7W3VrsnN+sW5HxdrB7dVBIwGectWle9l1aX1EkviwUnP7jUAH3DkAwAAACApuGT94ycDy2pNal2eamAVozPOKva/7YZOiRVj0h/XRJA3zAkAwAAAKApDb2q2j+gGVqUczvuawacf/xNEY2lJXVOHnh+jIw4Xwz0FR96AAAAAEQcvny3iMbxJbUm59/FjJ1+WBLQqvqMD1f7XzZDp+QnxY3z9igBoC8YkgEAAAAQMRCHVft7NEPLLogVx24uNdCqDQ+4OVLq7OrMFLOjHm8rCaAvGJIBAAAA9LvhVbMi8gtLalGeWEn2iRKAdlh9aL16a03cm6yzGo2Xb7k3IUCfMCQDAAAA6HeNG+8ZKR5ZUmtyujXS4PdLAtpl1aIvV/srm6FDamkwarW/LAmg5xmSAQAAAPS72tATqv1uzdCy6yMGbi410E6psbza52bokJzatKoUoPsZkgEAAAD0u5ReXe3bdJ6ocWmMHX9bCUA7NfJXq/1NzdAhOZ4ZRy29X0kAPc2QDAAAAKCfvfKMHav9s5qhDVJ8pFRAu824x42Ro7OXM00xK+oxWhJATzMkAwAAAOhnQxueVO1nNkOLcr4phnaZuG8S0Akrjt1c7Vc2QweleGUc8fb7lwTQswzJAAAAAPpa7YBStC6l88pJfKBT1q37ZOS4tqTOSGlmpMH2rTAF6FKGZAAAAAD96qCRwUh535JatSHGG58uNdApq0c3Rer4arJa1Gp/XWqAnmVIBgAAANCvHjhv4jKLD2qGlt0Ug3N+Umqgk3Lt89X+jmbolPw8l1wEep0hGQAAAEC/qs+dUe13b4YW5fy1WHXcb0oCOmnG+H9HjutK6pA0FAMz3jpRNDNA7zEkAwAAAOhXg3fuXe3v0QwtygNnlgrotBUnran2n2yGjvqreOVSq8mAnmVIBgAAANCvaptfUKrW5HRZnHPipSUBU2Fg04rIsaGkzmjEzjEz/qIkgJ5jSAYAAADQt9LzS9GalM+r9rkZgClx9j9cW+0vbIYOqcVgNOLIkgB6jiEZAAAAQD8aPn3niLxPSa24vdouaZbAlEqNj1X7ejN0SEoHxYLlTyoJoKcYkgEAAAD0o7z5UZHSYEmTl+PGWLvuypKAKTXjm9XulmbdMUMRjZEYGXEuGeg5PtgAAAAA+lHKjylVa1JeGqtHN5UETKW137o2cnyrpA5Kj4/r5+xdAkDPMCQDAAAA6EcpteFSi/lXsXLxuSUAU2316noM5pOrqrOXXIzYNXIcUmqAnmFIBgAAANBvtlw2LT2ipMlL6WPVlksCtocPLPl25Dxx2cXOyulN8YYzZpYE0BMMyQAAAAD6zU33G4jceFhJk7U5GvG5UgPbU4rzq32jGTokxZ6x9s6jSgLoCYZkAAAAAP1m0x37RaT7lDQ5OW6NdY0puBcS8Gc10kXVfkMzdFDOR8fCU3YqCWDaMyQDAAAA6Dep8ZpI1aMVKd4dq09aUxKwPZ2z+OfRiI+X1EHpkbEx9i0BYNozJAMAAADoJ/NPmx3ReHlJk7Um1s49rdRAN6iNnxiNvLakzkgxO2oDbygJYNozJAMAAADoJ/M27R9Rm1PSJOUvxurXd/ZkPLBtVr3lN5HiEyV1UOOvY3jZfiUATGuGZAAAAAD9JA88uVQtqH2hFEA3aaSPlaqD0sQ55UUxMuLcMjDt+SADAAAA6Cv5aaWYrEbk8a+UGugmOX0lcv5FSZ2T4mlx9U73LQlg2jIkAwAAAOgnKR9Yqsn6Qoy9+ZpSA93kvEXrIqfXltRB6QGR6i8tAWDaMiQDAAAA6BfDy54XkXYtadvl6pHS20sCutE5i78UOV1WUofkFCm/OY4+7R6lATAtGZIBAAAA9I18bCkmpxY3xspF3yoJ6FqNj5aic1LcJ8brryoJYFoyJAMAAADoB689eZdI6aCSJifHf5YK6Gb1/OHIeX1JnVNrzI+FI3NKAph2DMkAAAAA+sGGgUdX+9nNMEk5vlsqoJudd9J1kfOpJXVOIz057pz3kJIAph1DMgAAAIB+kBv7VPvBZpikNPDVUgHdLjfOqPY3NEOH1KrPlFrjtKpKzQbA9GJIBgAAANAPUu3xE/tmmJQ7Yu0D/6vUQLd70MZbo5G/UFLnpPSsWPCup5QEMK0YkgEAAAD0gxRPLtXk5PyxWH3oppKAbjc62ogYeF/k6tFpuX5EjIw41wxMOz64AAAAAHrdK/7l3pHjYSVNTmPg46UCpotzTvxepPSJkjonxfPjptk7lAQwbRiSAQAAAPS6mRtfGqmlSy2uiaHad0oNTCeN+j9FjttL6pQHxMbaiaUGmDYMyQAAAAB63/PL82T9POq7rC81MJ3sOOdnkeKSkjonxUlxzNIHlAQwLRiSAQAAAPSyo5buECntU9Jk/TT2uMb9yGA6OvO4jZHjPSV1TorBGI9XlAQwLRiSAQAAAPSyFBMrO+Y1wyTluDxGRxslAdPN2OIvVu/jKVhNll4eIyPOOQPThg8sAAAAgF5WT3tU+znNMEk5Li0VMD3l6vH31fPGZuyY/eKauS8pNUDXMyQDAAAA6GUD+cHVfkYzTNJQvqpUwHQ1vu4HEfl7JXVKLVKcFgtP2alkgK5mSAYAAADQyxot3o+skW+KDyy5sSRguvrg6O2R6+8rqXMmLvG6qfbskgC6miEZAAAAQG/btzxPTq32tWqfmwGY1mbc8yNTcPnUidVkryw1QFczJAMAAADoWTlFjseUMFkTQzKgF6w4dnPkxj9VVb3Z6JAcL4rhUx9eEkDXMiQDAAAA6FXHnPqYSDG3pMloRH38G6UGesHMwe9U+580Q4ekiUfjPTF/pLX7IQJ0mCEZAAAAQK+qNx5XqsnJ+daYNevmkoBesOLE30ZO7y+pk54Uc+c8ttQAXcmQDAAAAKBXNdITSjU5Kf026nljSUCvmLF2RfUG/3FJnTKn2v6mWQJ0J0MyAAAAgN40ccGz/Us9WbfEprohGfSaFaPrI9dPq6pGs9EhKY6Oo0fuURJA1zEkAwAAAOhF80/ZMVK6V0mTk/Mt8eC1hmTQi9LQF6r3+K9K6pC0Q4zPfXsJAF3HkAwAAACgF+04uHO1n90Mk5Tj5hgdHS8J6CWr3nR9NNI5JXVOLf91DJ++Z0kAXcWQDAAAAKAXpbxTRG5tSJbSz0oF9KLB/M5qf30zdEraNfLm55cA0FUMyQAAAAB60fjEkCzmNMMkpZohGfSylUvuqPYrIlePzqlFLb0xFp7V2ucRQAcYkgEAAAD0olrcKyLNLGlyavXrSgX0qpRXR4q1JXVIfkhsuv31JQB0DUMyAAAAgJ6U9ojIqYTJ2bz5xlIBvWrlkp9U+w83Qyc1jokF79y1BICuYEgGAAAA0IsajQeWapJyI67b/KsSgF6W8omR45aSOiOlvSIG/qIkgK5gSAYAAADQkyZWkrUgp5vi4tHxkoBe1rw32XnN0DEDEbV/iOFVs0oG2O4MyQAAAAB60+7leXJyuB8Z9JNcnxiS1ZuhU/K+0fjNq0oA2O4MyQAAAAB60/3K8+TU8vWlAvrBnndeFjl/uqTOGYhj4pUjO5YEsF0ZkgEAAAD0nJwipd1KmJxGspIM+snoaCPmrD+8qtY3Gx3SiMfFzB32KQlguzIkAwAAAOg1x/zrbhF5qKTJSfnXpQL6xXtG10aOj5XUGbUYjNxYFvNHZpQOwHZjSAYAAADQazaNt3apxS1qt5UC6Ce1fG6pOukpMXfOC0oNsN0YkgEAAAD0nPH7lKIFjd+VAugnD1z/tYj8lZI6J9UWxvDIrJIAtgtDMgAAAIBeM5juUarJq8WtpQL6yejoeIzXjq6qjc1GpzT+IvLsvUoA2C4MyQAAAAB6TaPlIVkjclpTaqDf3LnHdZHjSyV1SJpVbWfGyIhz1MB24wMIAAAAoOfknUsxWZsjNzaXGug3qw+tR6p1/t5ktfSMuG7eM0sCmHKGZAAAAAC9p7WVZI28OQbSeElAP8p3fCZy44cldVA+JuZ/bKAEgCllSAYAAADQa3LsUKrJqaV69Xs0SgL60djonTFQO7GqOruqNMdzY9Yv718SwJQyJAMAAADoNSnNK9XkTAzIGsmQDPrd7XO/Hjl/v6TOSLFj1Da9uySAKWVIBgAAANB75pTnScqNGKjnEoB+tfr1ayPHh0vqnFq8IIaXPa0kgCljSAYAAADQa3JubSVZSo0YHzAkAyIGYkXk+F1JnfTq8gwwZQzJAAAAAHrJyEgtajFU0mQ1YqjPLrd42Kl7xIJTXhVvOGNm6QATVi65o/pI+OfI1aOTUrwoDv+X3UsCmBKGZAAAAAC9JqdUqsnKsbFU/WBiMDaz/t6I2sq4Y/2bShf4vc3p49X++mbomJ1icPMHq+dWP78AtpohGQAAAEAvuepRKSYerWnEjD5aSbZ2w8sj0jOqaijSwNtieOlfNw8AW2x60E3Vx8KFJXXSgXHE0oNKDdBxhmQAAAAAvWSXW2sRudVzPrXY1PLvMT0c8a6HRo73V9WsZiMPRIrjY+FZc5oZiNWH1iM13lVSB+UUtXR0CQAdZ0gGAAAAwP+WoxaDA71/ybOFp+wUtfrKSOl/38Mtp8fFpjseVRIwYdVbrqr2H26GDkrxV3HkKd5/wJQwJAMAAADgf0tRi80be/u8Uc4pxtPy6u96YOn8jxSzI+XXlgT8XsqnVW+e9SV1ytxI6ZwYGXHuGug4HzQAAAAAveS+v8wTZ7JLmpycB3p6JdnEgOyoZW+IRjqmdP6vRmP+lpVmwP+4Y/2PI6fvl9Q5KT06rpvl3mRAxxmSAQAAAPSSS7bsWxuSpVSLWg/fk+yYZQ+v/pKjkarHH1NL82Jj7UklARNWj66NWry3pE6aGTGwsNQAHWNIBgAAANBLdr0qR2pxSDZxzmhzj543Onz5o6ORvlBVOzcbf0LKTy0V8HuNdR+r9j9sho76q1hwygGlBugIQzIAAACAXrJ6dT0auV7S5OQY7MmVZMMjs6JWP72qdm82/oxU2y9GRgZLAiaMjd5ZfcacUVWNZqNjZkYjnR5vOGNmyQBtZ0gGAAAA0HPS+lJM1lAMRG8Nh7acaJ87FrXaM0tnKzQeEVfFrBKA36s1Lqz2v26GDkrpMbFmg9VkQMcYkgEAAAD0mtzYUKrJSRMDsoE5JfWGO9a/vvp7/U1VbcP5sPSgmDvzASUAv7fqzb+IXJu4bGlnpZgdtfTGGBlxHhvoCB8uAAAAAL0m1Vobkk1o5F1KNf0NLz2kek1GStoWA5EHjyk1cFeD9X+s9nc2QwfleF5cN28bVoACbD1DMgAAAIBek2NNqVqQ71mK6e3w5Y+OlP69qnZsNrZRyq+NhafsVBLwex9YckP1BvlwSZ1Tm1jZWn9bLDyrt1a3Al3BkAwAAACg16Q2DMlqaedSTWM5xUD+16qY3IBsQkpzYtPA80sC7io3JoZkU7CarLZfbLz18SUBtI0hGQAAAECvSY1bSzV5jTS9V5INr5oVC5a9L1K04TJteX4pgLuaM+9b1f4XzdBBE/cmS2lxzJ8/UDoAbWFIBgAAANBz0m2laEG+dymmp/yb51evw3BJrUnxnBg+vQdW1kGbvef1a6OeJ3O/v8n4y5j9pGeXGqAtDMkAAAAAek1KvyvV5KXYvVTTzzHLHxS1OLWqZjQbLZsdsemMUgN3de7ij0eO75fUOSkNRK3+pph/WvV+BGgPQzIAAACAXpMbN5Vq8nLsUarp5fjTZsd4Pq+q9mw22iW9KoaX7V0C8P+kXH1ejG157rQcT4od6nuVBNAyQzIAAACAXpNrvynV5E3XlWS31A+rvvYnlNQ+aeLReHFJwF2l+ExEY2NJnVNL86KRTyoJoGWGZAAAAAC95pZ8c6lasUO8cmTHUk8P80/ZKVJjeVW16zKLf2Dg0FIAdzW2+KeR00dK6qwUr4zhZfuVBNASQzIAAACAXvOpJXdEI68tafLm7HifUnW/+SMzYm46M1LapXQ6ID8uFpzynBKAu0rjiyPn1u+HuDVSfmMcNDJYEsCkGZIBAAAA9KIUvyzV5G1u3K9U3W/uDvtGjpeU1Cm1aNROd3Ie7saqt/wmUvpESR2WDondh+5dAsCkGZIBAAAA9KR0fSlakPcsRbdLEY13bLlfUafVYq/YY/YBJQF31chTc8nFiPtFmnF0qQEmzZAMAAAAoBelfEOpJi/Fg0rV3Y5c+sLqaz2kpE6bESl1esUaTE/nLPly5HxFSZ01EG+J1yzfrSSASTEkAwAAAOhJbVhJlnP3D8mGR2ZFLV5T0tRI6bB43bs7v2oNpp8ctXxk9by5GTsox8y4s/HakgAmxZAMAAAAoCelX5Ri8lJtt5g/MqOkLjX3gZHTk0uYKrvFhjsWlRq4qzu+d2W1/1ozdFiqvSQOXz63JIBtZkgGAAAA0JPqv5zYNetJyo1dYtfduntIluKIatulpKmTa8PxinfcuyTg91avrj538rklddqjo5b/stQA28yQDAAAAKAX5bSm2t/ZDJOUaveItWtmltR9Fp6yU+T425KmVor7xuyhp5YE3NXOQx+LnK8uqYPyQKR8Wsx3+VNgcgzJAAAAAHrRQEwMyTY0w2Tle0U0ZpXQfTbX5keKnUuaakPRyAtKDdzV6SdsiJQn7hfWaDY6KKXdY876+SUBbBNDMgAAAIBetHH8tsixvqTJybFT1AbuV1J3GRkZrPbPa4btJNX+MoaX7VcScFdDu3wtcv6vkjqrlo+cWD5bEsBWMyQDAAAA6EUbN/2u2q9rhklK1SMGDiipu1y788Tl1R7fDNtLHoic/9nJebgbK45dH7Xah0vqtKfG8HKXPwW2mSEZAAAAQC9aPbopIv+ipFYcWJ67S9448XU9oBm2o1p6Yhy17KElAXfVGByLHNeX1EkT9yYb23KfQoBtYEgGAAAA0KtSfL9Uk5e6dEgWteOqXTes4Nqt+lpeVGrgrsaOvy0ivzFy9ei49OAt9ykE2AaGZAAAAAA9q/adUrTifnH48t1K3R1e9Y77RsrPLGn7a+S/i+HTdy4JuKtNja9EiitK6rTXlvsVAmwVQzIAAACAXjUe3ypVawbj0aXqDkNDT4+UuudEeIr7R2x+XUnAXX3ozbdG5FUlddpj45pZf1dqgD/LkAwAAACgV5236NeR48aSJi/HfqXqBqkrLwGZ4hVxxDvvWRJwV+O1s6s3ydSsJqsN/GMseOcjSwL4kwzJAAAAAHpZym24L1neN3Luhvt/RRw0MhCNrhraNTXi4VEbeGxJwF2dt2hd5MaiaOTx0umknSIPnFA9d8dnFtDVDMkAAAAAelmO1odkkR4cx505o4Tta88YjBSPKql71KqvK+JtMTLifBvcnRn5u5HSZSV1VopXxvCy55QE8Ef5P20AAACAXpbSFZGrRytyY69Yt6E7hmQx68nV7h7Nusuk9OS4du5flgTc1YqT1kQtnVpVjWajk9KsSPH+OHz5bqUBcLcMyQAAAAB62Xjj+kixoaTJSeneMZB3L2n7SgOvKFV3SvHaeMMZM0sC7uqBa/+92n+6GTruftXn1j+UGuBuGZIBAAAA9LIZg9dX+9aGZBPnkDan55V6+5k/fyByvKikbnVA3Lphz1IDdzU62oiU3169j28vnU6qVX/W62PB0pdFdMk9FYGuY0gGAAAA0MsG/vuXkfPvSmrF4eV5+5nzhD0jxX1K6lb3iKF0YqmBPzS48xXVfopWk6Vatf1LDL/rYaUB8L8YkgEAAAD0shUrNkdKF5U0eSk9Jg47dY+Sto9aPKJUXS4fFcOnPKYE4K5WHLs5Nm5+U1X9qtnouPtHaqyMY5Y/qKqtKAP+F0MyAAAAgJ7X+GQpWjOj8cRSbR85PbRUXS7VIqXjYmTEuTe4Ox/++19FPU6uqkaz0XFPifH85Rg+9SUlA2zh/6gBAAAAel2+9yXVfl0ztCDF9h2SpcZUXDLtp+W5RbXnxrVzdysB+EODeXXkuLqkzkuxZ0Tj32N46YfjqKXPiMOXzy1HgD5mSAYAAADQ68YW3Bk5fa+kVjyuPG8fKe1dqk5ZE6lxVDTy2pJbkO9fbYtKAP7QyiW/rN4jr41cPaZKmnikl1efh5+Jwca3Ynj5sTE8MqscBfqQIRkAAABAP0jxrVK1Yp947hkzSz31GhMrQTop/yAGN1waKZ3RlhP3Kf1dLDj1kSUBf2hsyQXV/pzqzTJ1g7KmOdWf+Zjqj31fVd4QC5adE8PLXx6HL3+Qy6RCf/GGBwAAAOgHjbh0y74194x7r39pqafWwrOGIsXuJXVI+nKsGF0fqfbBKtzW7LVkIHLjddVzakbg/0i15dVH08aSpl5K96z2R0TK58dg/kFcO+dzseCUAyaObDkO9DRDMgAAAIB+MBBXVfvNzdCCWm3JdllpsWndk6v9QDN0SM5f3/K8+x0/rvaf2FK3KsVL4oh33qMk4A+tOvGq6r23uHoDtjrEb9XE58vcSOk5kWtfj+Gl34ujli7asroM6FmGZAAAAAD94IFrfxw5t746Ksc+ce0ODy1p6uT600vVOePjV255Hh1txLqb/rY99yaL+0Vt8NRSA3dn7KQzY2IlZ7do3rts/8hpWQw2fhZHLXtHLByZU44CPcSQDAAAAKAfjI6OR0rvL6k1qfHUUk2dlDs7JJsYiO216VclRaw+fUPUYuLEfTvulXRkDJ/6hFIDdyfX39EFq8nuRqpFjrfE5rk/iQXLTosjT3lUOQD0AEMyAAAAgH4x1Hh/5OrRur8oz1PjoJHBSGnicoudU4urt6wgu6ucP1zt1pc0eVtWpdRfWxJwd8befHH1Rjy5TZ9RnfCAajs+arUrY3jZx+KopfeLkeqzCZjWDMkAAAAA+sWKk66LFD8safJyHBzzR2aU1Hm7D927+kNnltQZ+W5elz02/DBy/lBJLUovjaNPe0gJwN0Z+ulo9Wa8pKTulWJ+5PTjuHbOR2N46V/FG87o7OcT0DGGZAAAAAD9JEfrJ6BT3CfmzjmqpM4bmHHvat/Z81gpXVaq/7FlZdn646rX7Hel04odo775vFh41lDJwB9asWJz9Wb8p6ra2Gx0tR2qz42/rrZPxNoN34kFpz4njj7tHuUYME0YkgEAAAD0kxRfK1VramlxHL58bkmdlWO3at+581iNGI9G/l5J/9vY6J3Vn392Sa3J6fGxac2zSgLuztjir1XvlTdseV9OG2nf6oPkC1Ef/0YMLz01Djv5weUA0OUMyQAAAAD6yVDjW9W+3gwtyHH/GIgnlNRZKd+7+vM6dx6rFrfFYPyypP8rNc6v9puboQW16k+JeF21pS0ZuHszdhyLWv7/Spo+Ujw8UnpTzKj9KIaXrYojT35czB+ZV44CXciQDAAAAKCfrDjp+mrfjnv+TNyT7C+bZcfdL1JHB0u/iw2Nm0v9f40tuTJyrCipNal6zY44dapeN5ieVhy7OWqbT6yqic+r6SelGdV7fThqA1+JefM+HwuWv8qlVqE7GZIBAAAA9JdcPd5aPTeasRX5ZfGGM2aW0EG1B5SiMxr5F/GhN99a0t1IOXaY9abqdfvjg7StNxQD9dOr123HkoG7c/Y/XBvjQ8+pqmubjWlph+pz8qnVdl5sWvOjWLDsmDhm+YNiZMR5eegS3owAAAAA/WaPdd+KnH9W0uSl2CvWbjyspA7Ku5eiMwbiolL9cWcet7H6Oj5UUmsaaa9Yt/F5JQF/zHlv/HHU04six89LZ/qa+LyMWBH1/PW4du7Z8aqlD2seALYnQzIAAACAfjM6Wo+UvlpSa3LjTVNwz50OryQb/Eap/rRabVXk2FTS5DXvTbY4jj9tdrMB3L2U49xF36+Kp1bb6mq7c6I7jU1cNnbi8rHDMRSXxoJlZ8cRS58RwyOzmoeBqWZIBgAAANB/cuTa50vdmpQeFDvOfmxJnZHjfqXqgLw51t1+aQl/2spFP4wU7y6pNTn2i9vG31QS8KeMLb455s06vHrfvLR68/yqdKe5NKfaHRUD6TNRm3NpHLn8+c0+MJUMyQAAAAD6Ua1+QUT+dUmtmBPjaX6p229itVWKe5XUfjmujNWjW7s6LMfG+j9X+xtLbkFOkfPrttyfCPjzJi55Orb4c1EbemQ0Gm+r3kOtXzK2O8ypPg4eESl/OoaXXhLDpxwWR4/coxwDOsyQDAAAAKAfrVxyR+Q4taTW1NKCWHjKTiW1162bHlLtO3cOK6UflmrrfOjNt0XOnyipNal2nxiPI0oCtsbZJ9wS5yx5a6xdv39EfkP1ftxQjkxvaeKRnl593J0Tjbk/jCOX+WyAKWBIBgAAANCv6uvPqfa/bYaWzI1N6c2lbrPaw0vRGTlt62qUHGng3dW+DfdGyilSPj6Gl+1dGsBWSTlWj66NVUv+LWY37l+9lV5TNT8Xjby2eXwaS1vuWXifqMU5Mbz0O7Fg6ZFx1NIdmgeBdjMkAwAAAOhX18ct1f4bzdCqdGgc8y/3LqF9UjyiVB1S/2kptt7YiT+OyGeW1KqdIud/jfkfGygZ2BbvffOtMbborFi16AWR0t7RyCdX3TXNg9NcSk+MqK2q/k4/iuFlTytdoI0MyQAAAAD61cWj49X+w83QohQPiPGNB5bUPjl3cki2MdLA5O7LVot/qfY3NEOLaukpMevax5cETErKMbb45jhnyVuiNvjgKv9V1Xxvtf1iy7Fpa2LFae3+1WfsxbFg2afiyFOfXjVT8xjQKkMyAAAAgH62ds9/r/btGPYMRaRFMTLS7vNNjyzPnbAxGuO3lnrbrFx8U+T8mZJatXMM5n/qwGsH/WnivmWrFn0yVi1+Xaz9z4fGeH5G5Ph4deSOaMTEPw6YjiY+H14YtcYlMbz0rHIJRsMyaJH/4wUAAADoZ6sPrUfOb6mqRrPRgpSfHNfPe1lJrRsemRUp7VZSJ9wZjcGJS05OQsox0HhXVaxv5hbleG5cN3d+SUC7rF5dj/MWXxJji+dHffAR1ZvtpdVn3mnVkauq9930XGGW0qujUfuvGF52nOE6tMakGQAAAKDfLTz1XrG58c2q2rvZaEHO34167Zlx3qJ1pTN5x7zj3lEf+mFV3bPZaLvrI6/bJ8ZGbyt52x259J1Rq5205ZJorbs0hhrPjBUn9cb9lKDbLVy2V2zKr4uUDo1G3jlqaV45Mn3k+GHkxt/EOSddtSUB28SUGQAAAKDf3feOWyLHp0pqTUqPjsHcnvtrjc/cpdoPNUNHrIk94vZST06j9v6I/MuSWvWY2DRwaKmBTlux+OcxtuRNsXbdIyINPDNyY2Hk9Onq83Bj+RXdL8Wjola7MIaXvTMWnrJT6QJbyUoyAAAAACKOPnWPaNSvikhzSqcF+dsxb/ZBceZxrZ1oXrD8SRGNL7fna7obE/coGlvc2uUhc04xvOz9UUtHl05rctwetfyIWLmkXYM3YFu9cmTHmDHniMjpldWbco/qedeoxWA52r1y4z+r/dGxx4YfxejodL33GkwpK8kAAAAAiDj7xGujkU8tqUXpybHuzmNKmLycd6l+rw6emE5XlmLyUsrV6/a2yNH65SUnpNgxGvGPMf9jA6UDTLUPjt4eq5b8W6zb86kxWDuw+jB6abX9e/WZtKn8iu6Uak+IqH09rp17arxgpDP/uAB6jCEZAAAAAE0pr6r27VnBlOMNMbzsPiVNTo6Jyy12bkiW8o9K1ZrzTrqu+r3+pfp623M/oJReFnOveXBJwPay+tB6fGDR1XHOkk/FqiXzqzfnHtX2lsj5supoewbj7TYxaE/xd3GvOZfHkUufFSMj3b8CDrYjQzIAAAAAmtZden21/3QztCjHQyPFaEmTk2K3at+581cp/bBUravXz62+3l+V1Kp7Vdv7qs2tUqCbjC2+OVYtOjk2zz4o0sCB1efcv1bd7rx/WUp7R632H3HNnBXxyjN2LF3gDxiSAQAAANC0enU9Un5bRP5N6Uxe2jLgWRjDy1++JU1GSg8oVfs1Yjwa9/pZSa170MafRY7PldS6FM+MBcsOLQnoJh887vZY+aYrYmzxG2Ooce/qM/Pvqu5Xqu23W453jbxj1NKCmHHnV+KIpc+Ig6wqgz9kSAYAAADA/1i5ZOJyi2+rtvZcOjDyyfGa5buWsG1yo3NDspRuirEFd5bUutHRRqTxk6KR15ZOOxwXCxcOlRroRitOWhOrlpwR82Y9N8Ybj4ucXlN1f9I82DUeGyk+FXvOWR4Lz/KZAndhSAYAAADA/5biP6rdz0tqTYo948786UndnyxF54ZkEdeV5/ZZ9ZbfRC2dVlWNZqNlT46NDz6i1EA3O/O4jVvuTzi26Ky4et2jo1H7i6o7cTnG/4rI7RvIT1YtzYuU3hib1nwljjr1qTEyYjYAFW8EAAAAAP63idVkOZ9cUutSPDGi8b5tPimb0/1L1X4pt2cI+IcGZrwncuOGklpVi1rtPXHEOx9aMjAdXDw6Huec+NVYtfj4GFr3F1FrPCZynFltG8qv2H5SHFh9Rn0prp3z1okP2dKFvjVQngEAAADgf1x+weWx/yGPq6o2DWjSw2LN0MPiic//Znzvi3/+koQT987ZZcbEoK4z99BJ6eNx2QVfLal9Lv3Cutjn2T+LFC+ptnZc1myg+lqH4vILP1syMJ1875LNcdlFt1SfqZ+PRz7zPTGUflB9AG2MHPeoPiN2LL9qqlWfTenpsf83D4x9Dv5JXHHhjaUPfcdKMgAAAADuTo6c39G2e2yliUd6eWze9LGtWlF2vx0mVpHNbIY2q/5mUc/XltR+5y7+TPW3XVFS61IcFcMn71kSMF196M23xsolH4xVi14ZM3Z6aOTGwupz9qZydGpNfCZHHBK1dHEMLz282YT+Y0gGAAAAwN27Zv1/RUpnl9Qm6alx3dxfxIJlf1Mad29m3rtU7Zfy5ojc2ZUTuf4v1R/UpkFcmhFp4LMxfPrOpQFMaynHimPXx9hJ74856x8ajfSCyLGyOnBH8/gUSjG72p0Tw8vOjwXvemDpQt9wzVEAAAAA/rThZZdFiv1Kap9GfCVqA0fG7rffGKOjjdJtWrDstdX+Pc3QZhOr4wbi8bFyyU9KpzMOX/r4qMW3opbacMnIlCM3XhdjS95XGkCvOXz53OqzaVn1dj+6es/PmPJ7huW8rvpcfmGcu/jiLZ850AfckwwAAACAP23fZ98QKV5WVe09l5TiQRH5sLhtxr6x38GN2PslN8RVn9sUR5/8kGjUXl8df1j5le12R6xd/89x1SWbSu6M71/4y9j/2bMipadWqdWT3RP/+0fEo140Fj/4/MZmC+gp379gc1x+wediv2f8e6TanZHj0dU7vzOXnb07aWLVanpJ7PuNe8ajnvWf8YOL7ixHoGdZSQYAAADAn5PiqKUfilz7m86ubMjrq91nqj/ixR09MZzjkhhbfFBJnbXwlJ1iY+2yqE0MBNsgxXlxx54LYvWh9dIBetUxSx8Q42mset9PDNqnblg2IafvRT3mx4PXXvt/VvpCD3FPMgAAAAD+nBwb1x8buXFpyR2S5lTboR0dkG2RP1KKzltx0poYSs+qqvbcnyzn+THvmokT5kCv+8CSG2KHWc+PRryy+hT+celOjZQfF4ONb8X1c46P+fNdkY6e5YcbAAAAgD/vB5dsjP2efUNVvTzSdP6H12liBdbCuPyCtc08BS694LbY75m3Raq9sEotvnYT9zfL944XH/jRuOQSqzug13338/W44oIfxdMe/oHYtPOOVWfiMrSzthzruDSv2p4dM+6/Zzzm2d+M71+wrhyAnmFIBgAAAMDW2fmAq2Onoc2R4plR7aapH8fY4mWlnjp7P/WqGByaGykdUDotSHvFmllr4vIvfbs0gF733e/Wq8/gC2PHgS9Eqj2o+gh+cNWdqg/ix0TKz439n31VXH5Be1bFQpdwTzIAAAAAts2CZZ+q9hOroqafHO+OscV/W9LUWnjWUGxe87mqOrjZaMmvoz7+tDj3Lf9dMtAv3nDGzLh944lRyxOfZfdpNqdAjtur/fGxbu7HYvXrp241LnSQe5IBAAAAsG1yvKna1pQ0jaQc0fh6CVNvxbGbo1Z/bfXa/a50Ji/HrlEbOLEkoJ+cedzGOGfROyJqE/c7nBi8T40UO1bbiph7x1jMP2126cK0ZkgGAAAAwLYZW/zTqKfnVFXrw56plBsbox7fLGn7OPvNP4uB/Lzqi2nttUsTV4hKx8SRpzy/dIB+s+rEq2LV4uozIL2hShP3jJwKA5FqL4254z+II099eunBtOWeZAAAAABsu+9/6Zex3zc3RIrnls50sCrOPemDpd5+Lr3gl/HJb9wZkVp77SYGZSntF48/6ONx6ZfXlS7Qby7/0n/GY77+79UnwsOqz4S9S7ezUtwjUv7r2O9ZES8+8JtxySW5HIFpxUoyAAAAACYh5dhj3bsjx7uqsKnZ62IT99JJ9b/fUm1vqXrtVi05s7x2m5vNSXt4jA8OlxroS9VnynknXRc7zP7rKiyKnG5s9jtup0gD74xr56yIY/7l3qUH00oqzwAAAACw7eaPzIi5c1ZGSq8sne6U80dibMkrSuoOE/f0mTv+0UjxwtKZpLwpagNPjrNPvKw0gP6V4uhTd49647yqelrpdVauHinfGIPphfH+xZeXLkwLLrcIAAAAwORddUk9HvWiCyONPzRSPLzqdOM/ym5ErXZsXHbBVN2zZ+tc9cXxePzzvxy5fmCVHthsTkYaiJz3igMO+ET85yXdv6oP6KzLvrQmnnjAR6MxtC5yekz1qTy3HOmM5j0Sd4x6fnHsc8hv4+kv+nF89/P1chS6msstAgAAANCaDx53e6xfNxyNuLB0ukvKZ8fKRd8uqbt84I2/ilw/rKqubTYm7RmxYc5flhrodytG18eqJadEDD0pclxVup2V0n1jIJ0da9ctKx3oelaSAQAAANC6qy7ZFE961qejnh4YKR5VdbrjH2fnfHlsmn1Y/ODzG0un+1x+0W2x38HfjpSeW6Udm81tVr3e6VnxmIM/Hd+/8LelB/S7y794Wzz24POqz4f11Wfz46rOrOaBjqk+i2pPiv0PeWrs/5zvxeVf+k3pQ1dyTzIAAAAA2ue5Z8yM+9y5KnK8vHkJru0p1aPReE6cs+Si0uhuRy19RuT06apq5dJon4yhnebHimM3lwzQdPTJD4lG7YvVZ+ODS6ezGnltDOTnxsol36j+zFy60FWsJAMAAACgfX72+Xo88WWfivEN6yKlp1adoeaBqZZui1x/dZxz0qdKo/s9ZJfrY+b9r6+q51Tb5F63HHvE+Mar4ooLflQ6wP/P3n0A5lXV/x//nPsk6aQtm7Zpy8YBCoggQ5ag4EAcrSKrLVgUpNK0aYuoIf4EOlMsLiq0YYm2uBVUUIYICAiIqCCrK+zRlbZJnuee//fmOfwV6W7Gc+/zfsF97vl+79O0SZ577jj3nIOih//wmvY9ZoGiyFn9vL9lOrd+dq7KXj6p/e+RHRf+or/+Og5bgJJBTzIAAAAAAAB0jlHTj5X3N8hpl5DpKi32d47X3InftXL6ei+MmjpGct+20hY2lPnViiv31rU1TSEDAG82euZJ8oV5Vtdsa5VG57cTeP1QzfG5WjB5ecgAJaE0xoYGAAAAAABA9syr/aPi/FFWWmBLF/UgcEts+YzmTvyOBekc3qtvr2tU8F+zUqGY2EzO9Vau7RINn88oUgDWbe74X1qtfLC8nx8yncvps+rjbtaoaQeGDFAS6EkGAAAAAACAzjdyyufkoqlWGmRLZzy43Srv71EuN1JXT1gUcuk2cuoUOVdrpS35ebUqzh+ra77y5xADwLo4jZ5aI+++YuXtiqlO5P3z9ncN16Lmv+iO+nzIAt2GnmQAAAAAAADofI2TfyjnD5H3X5HXspDtAC7pLfagFI9QIfpoZhrIEs2rv2k/q1lb2CGuSlHuJxo1c0iIAWBdvOZOmqm8/5CVOr9R3bmBivzvtWvfC0MG6Fb0JAMAAAAAAEDXOn16H+XiWjk3XLEfqsj1DVs2VTJ04yv2Z/8t57+nqm0XaM45bcVNGXTmlO8qir4Yos3j9R01TvxSiABg/YbXValPnxnyftQW1MubKWn8d9cr78brutqXijmg69FIBgAAAAAAgO7xucu2VaV2V5Q70qKPKvYHb/DGrPcLbftdyvtfqUfFo2pbsViN9WvD1uw6ta6fqnrPlNzZIbMZ/Gr56CNqrL0jJABg/cZcWam1y45QTldZnbN7yHYer78orviUrq1pChmgS9FIBgAAAAAAgNJwdF2Fqnvuqlw0TIoHyCmSr2pR3PKieviFuuqiF8M7y09dXaTFvZOb1qNCZtN5LZcK+6vxwoUhAwAbNnrqIMXucjn/Mat3eoZs5/B61Wr7z2nuxN+HDNBlaCQDAAAAAAAA0qA4TOU3JDdObrPv612leRM/H8oAsHHnz+6hlWtPstJVVuP0KyY7zXJ5f4maH2zQggWFkAM6XS6sAQAAAAAAAJSyR29t016H36GqigGSO3gzG8r21buO/Yf+9ofHQwwAG3b/LQU9cus/deAHfy35vaze2c2yndXxpqdcdLQqB/bVwcfdr7/e1hLyQKeikQwAAAAAAABIi3/eWdBeh/9BPXrmJX+UZTb1hnVOUXS8DjzuF3r4tldDDgA27uFbX9JeH75JVfnlVuUcY5nOalfIyblD5f3Res9Hf62Hftsc8kCnoZEMAAAAAAAASJOkoWz/Q/8iVVXK6VDLRMUNG9VL3m2rjx/2c915pw85ANi4f/4ur0duvVf73/OAnH+bVTsDLdsZvcrsa7oh8vljtP/xj+qR25pCHugUm3oABQAAAAAAAFAqGuvXaljzRVI82aK4mNwkn9PCXqNCGQA2g/NqnPhbOR1rwY3FXGdx75Fzv9GZU94fEkCn6KzxQwEAAAAAAAB0tvNn99CKNRMUua9bVFVMbtQr8vGxapz89xADwOYbNf3j8qqT8weETCfwq+V0kVau/q4W1LeGJNBhaCQDAAAAAAAA0m701FPl3dVW6lFMbNSvNa/2pPaeIQCw5ZxGTptlr1+ycidN72TVVOxnadc1E1Rfvzk9Z4GNYk4yAAAAAAAAIO32HPNPVbz2hJyOllyfkN0Av7cO+HOF9hpzp/65gIYyAFvukd//Tgfc+zt5P0jO7RWyHSiZpswdqmVVB+iAY/6gR/6wOmwAtho9yQAAAAAAAICsOGvKkYqjn1pp+2Jig1aqLT5B10++J8QAsHXOnHaGIk230k7FRAfzbolyuWN1dc1TIQNsFXqSAQAAAAAAAFnx8G2LtN9xf5Rz75PTziG7Pj2U08E6+IQF+uvv6ZkBYOv97da/6T0n/lyFQmR10LskVxG2dAyn/ooLH9UBH3hMj/zh2ZAFthg9yQAAAAAAAICsGXXZ7vLRLXJu75DZAD9fq1afrgX1rSEBAFtv9JQjrB66SnJ7Wj3T8R12nPuM5tbODxGwRehJBgAAAAAAAGTNI394Xft/8CbJvV1OG24o82539ax4XA/f9o+QAYCt9/Bti3Xwh36kvFZadIjVRVXFDR3mAzrg+Nf0yK0PhxjYbPQkAwAAAAAAALLq1Nn9VLX2WiudYEuP9ty6eK1U5N+ruZOeCBkA6Dijph8iH39Pzr3Loo7svFOw+utsNU5sDDGwWehJBgAAAAAAAGTV329p0V6H/VSVlavl3PEh+1ZOPWz723XoyT/VAzcz7CKAjvXIrU16xwfmqyJ62aJjbemotolk7rNjtP9xj+uR2x4POWCT0ZMMAAAAAAAAKAcjp39WLr5ccjuHzJv59v8u1uoHLtGCBYWQBYCOdUbDwcoV5lil8+6Q6QB+pZw+rrmTbg8JYJNEYQ0AAAAAAAAgyxprfyxFH5fXSyHzZs7+i/RV9Tr4lJABgI53bc39yuuDVunMS1rnO4bbRgVdq1Ezh4QEsEnoSQYAAAAAAACUk/abyIUbrPT+YuJ/eP+0CtHxuq722ZABgM4xcuoFcu5rVtqumNhKXo+oou0EXXXRiyEDbBA9yQAAAAAAAIByMm/8ErX2/KiVrm8fYPF/ObeHcvFvNGZK/5ABgM4xbPVsKZ802C8qJrbauxVXTg9lYKM6anI8AAAAAAAAAGnx91tatP/nbpFfs9qiA+XUq7ghcG5H5d0O+tutvw4ZAOh4d97p9cgfXtaBJ9wuFQ6wyqc6bNkyybCxSUPZu4/L65Dd79Nf/xoXNwDrxnCLAAAAAAAAQNnyTqOmHipFv7Rg+2Lu/4tViM7XtRO+G2IA6DxnNWynQutv5aL3hsyWi/0qRf5Dmjf5npAB1onhFgEAAAAAAICy5Xz7TeQ4PsqC39ry370uIuUKV2jktOEhBoDOc3XNa8pVDJfXAyGz5SLX116u1VkNe4YMsE70JAMAAAAAAAAgnT+7h1au+YFcdFp7D7M3eC1TXLGvrq1pChkA6DyjZg6RL9wtp6EhszVu16qKj2hBzZoQA29CTzIAAAAAAAAA0hVjW9Q46Ux5f7a8VoZs8pj9AOXy9+rMKe8MGQDoPPPGL5Hz460eyofMlov1fvUpTAwR8Bb0JAMAAAAAAADwZiNn7Sq13S4nWwfe36Vten2wvTENADrbqOlzreIZFaKtE+vTumbiT0IE/H/0JAMAAAAAAADwZo3jFirvT5D8PSEjOXekVq7+sUbOGhAyANB5vPuevS4vBlvJaaq+0DA4RMD/R08yAAAAAAAAAOvhnUZO/6mcTi6G9p/zl+rZ1RfrjvqtHwoNQLrV1UV6flBOPVoiVeQjNS93el2RdtxJWl6I1Ge10yofqb+9t9nWPauc2mwpRLG0ovg1Knt6rWnxxcC4PoX2dWXzdnLRrZbYsz3eWl73q+CO1XW1zSED0EgGAAAAAAAAYAPGzNhBrXGDnD893E5sk/w0DV19seppKAMy69S6furRe6Bit5Mi7WDrHeTjHawe2E6R72frbexdvW1dZXVCD3lXYfWEk1elnLPKwlfKW+wsXxzV7o11zvJ5y7/RMJY0isXFov3p9jomKdnXcH4fK9nf0UG8n6lhqyda3fXG34cyRyMZAAAAAAAAgA2rq6vQ4l5XS9HpFiX3FJN5yb6kubVX/9eNbgClLun5taR3H8Wuj0Xb2LqXctpJ3r9dkfZSrD1sDx8q+WGhESxrWm35lObV/sa+P+ou0EgGAAAAAAAAYBMkvUoq+3zDSmPl2u8rNsv7CWqcdKWVudkMlKLhdVXq1/OdyrsD5aIDLLOX7b1Jb7B+8vG2cq6v5Xq0v7d8NNv3f7Lm1d4WYpQxGskAAAAAAAAAbJrzZ/fQytXflYtGWZTcW0xmH/qcrp742/btALrHuIZeer1lZ6lyR7l4T9s9D5P8IfLa1/bUXuFd+I/HVGg9Qdd+tSnEKFM0kgEAAAAAAADYdMPr+qpvr2ny0ReU9Cjzet2Wz+qaib8P7wDQFc79Tl+taT7a9r+P2J54hK23lff9FbUPpci9/43x/kkV/HG6bvLikEEZYkcBAAAAAAAAsHmShrLevb6nyJ3WfovRa7FiP1zXTro/vANARxo+PKd+h1QrbttLPnew7XYnWPY9tvRu344t9Sutik/XgsnLQ4wyQyMZAAAAAAAAgM03pq63WnvNlovOKib8a+09Whon3VeMAWy10VO3URx9Ts4n+9kwW/rbUm5ziHUeb/85d4Hm1c4OGZQZGskAAAAAAAAAbJmRswbItc2x0vD22Pun5dwIzZv4UHsMYPOMubJSa1fuq1zhvZI71jJJj7GkYQydxn9F8yZdFgKUmSisAQAAAAAAAGDzNI5bplXNp1nph+2xc3soju/UqGkHtscANs2YMZUaOeVjalt+j3KFu+Xd9y37GVtoIAM6ET3JAAAAAAAAAGydMTN2UGv+W1J0ipz95/W4fMWndU3NP8I7APyv4XVV2qbP0fL+Y5I72TLVxQ3oGs5L/t9WY12kuRN/EpIoMzSSAQAAAAAAAOgYI6d9W86dK3mn2Odtvb+umUxDGfAmtn+cOWOknJ9h+8u27TG6TuxXSe77qoi+rasnLApZlCl2PgAAAAAAAAAdY/TUbeR1keRqLKq08tO2HqvGiTe3bwfKUfs8Y8sOUBQdJqfDJX+0ZXcobkQni+XdU3LxvfLelooHtWjl33RHfT5sR5mjkQwAAAAAAABAxxo1bYK9XmpLpS2x/f8lPbvmB9yYRlmoq4v0z/491KN1b1W4kXLudMtuX9yITuXtP6cWKy1T7G+Sj36ga2v/3r4FWAcayQAAAAAAAAB0rKPrKrR7n4/J61sWDbGlTfI/U6Wv1ZzJi9vfA2RNMsdYnz7HKfInK3aHyOntlk0aitHZvF+syP1Rhfhuefd39Vz9mObUrw5bgfWikQwAAAAAAABA5zhzyjsVuV9K0TDJ54rDL0Yf1bCV/1Z9fRzeBaRbe6Nw7z3k3TyLDi0m0YlarS5ptjrldcndYnXKNWqc8EDYBmwWGskAAAAAAAAAdJ6zGrZTIT9ezk+WXCSvl6x8nuZNuim8A0i3UdO+ap/ryXLqEzLoWMlQic/ba3Fescg/prxbrLWrl2hB/ariW4AtQyMZAAAAAAAAgM53xvRDlfOzrXSALbF8NELDVv6SHmVIreHzc+q7cJzkp3OrfasUFPs1ilwyPGJx8fFSOfeA1RT3y1f+VdfWPGd55hVDh2PPBQAAAAAAANA1kl5l+fyHFKlO3m+nOPchXTvh4bAVSJczpxypKLrVSlXFBDbMr5Z3yZyEtvhFVg8ssfIzyus5VWilchUr1FZYoYJbqetqm9v/CNDJaCQDAAAAAAAA0LXGXFmp1mWfl9NBcv4OzZ18bdgCpMeo6VdI/kshKl9ea2xffs1KK229QrGW2fpp+fgpeb9IqlyoqGqx5o19pf3dQAmhkQwAAAAAAABA9zh9eh/1quinOeOeDxkgPUZO+5uc3hWi8uH9MrnoXil+SJEeVIt/VhV+uZxvVmVLs668eI2cozEMqUAjGQAAAAAAAAAAm2vktOvl3Ockn8377L6919drcn5h+yJ3r+LcXara5hHNOaet+CYg3WgkAwAAAAAAAABgc512yUBVVD4mp+1CJhu8XyO5m6XohyrkH1Tce5n2fHWV6uvj8A4gM2gkAwAAAAAAAABgS5wx5UTlop9ZqUcxkTqxvJrk3D/l40cV6W619LpDN4xdEbYDmUYjGQAAAAAAAAAAW2rU1Jsld2KI0sH7F+WiBSrE16mw+nG1aq0W1LeGrUDZoJEMAAAAAAAAAIAtdcaU05SLrgtR6fF6Vc4/YaXHrPyw5O7TwubHdEd9vvgGoHzRSAYAAAAAAAAAwJY6dXY/Va55Tc7lQqb7ef+8vH6iXPRDrVz1V71DedXX+2RL8Q0AEjSSAQAAAAAAAACwNUZO/Yac+1qIuspCWxbJabG8X6xYTytyz8j5JzV30nPFtwDYEBrJAAAAAAAAAADYGnV1VVrc5xUrbVNMdIlpmjdxUigD2AJRWAMAAAAAAAAAgC1x8cVt8ro9RF0j9ufq7KnVIQKwBWgkAwAAAAAAAABgaziXzPX1i2LQRSLXV4VoqurquM8PbCF2HgAAAAAAAAAAtlrzT+2li+cC85/V4l7vCwGAzUQjGQAAAAAAAAAAW6uxfpmc/6Lk2kKmK0TyUQ29yYAtw44DAAAAAAAAAEBH6NPrd5K/M0Rdw+kkLezzxRAB2AwurAEAAAAAAAAAwNYaNeUwyd1qS++Q6Qqtcv4EzZ10e4gBbAJ6kgEAAAAAAAAA0FHmTrpX3n1F3v7rOlX2t83RqNk7hhjAJqCRDAAAAAAAAACAjuKcV1vPeXL+zyHTRdye8mtu0alTq0MCwEbQSAYAAAAAAAAAQEe6YewKyX1ZXvmQ6RrOHaiq6EZ9tK4rh3oEUisX1gAAAAAAAAAAoKM8cuvzevdxy+XcByzqqnvxzpah6lv5fu334Vv1t9+tLKYBrAs9yQAAAAAAAAAA6AxxdLW8vzdEXce79yvXdgtzlAEbRiMZAAAAAAAAAACd4braZuUrz7bSM8VEl3H2/37Smj9p1PRDQg7A/6CRDAAAAAAAAACAznJ9zVMq+KShbE0x0ZXcPvLxXTpj2mdCAsB/YU4yAAAAAAAAAAA60yG7Nym/fS85//7itGFdyLmc5E/QAR/sqwOPe0AP39YatgBlr4v3RgAAAAAAAAAAytTo6TfJ+0+FqOt5/VFV8Sc1Z/LykAHKGsMtAgAAAAAAAADQFZwbb69PFINu4HSs2qKHdObUUyVPJxqUPXYCAAAAAAAAAAC6ymmX7amK6H45t23IdD1v/7n4cvs31GnupJUhC5Qd5iQDAAAAAAAAAKCrPPqH13TA8U9L7mSLuucevUs60LhD5fVB7X/sUj3yhyfDFqCs0EgGAAAAAAAAAEBXeuS2f2r/D6yWc0dbVFFMdgPnBslFp2j/43voXcf8TX/7w5qwBSgLNJIBAAAAAAAAANDVHrntPh1wXF/JHREy3SXpV3a4oujD2v/4V/TIrf8MeSDzaCQDAAAAAAAAAKA7vP+kP2lt29vk3d5yikK2OzhbdrbX4Trg+Hdq/w/9XY/8/pXiJiC7kg8+AAAAAAAAAADoDsPnV6nvwqutdFox0d2cl9cLyvnvqtA8Q431a8MGIHNoJEO6jGvopZfXDFBVRT9510dR1FeFuLcU9ZYr9LdcP0UuZ5V4L1lgf2KtnMvL+1WK9bqieJV96psVR7YurJBf+5qGaYXq6+PiXwCg89g++bkpA9Sjx7by+X6W2MaWPnbe1Vc+2ra4dhW27tH+dufXWGz7pn/N9unlxTha3b4Pe61URdUK5V9fzokaAAAAAABIvZGzBkj5H8n54y3qzh5l/8Unt3P+LBdP1NA196u+Ph82AJlBIxlKl/dOZ0/ZQ/noEDssHGx18kF2fNjBDhS9bGtPW6psSW6mV9qyqUOHFuzrtNonv8XKa+0vWW3r16yyf9DWf1RLdLtunEA3YqCjjJmxg/L5YxVHxyjyhyh2A2z/e2MfTvbfZD/e9P1Xtv8mi7d92CX7sNYo1nNWfsjKf1FV/BfNmbzEynYWBwAAAAAAkCKjp24jr6skNyJkSsVKeX+zekZj9f3al0IOyAQayVAKnE6Zsb16FXZVQfsocvtb7j12QNjftmxbfEuXKci7R+X8Hfb336vIP6ohq5/mKQlgkziNnDVMarV91x1pJ09H2/60nyJVhO2dLxkMwPmX7O/9q5Uesr/7MftnLZTantG8r7wc3gUAAAAAAFCakoay2H1PTklDWdI5oJQ0KfbfUI/cTzWHjgbIBhrJ0H1OnVqtCjdckT5j0R629JJXb/tUlsrnMum1kgzT+KQqNE3VzT+jsQxYF+80evrJtq9caHvvnrYfb2PrrmsY27BkKNU17YvXPxRH16tnfoHmTF7evhUAAAAAAKDUjKzrKfWeJee+EDKlJLnX8k/l3Km6qvbRYgpILxrJ0FWczrh0L+Uqkh5ih0v+SHn39i7tYbL1Ftkh4MeK4l+octsHNOectpAHys/w+Tn1evY9qvAfl49Otcyw4oY08LbvRg9ZXXSXndfdo1zuYV01frGdeDJEIwCgUz05Wz22aVFFc0EVvWNVucri9VjkFbXlSu4pYaRAVZUKO7yiF1x9+80qAEitZ+vUs6qfdgxhar2+Qi/uW98+TQCw9erqIi3pO1Zx/HU519WjbW0Cb+cfbq6dzDbo6kn/CkkgdWgkQ+c6//weWlH9OavIJ9inLektllz8l8jEk1usTV5/svWpapz4QjEFlJGzZgxTofAD26+PtijtN/QKxUYz95C8n67mB3+lBQuSXqQAAGyUv1KVL6zW4EKr9nBV2i2WBjuvbe28dzvbPNDH2jZy2jH22sa59rk4/3P95a38X1djnmszbAH70Dzf0qr995gsesl3o6evVP+eq7VHPtYg2+d3th16B1snNzP7JNtt/97GVps6Dy86VpvtJ81JwXuttN/Fch/p5VysV2KnF6JYzwyeIIYLKwFLZ+lY21l+ab+jND1M/Rb22Tp80AT9NYRAR3AaOe0IW99ipfbjSglqaR9d6JqJs0IMpAoXYuh4Z1y6vaLch+3j9UmLjrJPWQk+6dABvM/LuR+qkP++rr3wPvt+6YWCbBs5ZT95N1ZR++Sx/YrJjPH+eXv9o61/rzj3W13HZLQAUI68l3vhCu2gfHvD1+52PjvUcoOc0y5xrIG2HmRvS85xk2WjD4DZn7XTxhAAHcnpud699Y7tzqGRrDPMH67cMUdq59ZW7Wp7+jDFVhdIw3yxDhhou/VAi7e3de/in0BKtcrrFdufXrTyi1Z+wcpL7fe60H7vi+NWLazur4XuHDGaTCdqatBxtj/dYsW0N5IdPHCCHggh0HFGT93HjkMz7aTyIyFTWpI54iP77Bc0TddM/Gl7BkgJLtXQQewyYfisnupTqJPiCVZhl9NTcrH9d6kWNdfrDuYsQwaNGVOplj3H2cnONyxKnoIvD17LFEcXa000RwtqknnNAAAZlDSI3XGxcrtKFa6fDq+INNyOAR+1TYOL7wBKGI1kHeKNeuDo7ZV7Ia93F7w+5KXDnXSY/YyTXmAoc/YZ8ZHTQ/a5uCuOdVeV161Ln1TrewaqwHCnHYNGMmATnTmt3l6/olKewsb7W9WSP103XpQ8fACUPBrJsPVOn76bKuIL7OOU9C7ZpZgsN3Yq5/WwotxFmjshOakDsmHUZcfZNUqdfcCTrv3lyetpe12guPXbuvarTcUkACDNfJ2iJdvpHVEyV26sQy31Llv2tqVUh7AB1o1Gsi22eKoGuQrt7yK9x8V6e2x1gCv2HM3mSCjoUL44jOMzVnwyWaz8D/vsPDxogP7pRmlt+5uwWWgkAzbR8Loq9e3zCStdYksytU2pWmTLVaqMr9CcyZynoKTRSIYtN7yhl/oUzpCLv2sfpbTPM9Yxkq7Fzl+qVZWX0PMEqZacdPXpe659nmdaxP5d9IpijdXq5p9oQT0TMQNAyjw7Tz17vaJ+bTmNsDO2Gue0W9gEpBeNZJvE16lqcU/18ZXaNef0Gbt6PdXqgeqwGeg4Xqvs+PLr2Ou6llgP9lqlVYPqtca1t6thQ2gkAzbTqMt2Vxz9WpHbx6LSvW/j/T9UiD6r3Vf9U/X19LxFSaKRDFvmzGmHW/V7mZUOt4Ub6G9WsNPf30mV56lx3MKQA9Lj1KnVqtQVcu5jFjHB+Ju4NjvD+539bC7U3NrHQhIAUMIWztKBkden7IQ1OW/d35b+7RuALKCRbL18nSqe66eDY+mDFr7POb3D1skwqly/otO1t4h5vW6fuyds/bD3um35Sv1+33qtan8D3oJGMmALjJnSX225SVaabJVOKd/nf03OXa2WVd/UDfUrQg4oGTSSYfO09y7p8zmreL9nlVvPkMW6PaOC+4SurX00xECpczr7/3ZV3OPndiGXDDuF9XtNij+nVX+9TQsWFEIOAFAC5g9X7siDtX1cqQMKXl9RrCMdVz3IKhrJ3uTpKerfs6d28bE+ZeEoW/Zs3wCUhoLtszcVCvp2D69/77xKrzCf2X/QSAZshVFTPi7vknu1A0OmNHn/qC2f065r/kWvMpQSLhex6YbPz6nPwm8lt9Et6lFMYiOWyuscNU68OcRA6Sr2EL3WSrsXE9iIlXZyN11VA6ZozjltIQcA6CbJPGNL++v9LtYo73SEc9rV0vSIRrbRSNbuhQbt1+o0OvI60sK32dK7fQNQmpIbw8l8Zg/bct091bp5xAiV/YN3NJIBW+nMKe+Ui2bYucEJIVOqXpZ3l6r5/it46BilgkYybJrRU7dRwV2pSKeEDDbdy7YM17yJdxZDoNR4p1FTD5WPfmVHhe1CEpsiVt5eL9Tq5tnMUwYA3WPRZdo2qtL+zqnGLm5O9DSMoZyUaSNZXZ2iUQO0c4XXQRaOteVYWxhGEenk9YLtyzN8Xr98sb8WHnSOyvIBPBrJgA5wdF2Fdu3TYKWzrV7pVUyWIN/+3w3K+UmaO+m5kAW6DSeR2BROcXSFrYcXQ2ymHW35qUZPPakYAiVmVMOh8u4mGsi2QNR+AXeZ+vb+entvWwBAl1nSoF5NszQx6qE/2THst5b6KA1kQPY9OVXVY/prVoXXXbbP/8RSx9nCvQ2kl9Mu9jojqtCfdm7WL5bM1DFJQ3BxIwBshjvq86rqP95Kn7SlqT1Xipz9F+k0efdbjZyVzBkMdCt6kmHDxlxZqbbXv2rXHF8PGWwpr8WKcidp7vi/hQzQ/UZOs5MRd7OcL+1xq0vfavnodDVO+GmIAQCdpGmGdihE+lgk1Vk4rJgFylSZ9CTzdapYuq3eoYLOdqX+dDyw9ZLhx+5QpMvXRLprr7FaUUxnGz3JgA52+vTdVBF/x04WPmBRVTFZinys2I9Vj23nMJUFugtPpmDD1q44Sj5KnkDA1nIaqjh/i864dO+QAbrX6KmD7CjwQxrIOkRvKb5Wo6YcFmIAQCdoatCo2OkvTrrSQhrIgDKwaLbe0dRfP3UF3eGczqeBDGUg6RX9AcW6qVdef1kyQ5/0POQOYHNdV/usVlV+SvLn21LC00O4SM41qHX5z/XFy7YNSaBL0UiG9TujYbAiP8dOxfqEDLaWcwMV5b6t4Q1c2KF7fc5OPLwabXl7yGBrtdeV0Tc1sq5nyAAAOkByY3DpdB3bNEt3xl5zndPuTqoMmwFkkPdyz83S25fM1NRcXvdZ6mN2rsWNM5SbHra8zUVasHSmbrblAwzDCGCzLKhZo3mT5sjnjrBT6rvtxNpOrUuQc1V2nP+w1lT8XKNnvjvJFDcAXYODK9YtmVsnKlxiVdJuIYOO4twH1Cf/3RABXS/Zv6tyl9mH8fiQQcc5SupzTigDALbSou9q26Wzkkm99SvvdaTjchnIvPnzlbP9fmzsdaft8xMttU1xC1C2ItsXTpDTr87up9uXzlZ1yAPApmmc8IB69T7RSpcpVr6YLEHOHylfuFWjp5wQMkCXoJEM69Zn8V5S/NEQoWNFdnI7UqOnnhpioGv1WfRhez2tGKCDJcfVy9rH/gYAbLFn69SzqUGfy63RPc7rFEv1Lm4BkFV+uHLJnESHLtEdTrrcUjsWtwAIejmn9yuvPzfN0nmvz9KAkAeAjfvueau0sLlOkT9F3j9smdLsVZYc/727SSOnTtK5dX1DDuhUNJJh3Vx8qZzbPkToDF5TVFfHPoiudea0PaR4vhhGtfMk82RE8edDBADYTN4u3XP9dLldtV9rderbQhpAxjUdqpm239/inI4IKQBvlfSpHuq9rmiWfv/M5dq5mAaATXBHfV7zJt2k5tVHWnVyRciWINfblsu0ps+18p6xJNDpuEGPtzprxgHyOjlE6DSuWkt6/0Tnz07GGQc6X/swqrpEzjFnVmeL3CftlRM5ANhMS2fqfU0DdHfklAxdmytmAWRZ00wdtqRB93npyxZWFLMANsLJ671Vsf5u+8+YpCdmyAPAxi2oX6V5tV9WnIwiVqJzlbn2eyqf0Ohpfyg+8A10HhrJ8Fb5/OmhIkJn8+4krWhmWEt0jT5Pv99Oe0aECJ1rH50+9ROhDADYBEsb9DG7Okku0g8NKQAZ5r3c85druHf6o118HsIFKLBFdrR958qm9+nHL0xntBAAm+mayb/RvNrkXtHXLYqLyVLjjpHzf9HnL907JIAORyMZ3mx4Qy+56JgQofNFiipqNWZMZYiBznH21Gq53I00gHehnC7T0XU8DQ0AG1FXp2hpg8bbAep6u0DnSXigDPg6VS2dpalxrB9ayMgawNZy+mQ+p18vnal3hwwAbLprJn5TeX+IlZLhDUuwV5nbXm0Vf9QZ0z4TMkCHopEMb1bVtr1VhvuGCF3CDkItu48LAdA52vQFe92lGKBruL20a6+3hwAAsA6P1anq8wM004oz7Gq8XzELIMuWNGi75/rpVifV2n7PA0VAx0gehjzalpufb9A72zMAsDmum/Sg5k08U8odIq9/WaZQ3FAinAYrpx9p5NQL2qcTAToQjWR4swp3jiLHhUpXi9wEnT19txABHevUun72GRsVInSVpNee18EhAgD8D3+lKgf01xTvdW5IAci4ppkaYudHN9lZ0hEhBaAjOQ3KS7c+N0uf9MWGMwDYPI0THpAqD5MvjLFj9pMhWzqcLlGfRZfp/Nn0REeHoZEM/8U7OX9aCNCVvNtB+fjTIQI6Tl1dpMo+37bSoGICXSrKHRhKAID/cnudKppWq86K45xUVcwCyLKkgSyWfuucjvHciwA6jR1XBxa85i6drqOSuf9CGgA2XeO4ZWq8cK56Nx8o3z7qwwu2lMgwjK63nK/VqpYZGlnXMySBrcKJKf7jrEuG2unTriFCV0p6nDh3nkbOo3JHx3q2ZzIm/SnFAF3PHxAKAIAgebJ9r/6abIWakAKQcUkDmXe6yUViKGqgCzipv8vpZy9crk+FFABsvu/Wr9K82lqp4nCrWS6yzOvFDaXAf1G+zwKdMmOHkAC2GI1k+I+4ar/2Uyl0l2HSS+eHMtAxchWfsd2aIVS7i9e+jJUNAP+RNJAtnqEzrPh/tvRqTwLItKXf1vaxdL0VD7ZKgAtOoOsMyHt9e8nleleIAWDzOec1r+YZzau9TJXR3nYsv9KyLxU3dqucIn1UPQvzdFbDdiEHbBEayfAfsds9lNBdnMZoDE9AoIOcf34P+Ti5EYnu4rSN+jy1V4gAoOwtbtBuUaSpIQSQccnQqr5VVzvmIAO6hZN2VkG/WzpTyQgjALB15kx4RQubvyTnj7Toa5JfXdzQnaKPqNB2m86ctkdIAJuNRjL8R+SHhBK6jRuqtvh9IQC2zsqhF8q5gSFCd/HRwaEEAGXtxcu1c+R1a/sNOwCZ5+tUsUc/fcP2+Y9byL0HoJs4p11sNWtJAz24AXSAO+rzmjvpCc2b+E351YPlfTJn2dO2xO3bu5xPprA5QM7P1RkNg0MS2CycqOK/UZF0vyo5nRXKwJY7bdZAO1H4YojQnRyNZACQaIs1yTkxcgFQJpr66sjI6cshBNCN7Ph7lPO6zg8XQ8ED6DiN9cs0bPVEtVW+X959wTKvFDd0A+eOVC7/e535f/Qow2ajkQz/4bV9KKE7efcxjZy2f4iALVPZ+kE59ukSwQkagLL37DTt76TPhxBAxi2Zpr0U6cdW7F3MAOhOPrn/5/SppkN1WkgBQMeor491/bjn1Vj7A+Xdror9BMv+xZbW9u1d6x2Kelyrsy7bM8TAJqGRDP/h1D+U0K18zs5gv666OvZPbDmv0fbKU4KlwGvXUAKAsvT4VG1TWalfeKlvSAHIsAevVKWdhU6x60vmWgZKjPe69IXp6hNCAOhY19U265pJM7Wq+Th59yF53R+2dKXDFOduZo4ybA5uwuMNzhYayUpFpEO0sM9uIQI2z5kzjpRzTI5eKiK/g46uqwgRAJSdPjl9xnlVhxBAxu3SrBOc00dCCKCE2L45KO90I/OTAehUC+pXqbH2DlX1P0LOf1xeP7HsyuLGLpH0aL9RY2gow6ahkQz/4X3PUEK3cwPtIHJ8CIBNlzTGuHi6lajfS4bLae9BVSEAgLLjnc5tH+YJQOY9O027yOlHVuxRzAAoOZFOtIPyB0MEAJ1nzjltmjvpl2re9TPy2tsuDK62bKG4sdO9V23+Z/rC9J1CDKwXF6v4DxdVhhK6nU969tXq9OkMg4DNM7T3gXJ6e4hQGmx/fp36FUBZWtSgM60SPCCEADKuR4XOk2ceMqDEVdgVygQ/n+H5AXSRBSMKapz4ghprPy/n9rfMNFsWtm/rVG4/tehanXbJwJAA1olGMvyXmJ4OpcS53VXhTgkRsGmi6DP2uk0xQIlwWhsz3CKAsvPsLA3IeU1zyaM/2Dgnz8KyuYuPw+enBPg6VcReY0IIoIR5ryOWLmqfxxoAupLX3NrHNG/iJFt2U6xaOwn2YVsn8R9SZe6HdETAhnDJijc4jZr2iq23K4Yp5fWIfSfJEwnZ4PUnFdyJ7RNfAhtz2qyBqmj7h+0D24ZM2r1iJ0yvK9JeIU6r5Vrbto9uvOjFEANAWVgyUx+2Y9LP7IKjvB/E8lrpnV609QsWvWTL85GztdOrsdNyn9eqXKRV3muVbVuT/BFgU+W82nYZqifciC4bumi9mhr0LS+NDSE2ge33y53VB7ZeZutXkuEHLL0mlgqR11qrO9rsZ5ovvhsbkjwBbj/HHvYzzNnPrYfVsVU+1gBbD7DctlYHD7Q37Whr7oMF9tl6pqJC7xs4Vi+HVLeyOuQ4+zfdYsVUP2CYi3XwwAl6IIQANmbUbKub137Wauek4f7dtnRGPZ08VvRjVcZf1JzJy4sp4D84OcAbMtJI5uvtO/mcfTtpv6le5NWsgnufrqt9LGSA9XE6c9pMu/AbF+L087rOvq23yfn3hkxaLVeuah9ddQGNZADKytJZ+r7V5eeEMOuSJ2Bb7aXFjsgvRl6/K3jdHce6f1itFtpFV7IdyKxFDdo9Jz0dQrxZbDVAq61bvNOTVv6j1RP35WI9NGiCFhXfgq7gp6tPU4XeVSjoqFzU3iDzHqufkwc5kjn0ym7oQfve87HXZ4eM109CqlvRSAaUubq6SIv6nqVIl8r75OHvjq+XvbtGVf0+3z5XGvBfaCTDGzLSSOYulo8ftm/nJ1apZmR4MzdP82oZBgEbNnrqIMXubtuTdwuZ9CvEH1aUq6eRDADS59XZ6rcm337DfIdiJqO8kvPnP0S2+Jz+1SI9uduX9ZJLhsIDysjimZoQOU0PIYoWO+lW73WX1Q9PVER6Zpex7b3FqB9KRFOdesf9tYf9jt5hv5eD7FrqRFsn8zuX09Qkf6iu0XGh3K1oJAPQ7qyG7VTIn2x18nkWJXMbd2T7hZ2ua6rmTbzY1hyP8f915IcM6ZadRrJe+dlam7vTov2KyZTz9p+r2FPzap4JGeCtzpwyQlF0o5WycUHn9biaH9hXfQ6+l0YyAEifpTP1RTu7/G4IsyYZ+uxZF+nblZWau9N57cMkAuXMNc3Sn73XoSEuV8lQTq956SFbXzqkRsk1KVLEPsNu6bd0sAoa66TjrJ7f3nKZ72HWWtC7d6/VoyHsNjSSAXiT82f3UPOaL9nRdYKc28kyHXe/y/svqnHS90MElNXTMSgX35u8zF5/UQwywNl/cdu5SQtgyABvNnx4zk4YJlspKw1kyZwaY7RgQbfPrQEA2HzzhytnR6QRIcyaf3mvzxZadMjgCzSbBjJAWnK59rP9Iu0PNW2tR2Ovs3xOh1XX6AQayNIp6QU85AL9pXqFTq+I9T5LjbHP9j+KW7OrKqdaz0P0AErNFWNbNHfSTFUk5xgumVqkqbihAzj3fxp12bEhAmgkQxa5pO/VdxT77Ny0cO4Ejby8f4iAN+vz3k/aZyTpgp4NTg9KzTx5BwApdeih2sXOxbIxP+x/JPMJ/cbFOjKZu2XYhXq9mAYQFTTRVhkZ6n4zJMOqej3upXMGV+jgoePVOOTLetIlj3wh1Vy94l1q9ezgcZpbXaP9IqnG0gttyerv9rCXLlfSSwMASs9Vk5ZqXu1s5d2BVgtfZ5lXixu2yg5y0c06c8Z7QowyRyMZsqlx4guKom+FKP2c3ibXclSIgP8YU9fbPh9fCFFW/FSN9ck40QCAFIqcdrVVMtl2ZjipYXC1Pjl4QvscZACCF76nnWLpoyEsG15a5gsaV5nT0UNqNMeNbZ/jBBmU9C4bVKNZ9js/wo4F00I6awblW7VnKANAabqu9iU11p6pQuF4OxD/fKufW/Cuh1w8V2Ou7B0yKGM0kiG7vL/GXrNyIyOn2H2zfTxe4L+t7pU8qX9gMciE5WprS54M4glcAEgp7/VuW2XjYrPYU2TB68tV50a09yYD8F8Ka/Qu20/K5uaScyrYSeqDhVjHDpmgb+18gZhztkwMqVHT4BpNtmNcMjzXv4vZzOjpK3RMKANACXNe1174sBonfsLO0c+w+HFLJnOCbhln5zGtK27RqbP7hQzKFI1kyK6q/slwCPcVgwyI3L5a2fLBEAFFFe48ex1QDDLAaYquv+j5EAEAUsh7ZWcIYK8Hlq3Q6H3raSAD1snpQCdVhijzCgXNttWHdp2gh4sZlJsh43V7W4s+ZJ/9O0IqE+zYfXIoAkA6NE66TnkdpVgNIbNlnN6virW1IUKZopEM2TXnnDb5wkwrFYqJDHDxqRo+PBcilLszp+2RvBaDTHhOFW1JD1AAQIpFTgeFYup56Vv71is789wCHSz2OiwUs81rpZzGDZmg8UNq9FrIokztdqEWeq8PW/GmYib9nNMBL16unUMIAOmQDMF4zcRa+fxH7Fj9SMhuJu/sGD9Ro6Z+ur2MskQjGbJt2Nq7rJL8Q4jSz7sPqs87tgkRypsdxOMv29VMVYjTz/s/6fW9XgoRACCFljSol/faN4Rp9/iLfbQglAGsg/OZGvZ7fZJhV88fPFhXuKQMmCE1WlPVQ6Os+JNiJvWi1oKOCGUASJfGr9ys1sKxUjxNsfIhu+mcquwIP0ejZhwcMigzNJIh2+rrY/k4GRIjGxMpu2QS/L6TQ4RydlaDfRbch0KUBbGi6FtaMCI7PT8BoAxVSPvZ+YqtUs/OIVV70DlqCzGA/9E0U0O8NCSEWbXW6oIJ1RN0jRuRoRFK0CF2Ok+rerfqLNsP/hRSqRZFzEsGIMV+eOHrGrrmQjn/GYuSXmWb92CLc9vK+8t19iX0qi1DNJIh+9r8PfJuUYgywI/XmFkDQ4BylW870Q7ge4UoA9xvNHdCduYQBIAyFUu7h2KqOWlR77Zs3PQEOo3T+13GByVyXj8Z3FdXhBB4i+0ma3llQWfa/rA6pFLLe73DzxfTOwBIr6SzROOkn8o3HyOvzZ/Ow+l9KlT8Vmd8e/uQQZmgkQzZlzxJoPiqEKVf8nR2W+vwEKEcnfudvvY5+D8rZeO2hNcauyKb3n4bAgCQat5rt1BMtdjrb9uuUXMIAaxDGcxH9reelTrX0aMUG7FLrZ6NCzrbimuKmdTabmGTmN4BQPo11i9T48TRdrZyul2gLA7ZTeTerdzqazVy2i4hgTJAIxnKw7DVM+31hWKQAT76VCihHK1u/rScy8RNyCL/T/Xu83AIAAApFjsNDcVUc05/dfVbMJ8BUEZsP3lPKGaP19qc17jtx2pFyAAb1FKln3rp/hCm1YDKnPqGMgCknde8yder2b/LineH3KZIHkj/sJz/jT532bbFFLKORjKUh6S7rfxsqx6z0VPF+UN11lQmkyxHY66sVORHhCgbvJun7563KkQAgBSzi4tMNJLZ93FnKAJYBz9fVbYaXIwy6c9rV+jeUAY2aq+x7fOg19mS5rnr+nqvXqEMANmwYPJyta7+iJ29fNWi5cXkpnAHqEd0o0ZPHRQSyDAayVA+XPQruc2pDEtapZ16f191dezDZef1gfIuOxMqe/+8FjVfGSIAQIp5O9uKvQaEML2c/GvLRQ9nYAOeekr9bZ9PGsqyKHaRJu5Wr7UhBjbJkBrd6aRfhjB1bJ/uay80kgHInhvqV2jepEvk/QkWvZz0Pihu2CCr0t2HbLlJZzVsF3LIKG6wo3w8s+pxq9j+GKIMcPtrUT96k5WbVvcte+1ZDFIu6dnpdKnuqGc4KwDIgvmKIpeBCf+9Xtu3XvRwBjagslJ9XTJXcjb9fvA4PRTKwGaJpTneqzWEqeKkHlGB4RYBZFjjpPuUjw+S99dbtGmjjXm9T3H+x/QoyzYayVA+khvxOU2wijCVJ6xv4ZL/Cp8IEcrByGn7y7mTQ5R+Ts8pF/0mRACA9Ms5W0I5tex7oIEM2IgeTr3kM9Ao/lbJY1w/D2Vgs+XzesQOJEtDmEY7hDUAZNN1kxerceKZcr7WDvsrQ3ZD7PJAx9n5wQ/pUZZdNJKhvFxV+6xVbVm66PmchtdldZgTvIU/PRSywce3avmwxSECAKTcc/9Qhc9AI5l9D22hCGA94lz7yAZZbCRbEzv9NZSBzbbrrnrZeT0ewtTxTtuGIgBkmdfcSTMl9zErPR1yG+GOVNz2U3qUZRONZChD7jrFysrwbtXq0+tLoYwsG3NlpZyy04tMalHOX6IFI9I8sTUA4L/k+rY/Zcn1BVAGwtCqyT6fKV5aa9/UMyEENpsboYLtGb8KYRr1CWsAyL55E+9U1VNvtxOAn1i0sftTdorgjpJ319CjLHu4iEX5cf5O++Q3hSgDohqdcen2IUBWtS7/gv2udwtR+nndqKsvfCpEAIAMiHq33zDP3E1zAG9VKGS0kcxrYXWNXg8hsEWiKt0SimnUI6wBoDzMmdOm5uaRdlrzeYuWFZMb9AHFrTfToyxbaCRD+Zk7aaWcv8hKcTGRck472Vn4USFCFiVPqHh/afvgF1ngtUa5aF6IAAAAkDJZbSSLnO63b2rTJvIH1mPQl7TIVptyo7XkeC+mcwBQfhbUr9LcCY1ycTL84uO2bOhcwE4VokPsHXM1ctaAkEPK0UiG8rRytx9ZZfZYiNKu0irx00IZWRQXPmxX7H1DlAH+GeVWPhgCAAAAoCR46flQBLbWK2ENAEgD57zmTr5bkf+ALT8O2Q1wH5RvvUlH11WEBFKMRjKUp2QeJB/fEKIs+KjOmLl3KCNrvD89lLLAK46/pjn1q0MMAAAAlATn9XIoAlvHaW0oAQDSZO6k57TywaQzwiRbXmvPrZtT5I7VbtucHGKkGI1kKGNRMiljVlQqV5hi68wNeVL2zpqaTCB6bIjSz/uHtOahX4YIAAAAKB1eq0IJ2DpebaEEAEibBQsKGto8Qy53rJzf0Hz6TiqMCWWkGI1kKF/XTHxa3l0doiw4UqOn0pssS8ZcWamCvms1dVa6bsd2cnF1+8kGAAAAUGK8S0ZcBAAAZa++Ptbc8X9TvvJoO0OYb5n13Mtyx+qsqQeHAClFIxnKW3PufHtN5YS6b+W2s+WDIUAWtK04UM69L0QZ4FYpr9+EAAAAAAAAAChd19Y0qXJAMvziVxQrX0y+SU4FN9vWjO6VYjSSobwtqFljrxkZ+q39uccv6PzZPUICaef1CTvGZun32ajrJi8OZQAAAAAAAKC0zTmnTUObGxT5cZJ7a2cLp/00ctq7Q4QUopEMcNGPQikL3qFVLcNDGWmWDLXo/FntjZ/ZsFwv9JgYygAAAAAAAEA61NfnNW/St+ULX5R/S4+y3vL+xFBGCtFIBvSp+qO9PlIMssB/SadP7xMCpFXrsovsdYdikAHe36BbxraECAAAAAAAAEiXYWvmy+dHWunVYiKINFrD66pChJShkQy4Irlx774g+Thk0u4dyuXfEcpIo7Mv31nOnROi9PPJBOjxghABAAAAAAAA6VNfH+uar9ygWOe8eY4yt6d69z09BEgZGsmAhF/1N3k9GKK020Yud1YoI40Krcfa6/bFIAv8A2pee08IAAAAAAAAgPS6pvanykUnSW5RyFgxHq+z6rYLEVKERjIg0Vi/Vt79JETp53WWxlwyMERIFe/k/ResUFmMU6+gOP6CFtS3hhgAAAAAAABIMec1d8ItivKfsOC59lGUvNtLhV4fLG5HmtBIBryhsu0aq85WhCjdnCrUlqttLyFdRk85Xs4dHqIM8H/StRc+HAIAAAAAAAAgG66+8GG1tR0kp5mKkvuw7jKd8c3BYStSghvoeIPTqGmv2DrdXUK9u1iNtfUh2nyjpnxdyl3c3psn/Z5Q3h2p62pfCjFKXTLBZ5/et8m594dM+nl/nhonfTdEm2/k9Pvl/HtDlFbLlavaR1dd8GKIAXSXE2f30OB4gPKt6T7ONzev0oL6VSEqGS99R31bW/RnK76rmEmtp6prtFcoA1iHRdN0eK5Cv7di72ImG7zX6UPG6/oQAltsaYMestUBxSg9bB+YbPvA1BB2qaYGHeelW6xYUcykUy7WwQMn6IEQAignI2e8V64wVd7dq8aJF4UsUoBGMryBRrLE2VOrVXB/sdKgYiLFkskjnR+uxkk/DxmUujNmHGBn1LdbqX8xkXJezaqKdtWcCUndsmVoJOs6o6aeaVfFe4conbx7StdMmhci4K1GTTvKPudz7Kwn1TdfFGmmrt6KBxA6CY1kQPmgkQzYMBrJNh+NZAAyIXkAvn/VtrrqIh6UThEayfAGGskSR9dVaNfejXLu1JBJN6f7NaT5cNXX50MGpWzktBn2OxsfopRzXq4wQXMnN4TElqGRrOuMnHp96us+r9+rceKHQgS81RlTTlQu9wv7sKR83kf/Vc2bdEkISgaNZED5oJEM2DAayTYfjWQAgO7CnGTAf7sjaUyq+HaI0s/rvVrS6/gQoZSNmTVQzo8JUfp5v0gta64KEdLARa+HEgAAAAAAAFAWaCQD/lfj+PsU++TppSxwinNna8yVKX9iPuO8d2prq7Ff1zYhkwH+Zu2pkpsvBxviV4cCgFLnI87hAQAAAADoAFxgA+vi9A17XVsMUs7592tt804hQin6/Lfs9+M/HqJscO5q1dfHIUI6ZKPOAwAAAAAAADYRjWTAurT1+qe8Hg1R2u2oqDA6lFGK4rVHSW73EKWf97/UvInJGPxIFd8aCgAAAAAAAEBZoJEMWJcbxq6w1wxN2BxfqDMu3T4EKCneKY7qrZArxinntUZ5TQwRUsW1hQKAUhfFDKPcuarCGgAAAACQcTSSAetTcHPl9WyI0s25XnIVZ4QIpeTMqcPl9LYQpZ/z96lip0UhQrowPCaQGpzCdyYv9QpFAAAAAEDGcYUNrM91tc3yfkqI0s/5k3X+7B4hQik40X4fTmeHKBu8u1aNo5jbKo2co5EMABJeOzw4RvTWAwAAAIAyQCMZsCFRfJu9PlcMUs65Q7Sidd8QoRTs0rqHXPTeEKWf19MquAUhQtrEvhBKAEqd5xy+Mzknt8vb9c4QAgAAAAAyjAtsYEPmXfiMvL89RGnXQy6eZmtXDNH94vH2MqBYTjvn7fv5ensPTKSTo5EMSA3nOJZ3srigw0IRAAAAAJBhNJIBG5OPL5bXmhClm/PHauTUQ0KE7nT61Lfb66nFIBOetkPKH0MZaRR7H0oASl3sc6GETpJzOsBqRRojAQAAACDjaCQDNub6C59SFP84RCnnkv9PCQG6j1POnWXr7MwRF/tb1TjxhRAhjSIxJxmQFs7TeNPJYqc9dYWqQggAAAAAyCgayYBN4aNGe83GMHLefUx1dez73enc7/SR00dDlAVrVemmhzLSKnaF5M57iABgs730UvsqE/WIk/ZtWqW+IQQAAAAAZBQ3yoFNUdn/Ack/FaJ0c9pNz/YZHSJ0h7WrP2yv+xSDLPBzdVXtsyFAWrmIBjIAW6WPlLdVVuY33MH11PGhDAAAAADIKBrJgE0x55zVUu6bIUq/yE/RmCn9Q4SudO53+srHs0KUBcvlNC+UkWa+EGekAwiAbrJrsZEsWTLBKsV6f6UqQwgAAAAAyCAayYBNNW/CTfJ6KETp5tz2aotOCBG6UvOqj9svYFCI0s+7v2ll5T9ChFRzMW1kQFrEJdlw4+rbG8heLkbp56S9l66iNxkAAAAAZBmNZMDm8P5Ke42LQdr5T4cCukoyF1zkPhuijPBTtaBmTQiQZlFW6jYA3copG8NTv8HrLF/HNRMAAAAAZBUXfMDmqIxutddlxSD1PqxTp1aHMrrCop5D7fXYYpAB3t+vxok3hwhp5xXL0ZcMwNaxi4u/hmI2OH30xX46OEQAAAAAgIyhkQzYHFfVLpTXdSFKOddbla4hBOgSue/ZS+9iOfUKcu7yUEYWeJc0kbkQAcAWKXjdG4qZYDVjVZvXr5dOFQ8WAQAAAEAG0UgGbB4vVV5s61eLYco5fUQjp+0VInSmM2e8x37eGZoHzjfJ+TtDAADoSrEryTnJEkNq2odbXFiMssFF2t5X6rL5w5ULKQAAAABARtBIBmyuxnHL5PWjEKVdr2QYoVBGZ3L5jM0B56/V3EnPhwBZEHl6kQHoKL8N68ywCvKU9x2ib/v2IgAAAAAgK2gkA7ZI4SZ7iYvlVEuGVztDR9dVhBid4cTZPay6/UyIMsC/KN9jZlIoxgAA/JdIv7EDRFuIsiIXRRqzpEHf9FeqZHvyAQAAAAA2D41kwJZoXHuXvB4PUbo57a9de9ObrDPttOYc+znvFqIMiOa296gEAHSPyJX0sH85r8fsPCkbQ1O/WWQ/+MlNq/TzF6arT8gBAAAAAFKMRjJgi9THiv0oK7QW45Rz7ms6fTo3ezrDqEt3VOS+EqIsaJZ3PwtlAADeYpdlWiynO0KYKd6un7zTiW053bFklk70daI3PgAAAACkGI1kwJa6dtL99npvMUi9tynnDwxldCRf+QF73bEYZIDX39Q44cEQAQDwFq5ecatXnR0zsjA09Vu45PEi6SDn9ZvnBuiGJQ3ajrnKAAAAACCdaCQDtobzPwqltOttS4bmzCohLh5pr1mpa9sUF75ka+YiA4Du5Ev/uLLHeP3bO2XlPGl9nPca4aQnmhp0zZKZ+rCvU1XYBgAAAABIARrJgK2RLyyQ92tClG5OozRmSv8QoSOMnLKfvPtgiDLA3aZrL3w4BACAbuPTcg4/x3utDeUs28GW053Tb5r6a8mSmbq4aYqGvjpb/fyVqiy+BQAAAABQimgkA7bGtV951Xajr4Yo7Xqr1X09lLG16uoq5KLL5TIz/FKsOL4hlAEA2Kjly3WvHQRvDmG52Mk51fkqPb2moAebmvXzpbM0s6lBo5bO1PuemKEdfB3XYAAAAABQKhg7H29wGjXtFVtvVwxTyruL1VhbH6KuMXJeT+mlJ+Tc0JBJs4XyOlSNE18IMbbU6KkHqaDbFbm+IZNuXq8rV7Gnrq55LWS6xsjp98v594YorZYrV7WPrrrgxRCXplFTR1kdenWqG3a9fm/114dCBLzVGVNOVC73C/uwpLt3j/c/UOOkMSEqaa9NUf/mSj3unHYJqbLjkwnL/qtmteJKSz1j+WctfNnilxTpNcutiLwKcUEtFrcU310+YqfWCmmNrfNWn6/OxfazcFoZV6pQ0ap8IVK+ypa2CuVXNas110ute45Vq/38GAa6GyyapsNzFXbcLQ7bnhm2X54+ZLyuDyGwxZY26CFbHVCM0sP2gcm2D0wNYZdqatBxVqHfYkU7HKSXHb8OHjhBD4QQAJAC6b0Rho5GI9mW8t5+dtOvsJ/geSGTXrFPbkqcomsn3RQy2FIjp06RcxOtlI161vsvqnHS90PUdWgk6zo0kqEc0EjWLRY36NxIusKK9KDaBP/bqFbmCra02s9krf1I1tjPpcV+PMkQnittWWX5FVGkJjtyLcnHetY+YP+y/FNDapSN4dBLGI1kwIbRSLb5aCQDAHQXLlSBreWcV85fa6XkIj7dIldhtcJ5qqujbtgap87uZx+MUVbKyC0u/4waJ14ZAgAANosdDOfFXn8OITaCBrI3ydnSy34m29oHaZCXdrP47bYcbMuxlj/Ze53nY02xN/7YfnSPWn75kgY9bsuCpQ36alODPvhCg/ZbOlvVL0xXH9sOAAAAAP8fN8KBjlC9+kF7/WUxSDnnjtSzvY8KEbZE1ZqJctopRFnwY/tg+FAGAGCzJL16ksYMKya9fIBO5aRKW/ax5dMW/p93+m1eukd53d0W6c4lM/XDJTM0pulyZWGodAAAAABbiUYyoCPU18e2O31V8qtDJs0i+2+8xlyZ7qGoussXpieNY6cVgyzwsbybHwIAQClIerGnzJAavRZFGmfFLJwrIU18e8/+ZI7YYc7pPbac4iJ9385wFjU1aOHSWbpy8SydsmS63vXqbPVr/zMAAAAAygaNZEBH8Sufsdf7i0Haufdq9WvDQoDN0eKOlHeDQ5R+sX6qYc3J0EUAgNKRyiGeB76uW33yIIlXa0gB3SVpOLOPoobZy5jI63oX6Y61Bd3XNEs/WDRLh7e/CwAAAEDm0UgGdJTG+mQS8WRusvRLhgqsjIaHCJtq+PCcFI+1n1+qJxr+D79SUUVNsackMs87V7xlCACdw9Urrh6nn9sVyMUWMowvSklkx8BtvdfbbTk753X30gYtbmrQFUsadMLCWRoY3gcAAAAgY2gkAzrSqt1ukNeSEKWcm6hzv5MMTYNN1fvgE+w1Q08euz9q6IqmEAAAsNWckx+8TNMjp4sspKEMpWyIfUC/5KRfVMR6pGmmrn9+ht4RtgEAAADICBrJgI60YESr7VVft1Iqh0H6HwO0pvnzoYyNGVnXU5H/spWyU6969yN6kQEAOpqrV/653pphxUucy8Q5E7KtKhllwU6ITi1E+vuSWbq/aZbOe3qm9vbF+c4AAAAApBiNZEBHi/VbyT0borQbQW+yTRT13dNeDy4GGeDVpOZhC0IEAECHOugctd1z7/CLY69zvNQW0kDJcsXmsMh5vdd7XdEj0sNLZuqnSxqUnAMCAAAASCkayYCONqz5JTl/S4jS7l1as/qdoYwN8X60vfYvBqlXsMPDWC0YwdP9AIBOM2LBgkJ1tRrtguQcC18tZoFUcPLqHUU62UmPLp2pXzw3U596rE5VYTsAAACAlKCRDOhoyfB0+Yqp8j4LDQy9JX9hKGN9Tpmxg+S+FKIs+Keiwq2hDABAp3EjVBhco3m5WEda+EIxC6RKLzmdFDvdtO0ALW6apg8yDCMAAACQHjSSAZ3h2pomeTcnRGn3MZ0144BQxlt4px5+oq0rQyILfqG5E1eFMgAAnW7gBP1TXkdZcb4t9GRGKnmvnX1Ov2mapT8unqmRt9epImwCAAAAUKJoJAM6i3ffl9eKEKVZpDj/ebvq54nYdRkzc3s5/7EQZUGbWv2Vsm8qxCgXcXJOwG4OoPtUj9e/By/XqXb+NMV7rQ1pIF1ce8PY0ZHT3D37619Ns3Sgn69ccSMAAACAUkMjGdBZ1uSelPzDIUo3H31Qp128TYjw39p0tOIMTdge61u6YdLSEAEA0KVcvfLV4/VVOx6d6L3uDmkgjZyT9oy9bl+6WNcsahDz/AIAAAAliEYyoLMsqFkjF82yUlxMpJjTHqrs+9EQ4Q1jrqyUj79pNWk2htLxel2V7rshAgCg2wyp1R3VNTrSSVMsfK2YBdLHPsP9XKRTc9L9TTN13kvfUd+wCQAAAEAJoJEM6Eyrhv3aXu8rBinn4qkaXsdF/X9rWfEJOe0Toiy4W8tXNYUyAADdyjn5Qct1kZeOlteCkAbSqrd3urytRTe/OEuHhhwAAACAbkYjGdCZFoxIJp7/ti0ZmIDeVasPvcn+v+F1VXLxmSFKP2//5Qrf1YL61pABAKDbuXrFQ2r098Er9FknnSynRy2d/l76KFcVXjqizev3Sxt0Lr3KAAAAgO5HIxnQ2Srb7rDX54tByjk/QnV11BuJnn0H2w/kiBBlgP+Tnl57WwgAACgpSWPZ4Br9QpU6Vk6fcU5PhE1A2jhb+trr7NYWzX/yUu1YTAMAAADoDtzsBjrbnIuSBrIfFoOU8/qAFvXZKUTlzCkX19lrvxCnXZucm6476vMhRjlynnMCACWv+kt6tXqcbsrl9R7nVGupR53E8Qvp45Wz1xN79dCDS2bpaO/bG88AAAAAdDFuiAFdobXnJfb6SjFIsaRRyLlLQ1S+Rk9/p/0cPheiLHhSUcU9oYxy5hnBDEA67FKr5sHjNMNLx/iCTrbU34pbgJRxGupi/bTpcp0WMgAAAAC6EI1kQFe4YewKyV+ddNUImfTyfqRGTtsrROXIybffxKgshhkQ60ZdXfNaiFDOHKcFANJlSI1eq67VbwbX6IBY+pD3+omln28/WgNp4bStfWKvXdKgr9fVcY0OAAAAdCVOwIGu4uOfKI6bQ5Rezv6TPlUMytDwukr7XX4iROnn/avq0dwQIgAAUslOTvzQGv3+xb46JW7TQc7rLO/1dNgMpMVXx/TXXD+/fShGAAAAAF2ARjKgq1Rt94jtcQ+EKN1ceyNZec6b0Kfvp+1bz0ZPOp/8F83SnPo1IQMAQKoddI7ahk7Sc4NrNM/OVPazI93HbLnSlsd8MgcnUMLs5LrSPqdnNi3VdD+chjIAAACgK9BIBnSVOee0Ka/zki5lIZNm79Go6R8I5fIxrqGXXP57KvamS79Ir0qFn1uJIakAAJkzpEZrqsfr1z9YoXO908HO6712AL/ajnorw1uAUvXlpkP1AztBK8+H0gAAAIAuRCMZ0JWum/Qveff7EKWZk/czNbyhV4jLw7L8yVKuX4jSz7u71GPbf4cIAIBMqq9XHBrM/ja4Rme3tGmId/qwvC6xzTfb8nL7G4HSkVynn9HUoAuKIQAAAIDOQiMZ0NWcrrXX9Pcmc+7t6tNySIjKg9dnQykbfNtF7T0cAQAoI3tM1vIh43RL9Xh9tbpGHxk8TjvHkY6Kva510qrwNqC7JcMtznx+lk4shgAAAAA6A41kQJfL3ybvM/DEsq9UlPt0CLJv5LS95JSdISa9/6kav/J4iADJRQzpBKAsOSc/9ALdNXS8zhxUoR3ktb+L9Fnv9X9W/qWXnrK3tRbfDXQpV/BqXDJd7woxAAAAgA5GIxnQ1eZ95WVF7v/smjf980DF+pzq6qpClGHeybkrrNCnGKdem3w0N5SBIlewcwL7rANAGXNj1dI+LOMF+vGQ8fq6lT8+pEZ7tS1Xf3kdaidvdXK6zd76mlWYzd63N54V2v8w0Dl2inKaeXudKkIMAAAAoAPRSAZ0h4r+c6T46RCll9O2WtjnayHKrlHTD1AcZ6cXmfwiuYo/hwAIOCUAUiP2NMp0sd3qtbZ6vO4bUqNvVI/T8ct6aJhVm++x5UO2nCKvc730DXvrNba+w0nPWjnf/oeBrRR7Hbd3P33dezv7BgAAANChuCMGdIdkHijv54co3SJ9QSOn7RKibHL+ZEUuI0/vOm//T1HjuGUhARR5epEBwKba9zytGnyBnhgyTndUX6AF1eP1vSE1qquu0UhbHzO4Rru7Purfktfeea/DKyp0kot1ltW0k+TV0D5Hbaxf2VH5LvtyD4UhHZ+xZaFVxplb7PtabMuSZLHv9Xlbv2r5ZP63Flunf67eTubsh2SfnS+8MEvvCCkAAAAAHcROt4F2TqOmvWLr7YphSnl3sRpr60NU2kZO2U8uejRE6eWVt0/PGZo38caQyZbhdVXq0+dJ+x6Hhky6ef1L2/Q8QFeMbQmZ0jZy+v1y/r0hSqvlylXto6sueDHEpWnU1C/ZoSAZVjS9vH6vxokfChHwVmdMOVG53C/sw1IZMukU+2/rmknnhwgZ8uCVquz5XPau0fr3V66yoCjqLbditXr3jDTA0ts5p76xUz/ntZN3GqRYgy23j23b25Ydkz+LomTuPO91Q3WNTg+pbrVomg7PVdhxV+pdzGSD/YxPHzJe14cQ2GJLG/SQrQ4oRulh+8Bk2wemhrBLNTXoOC/dYsVUP6Cai3XwwAl6IIQAgBSgkQxvoJGsO4ya9nN7/XgxSDFnF8hzJ55gJTunzZhR08bZa0MxSDvn5eML1TipWy56tgiNZF1n5LTzbV+eHaJ0opEMG0MjGZAKdkLpXpmlXdYU9C4L3xtFOsaSw+w4NcAuYAfY9lzxnWXHR9LBg2r0YIi7DY1kwIbRSLb5aCQDAHQXhlsEulM+HmuvK4tBihV0rM6Y/r4QZcfp03ey15pikAW+xU7ZfxEC4M0cwy0CAEqDHZD8juP0/NAJ+p0t3xy8XMc7r/cVpKPsaPVx2z7P3laOQ0e7glf9k7PVI8QAAAAAthKNZEB32n3NUnn/hxClV6QKRf7rqqvLyLxdQaWOltzOIUq/WD9R44THQwS8meecAABQmly94sET9MqwGv2jepx+M7hGoysKqrZNn3HS7+0Y9nrxndnnnA7uvUa7hhAAAADAVuKGGNCd6utjyf84ROnm9F4t7JXMIZEdPj7bXtI9JNcbvJoVuwz1ikPHS0ZwAgAgHXapVXN1jeavrtBJ+bwO915XOCkfNmeX0/bqIYYWBgAAADoIN8SA7tZclQx/93QxSLXtFUUfCeX0O6PhYKsijw1RFvxc19W+FMrAW0XlOr0LACDN9hqrll0n6V9DxmusYtn5W/t8NtmbJ/cNXs57fcnPL9t52QAAAIAORSMZ0N0W1KyxS92aTFzLe43T+eenf46Eo+sqFOWn2TeUnZsPTj8KJWDdPD3JAADpNniCHnZ99Gk77znTltUhnT1eezUt1H4hAgAAALAVuCEGlIbbJfdYKKeX0y5aOWRMiNJr1z772vfy7hCln/dPa0BF+ue+Q2fjnAAAkHqDz9Hq6nG6Li7oVAsz24ve5xhyEQAAAOgI3BADSsHcSSvl9csQpZvTaJ06u1+I0sm7EfY6oBhkQXy2ZtWsCQGwbo5zAgBAdgyZoF946XArvlLMZM4hvo5jNwAAALC1OKkGSoUrXC35LAwLs5cq16a3F9aoS3dU5M8OURY8oGFr7wplYP28d6EEAEDq2UHND6nRU7F0tpdWhHRmOKednhukniEEAAAAsIVoJANKxbwLn7Fr+StDlGZ95PTFUE6fuHKcve5YDDLA66eqr49DBKyfdzSSAQAyZ2iNfhHldKKdE60NqazYQSvVO5QBAAAAbCEayYBS4qPvyftXQ5ReXp/SyIb0TSZ++vSd5OJPhygLVqsQ/zCUgQ1juEUAQEb9+W79xUsXhzArelf2UkUoAwAAANhC3BADSknVUwvt9b5ikGJOVXL5C9pLaZLzB8m53UOUfl6X67rJi0MEAABQlkYsUGHIeE11TreGVOrZSXZVS4tyIQQAAACwhWgkA0rJnDltitzsEKWb11E6+5KdQlT66uoiOX3VSlm52fCC8m3fDmVg47zjRhsAINN8rFo7R309hKkWSz2iiEYyAAAAYGvRSAaUmrkTfy+ne0OUXs7voXzumBCVvoW9TrTXQ4tBBnj/B7U88lKIgI2LYuYkAwBk2ppKPW7n2Q+HMN28XEs+ZaM2AAAAACWIRjKgFMX6pr22FoO0Sq7Z3Td14uwexbiEjazrqSg6N0QZEV2lBQsKIQA2LuacAACQbXuNVYuXfhtCAAAAAOCGGFCSXP4BeT0ZovRybg8NXP3xEJWuQu/d7PV9xSAL/N1qrL0jBMCmcZwTAACyLxfrj6EIAAAAANwQA0rSvK+8YnvnD0OUbnF0mobXVYWoNOU0xl63KwYp532r8v7CEAGbzjmGbAIAZN5rK/VEKAIAAAAAjWRAifL2/xW2Tv+cUk6Hq0/PQSEqPaO+OcT+kV8MUfo595Aq3d9CBGw6TyMZACD79q3XKu/UFkIAAAAAZY5GMqBUzZ20Ul7fClGabSflakK59PjK8+RU+vOmbSqvH7V/doDN5TknAACUBycayQAAAAAUcUMMKGUu+rm9vlIMUu2LOuubw0K5dIyZ0t9+yB8NUQb4F6Xma0IAbB7n6UkGAAAAAACAskIjGVDKVg19Ql73hii9nCqUrzwtRKWj4I6Rc28LUfp5d5ka65eFCNg8zEkGAAAAAACAMkMjGVDKFowoyOliK7UUEynm3Ekac2VliLrfmLreit0UyedCJu2WKtea9DwEtkwcZ2VfALIv8gwVBwAAAABAB6CRDCh18yY+JO9/E6L0cjpILcsPDlH3a+mbDLO4TzHIAK+7VN22JETA5qMnGQAAAAAAAMoMjWRAGjg3T963hiitIuXcFRpeVxXi7nN0XYVy8SkhyoI2xW1TVV8fhxjYfJ5zAgAAAAAAAJQXbogBaeD8nXJ6KUTp5f0B6tPzsBB1nyF9t1PsPhSi9POar2svejREwJahJxkAAAAAAADKDI1kQBrMnbRSPvpGiFIu+kwodJ+K+HI59QpR2jXb9/KDUAa2nM/M/HwAAAAAAADAJqGRDEiLxtofyOvpEKWX0yc0fHj33YwfNeMd9o/IzlCL3j+tvHswRAAAAAAAAACATUQjGZAmTnPs1ReDtHI7q+8hF4agG2RqLjL7dqLpuq62OUTAlnOcEwAAAAAAAKC8MP8I3uA0atortt6uGKaUdxersbY+RNlz+tS3q6K911DvYiKlvG9RVa5acyYkn7muM3x+Tn0W/t0+7W8PmbR7QvNq7XtxKW843YCR0++3b++9IUqr5cpV7aOrLngxxKVp1LTv2+s5xSClvH6vxonZmW8QHe+MKScql/uFfVgqQyal4lmaN7kmBAA209JZarZjRqrPp73X8javd+8+QYtCqkstmqbDcxV23E37dcn/sJ/r6UPG6/oQlhz79zldnP37OK5ecSim1tIGPWSrA4pRethnbLLtA1ND2KWaGnScXdjeYsWKYiadcrEOHjhBD4QQQBd48EpV7taiXq1SD9+q3nnpbXaeUh3ntaPVK9s4p23sbaut/EqU00rLL8zl9a+ot9asXq3W17fV6oPOUVvxq6Ec0UiGN9BIlgbeO42efq2VTismUsrbf5FGau7E5HvpOiOnjbRP+lwrZaHui+3zcJ4aJyUNG9lFI1nXoZEM5YBGMgCGRrKtRyNZ91jSoP0ir0l2VZjy49iGxV432O/hV3bRltqHAWkk23w0kgHYHC9P1Tb5Kh1RiHW4nPa31FA7buwUS9vZeqPHSedUsOPNK3akedWWZ12kv1kd+OfKWHfuUmvniigrNJLhDTSSpcWo2TtKa5+1Up9iIq38LZo36cMh6Hyjp26j2D1rn/TtQybdvF6SKxyqeRc+EzLZRCNZ1xk17Qf2enYxSCkaybAxNJIBMDSSbT0aybqHt+v2pgadY+upTuoX0lm0zH4Xp1av0G/T2quMRrLNRyMZgA1JjoFWt24bOe0aF/RZF2m0pTvjHl+z1YU/rsjp+72q9NSAc/V6yCPDmH8ESJt5Y1+2158VgxTz7gMaPX3fEHWB6EQ5l+5G4Df7mYauXRjKAAAAADIu6VlVXaPvR9IZFrYUs5k0IHK6samfLvDzlQs5AECZenK2+i1t0AQ7Dv7Re93tItVaurMegu/jnEYXYv1p1VrdsXSmLl16aUYeuMd60UgGpNOPwzq9nKpUiKe1zxPWFWJ/StIyF6J081qhirY61denfqx+lBLHDQgAAIAUGFyjXzinw+y6oFt6EnYFL/Wz5dKlS3Tekgb1CmkAQJlIeo69fIUGLZmpST3zWuSkaZZ+ty1ddUzoYcu75HSh76mFS2foK8/N0LDiJmQNjWRAGvnm2+xo8XSI0uz96rXonaHceUZO28sOaieGKAt+qKsuKu2h+wAAAAB0msHj9FBrrJPsuvC5kMoc59TDlgb7Hqc/VqeqkAYAZNz84co1zdQXWtp0p4t0mZMGhE3dwv7+vor0zTjSn5bOVE3y7wubkBE0kgFp1Fi/1l6/ZEuhPU6rKOqjyHfuvGRH11VIfpaVkidAsqDVfmbzQxnoQJ6TPAAAgBTZvVaPro11gLzuCaksyjmnc/tto++/MF07hRwAIIOS3mNNM3TA4e/TH+X0XUvtaclSGRUq+XcMsdeZh75Pdz/foIOLaWQBjWRAWg1rTibKfrgYpJV3dnD5gnwnDoO4W5+ka/QxIcqCf2vl6j+HMtCROCcA0sLn8qEEAChze9bqpTWVOtl73R5SWeSiSKMKOV3n6VEGAJlUV6do6Sx9KY50m3c6MqRLknN6X97rt0saNNnTqywTuCEGpFUyH1WsBSFKs2E6a+roUO543p9kVV1WxrAvyBfO14L61hADHaczG6sBdCznfSgBAKC9xurlqK8+6rxuyPIRwr61Dy7tr780zdDbQgoAkAEvz9LAs7bR1XYcu9xJ24X0JrM/s8L+7F99rB95p4vteHGqHTQOdbHergoNyVVoJxdpmC1vU0GH5b1Od/Y+W26wP36fHTtfL36lTWd/dlv7ey9beqjm2XFph5BGStFIBqRZoe06eZ/uIRcTsZuo0VO3CVHHqatL6rgx7T3WssD7P6vxwjtDBHQsZ6d4AAAASKXB52j1oEqdFTlNtTCzTWV2wrp/7PSrpxh6EQAywd+uihavn0SRRlq4WW0VdrB7MpZGRxXa8/UVOrp6pU4dMk71Q2r0w+rxum/wBD1ePVZLB47Vy4Mv0GJbnqiu1b27jtf1g+19g5bpDNdHH6io1D72xUbY1/tn+NKbzI5Lp/mc7nnu2xoWUkghGsmANLv+ouflo2khSjGXjOnb8WP5Ptu7Vs4NDFH6RbrRXjN7wYtuRyMZAABAirmxalldoTrv9Q0LW4rZ7HFOe/aM9Lels3RsSAEAUiiZf6zpYf3DiocWMxvnpJfsOHBVIa8jhtRo76E1mpc0gu1br1WuXnF42yZJ3p88ZJL8+erxWvDi49rf53W0/R1X2+ZXiu/aKCevveJW/XzJFO0XckgZGsmAtOudn26vLxeDlHLqpdifEaKOMWbGDspF54Uo/bxd6lZFPw0R0Ak85wQAAAApt9dYtVTXqD52GmVhZhvK7BpyF3n9cvHlpT1vDQBg3Z6crR52rJpvxb2LmY3y9l9jzwrtNegCjRk2UR0+X/9Bc9Q2ZKLunLNcY3IVeoeXfhM2bYr9XZV+t3ia9ggxUoQbYkDavbLHCnn/2xCll4+G67TL9gzR1muJj7IvunOIsqBO3699KZSBjucd5wQAAKCsRU49QjHVnJMfMljzfayzLEz3A5Ub1ifyumVJQ/v3CQBIiaUztXevvB5IegaH1IYkvcP+6J0+MniIzt5+rFYkx7nips5RX6846V121XKdFHt93P6yv4ZNGzPQ5XTjC1dotxAjJbghBqTdghEFO1zMC1F6Jb3JqqLJIdp6TufYa1UxSDv/ohonfjMEQGfhnAAAAJQ1L2VmqHY3QoUhE3RDvqCP2zf2ekhnj1dvJ121dKYu9HUldD7rlAsllJk4l5X7EEDnCHX1d23Z6NCEzqngneauqdCHh4zTLcmxLWzqEklj2dDx+mX1ch3sva6y1EaHc7R/83vzbfr5a1PUP6SQAtwQA7JgzYN3yfs7QpResY7X2VOrQ7TlTp9yhF0sHROi9PPuJjvMMhcZAAAA0Jlc9obu27VW91bkdKJ9b4+FVDY5XdzUX9MeqyuRBgqfjV6JXSn27Te/N2s+oVIUF9QvFAH8j2SIxaZ++raXPhBS6+W9ljlp1L336AvJUMIh3S3a5zpzGmv/njEWLitmN+idzVX6pn2f9keQBjSSAVmwYEFBrr0XVlsxkVLODVHBHR6iLXN0XYWiKHkupSJk0i0ZcdnFPwwR0Hkiz9OuAABgk+Qq229kZ+8hLq8DX52dvRvcu1ygvxSS4aK8ngmpLEoax8YP6K/rXqpT32KqG3n1DKVUyUXdd0/BPp/2MU1/vRJV0EgGrE+vFn1cTme5jTQdWUWw3FafHDRO141YUOw9lvRAe2G6+jxmdfyWLsmfb6pT72fr1DNpsJs/fNN7/Q6p0ZrBNbraeZ1p4apidr1y9i1+ackMnUNDWTrQSAZkRa/e/7BDxqaOkVuq7MDhL1Rd3ZY3cO3e921Wsx0Yogzwt2nV7n8JAdB5/MZOUwEAAIoi334jPXuNZHZVtapVe4Vypgyr0TMur6Os+Gu76sri7+4Nn2rtpxuenK0dQ9zlbq9Thf2Mdwlhqniv1lDscrmcCnZBkv6eZPl0/u6BzrZ4qgYpp5lW3GCPX6uHXq9wOnnIeN0eUu2e3VZ75XP6zYD+unNLl7ZId/r+uq2yv27u1aZfHXaoblw6SzMXNejMJQ3a0/7ujd4XGVSjX+W9TrLiS8XM+kWRLnxhloaFECWMRjIgK7573irFbn6IUsy9W0v6fCwEm8/7z9jrdsUg9VrsBOLL7fPOAZ1tE04GAQAAEnFe+SzczF6HnvZ97R3KmVM9SUsLPXWGFe+0JavXGDk7qz2pV5t+uXS2tn4o/y3wtm11gK1SOdxi7LtvSLOC/d3OpXx0nITb+DxLQLl5rE5VUYW+Z8UN1steWpHL6ZSB4/SWKWWqvHrZ6t22JA/Gb9Fidcx7bH2oLcfYvnq8rYfbX1qTkxrt+P/v52bp/qYZOsWWHWzbOtnX8LuO1+32/nEWbuzBgqFWr17s5zNPZamjkQzIktXxXHt9rhikmPfnaGTd5g9Pcca3t7c/e26I0s/rbq1Y/XSIAAAoclE+lACgWxRitflsNpJFuUjvC+VMGnauXnfL9BHv9f2QyqZIh6ig3yyd2X5DtUvZ/pH0MEgllzyo2U2qclprn8v0n+MUb8ID+C/b9dexoVFqQwrOa+KgC/S7EHc1++t1kI90vR1D7lwyU59/8EpVhm1v8e/lSjoqfNm5DT90Yl/ztOeaNCKEKFE0kgFZsmDycnk33WrgtA+fcZByvXcL5U3knSqaz5dzWelFZjW0+7EW1HfbcBcoM1mYk8zZZTUAABuQzD9hZ8rJk8jYCvlKtWXgmmOd7Js6alOGW0qzwfVa/WLf9ifgv2XLmvZk1iS/Q693KdJPmma09+zqEkkdYx+eE0KYOnZF0ByKXa6loNW276X++td+/+9I5j4KIVD2koamWPqaFTd2/nXL4BWaF8rdKbJzgXc4p+/t3KxLljSs+999TL3yg2t0pY91U0itT87qtrEvfYd6oZTRSAZkTv7ndlaW8t5kbnsVolEh2DSjLttB3g0PURa8oJ69bwxloPP5DJwTeNdtT74CANJhm3z7UHqZbgDpCj2ThpWNPDmdYvs+Pyv7PUEOOkdtP1iuGu81OaSyyWsPO8v97ZIGfSJkOlVVXoPtZzoohKnj83o5FLtcj4JWOdd9Pdk6UFX/vjoolIGyt3Ozhts5QzLE4XpZvfm33q06zdWXVEN5zk4YJ0ReU30y1+Q62HZv2yfZv39FSK3Pga2rdXAoowTRSAZkzbC1i+1C4I8hSjH/JY2ctukT3sZRcrDJyiTbsf0OL2qfZw7ApnN+nSeuAAC8odXrQ6GYas4p38N133CHa9vabwalf+6gdcvFXhN8Xfbvl9TXKx4yXrMjr9MtfKWYzR4v7eSkq5KGsvXd6OwolcmNYKdNv44tJV75nLQyRF1u5x5abqts9Gys4GY4kHh5qrax+vfLVr9s7AGlGdtNbq8DtlRyTvSkLY9vYPm3Lc94rxdsnfRc3RTJEIwjn++//ka+QRO0yEU6y77ehhr4qpRTw/p6paH70UgGZE19fSwXTbEz3HTPEeDswOE0JkQbF7lv2Ot6xwpOmWfl8r8KZaCLRBk4J3ADQgEAgLdIbkxETh8JYdq1xd3YSLb7Gq20c/XVIcwc73T0kj7azOHf02tgjW5wkT5nxWwOvVi0nZNuXNq/fZjJTuO9amyVzvNqp7X5qPt6cbix7b3IkpvXqee8jvLzlf7h7IGt1FapfWy1XzFaNzuZeTi/YqNDFm5Mi8/pI7kKHbm+paKg9+edjohyOsSOeQfasf5k+8s3fu/NaZuC1OCT0nosW6Zf2uqOYrRudnx4l4+z8bBWFtFIBmTRvAn/lI+SCSTTzfuTNHrqNiFav5FTPmbHqgNDlAHuFg1teTUEQNfwPv1Dm6R4aBsAQOeLYr3NS/uHMO3aevTovuEOXb1iF+upEGaOk3bKVepTIcw85+QHX6BbbR95v4XJk/ZZ1cOWS5bO1Nc6Y26YpQ0aYXVMmq9L1/ZS9w53aPvefaGYavY5OGLhQu0YQqBs2YnKmbbaUO+pNblYn9utXmtDvKW8/WWvDhyrl9e37FKrl3Ydp+fteLfYlieG1ugX1RN0kv0b9/VeN4evs05WNx303Mz19ybbt16t9jW+F8J1smOti1x7j2baY0oQvxQgq6LCd+w13U93Ore/2vy7Q7RuY65Meo99vhhkRCG6or1HINCVXPdN0t1hnIbq7Mt3DhGQXT7mGAFsgTjSN52UlV7Hza2+e4c79E7/DMUscj7W5CdmaIcQl4VBE/RQvqAT5PVMSGWO1QGVilTf2qqZIdUhXp+lAfa1J4Ywlezfv7Klu3sTRro3lFLNfpb9qnL6vxACZSk8jHBWMVqvPwye0D4UYrcZVqN/vBZrhBVvL2bWzS7ATgjFdRoyVL/y0l9DuG5Oh/1D6h0ilBAayYCsalnzqL2m/cI1p8hdpuHz1z9MQevyXeWiw0KUfl6NunZ8lp/eRKmKfRZ6L0YqtJ4TykB2OedCCcAmSIbHWTJLZ9uO8+GQSj3vtbJHc/dObu/jjdwISjunbftE+n6ZzR/id63Vs7avHG3lDQ4blWrJ3DheY5bO1I8WztLAkN0qq2OdGkvvCmEqWV25It/ND85Fke61f0cm5jv0TmfZZ+x9IQTKztoWDbfjyYaPoV4/CaVu9e5aNecL7Q16y4qZddp3Q8OouhEqWP31lQ3WYU57DOinQ0KEEkIjGZBVN9SvUMF9K0TpFbkj1HPhESF6q0jn2+v2xSDlYr/Kfmcd+kQjsMlyWhhKaTdOJ85OhtIBsoyeZMBmWDRLuzivi0OYCS7SshdXd++waPmc/hyKmeWljzmnY0NYNgaP15I1FTrBvvdsz5Ps9JkKr5uePL99GMYtljSEeKdvuZTPkW3//hW79u7eRrJkSDT7d2Sll6qzunpsKANlxY6fydCCG5x/y3t7W0vpHGcqV+lF+3evt1ebHRO3XbpUVSFcpzWxHrI67NkQvlXykEakc0OEEkIjGZBla1bNtwr4HyFKrwqdprq6t9ZXZ07bw76/MSFKv8jdr16rMju0CUpcwT1nr1m48d5PO61hMlwAQLvnZmhYpdevrTi4mMkGH2vJvvXd29ti13Fa5KUXQ5hJTqqy6415TTOVnZErNtFeY9WSX6szvddVFtqvOrMO67Wb7lk8XfuGeLO8MF07eacrrLj+0U9SInZa7M4piV5cmWmAt7p6+OIZGl/HHEQoM0/N1jZ2/NgjhOvknBqrv6KSGdFm0DuVtx11RQjXpWdlYcP78t5D9bp93/eHcN1iffjV2eoXIpQIKmkgyxbUt9qV3eVWSvtFzQn65zrG7I180hU6Oz1GfOH7mlOf7nnkkF6VPnnaqVAMUi1S5JJ5Cl0xBACUqydnq0chUqOdCB8YUplh39NDxVX3sQOtt+XBEGbZjrFTY0cNy5cmwy7U60PGt8//fIktWe7FfKDL6bZFl2n3EG+SpAdaoUK/sf3goJBKu7+Edbeyii1pJMvG582pIoo09extNtyjBsga16b+VjfuFsJ1qpBmhWJpeEHO6h/7Z63XRu8xJEMu2j5/cwjXzannqtZ0D8+bRTSSAVmXc3+w08xXQpRW1erT9+xQLhpT19uOLB8LUfo5/7CGrf1FiICu11p40uqKbp3bpOP4D+vMKV8IAQCgDC35lvbqldctrji3UuZUeN0Xit3K+bJoJEvuiu1V6fWrLe1tlHZeujSWJtoPIrMP9NnveOdcD921pEEnhNQGvTxV2/TaTTd4n5kGMuUi3ROK3augx+wztypEWZBzOV313Ex9yj4vG73JDmRBj1h72Kd9uxC+ldNzy9pKa8qHp4oP4Q8qRm9l9dLattzGG/ALFbrTVht8X87pnaGIEkEjGZB1V9U+a1Xzz0KUXi6+TGOm9A+RHXX6HmOvWblIjRW7y1Rfn5EGCqTStV95Vd5lZGgTF9lZ5zSNms6EuABQZpIbkAsv0UBX0C8tTM4XM8dLy+8eqkdC2L1y7XNv5EOUafZzf4/L6WeLGrS7lcvqRveQGq0ZWqOZPtY5Fq4pZjNpsHP69ZJp+oTfwPB4yRCLa6vaG5Q+VcxkwpqBA0ujXlnbQ0/YKu0P+r6Z16DY6fqmBn369roN9lQBMsGOl0fY5379x0qvf++zW/fOrfq/eq3V7nYM2CuEb2EHhdeqq7XR+3ZDz1cylcWjxWjdYmnvUESJoJEMKAc51dvr8mKQVq6nWtwn24tjruytgk/Gfc8Iv1iRz/zE50iBKE6GZ80G7/rK+zntcxcCAMpGU4NOr+ilv1nxbcVM9jjpxyNGlMYQyYVW/cOrJOYw6hL2s98zkv78XINGbqgRJavuvU83eq9P25LcAMwmb1fPOTU29dPY/20MTeKlM/WBfE63Op+5XoV3JsOEhXK3SubDi5yuDGGW9LRP1DV799ecZ6dpl5ADMsmOE+8JxXWKvRZf/I/Sechm8VQN8pW6zv7d651f0o4B/9jUetK+zgbv8UVRtubKzQIayYByMHfSc1ab3xii9HLu0+3r1uUfsZPLDY5tnCpOP23/HQHdbe7kW+x1UTHIAKd3KXK368wpDGUAABn39BQNXdqg67x0jYU7FrMZ5BUXYt0Uom43ZKKesePtYyEsC07axT5nVz/XX1e9eLl2DumyMGKBCkPG62bvdYqFrxaz2eOc+tkvusHqlIsfq1NVknt2lgYsndk+5ORtFmZrLhmX3PtVaQ39v0zfttcsDbn4hl72wx5VWam/PNegT7z0HfUNeSBb/IaHE4ykJfX1Gx+6sLMtaVCvF2drD1elH2/k4YfYvqffhPJG5XLtD2ytn9dOVhesv6cduhyNZEC5iPx8ey2prsybzekYnXXZnnbV8tmQST/vlsn3mhIioAT4TT7xSwc/RFH0C5057QwNH77ep8KAVIlL40lvoBQ8+x3t0jRT03tW6Q4LT3NZv93gtCRXpX+FqNvZjzu5uT6tGJWVZHL/UW0F3bV4hsaX243uoRN0l4t1hP3+HwqpLEqqk0n9++u7Sxr0uSqv2yxxSdiWKfZhXhWptOYXHFyv1fbzzu6c3V5D7WTuxy1rdat9vs5qqlPvsAVIvaTxx0UaEsJ1su3PhGJHcflYOz1zuXZe15L03nxhunZrulz7NM3S4Ysb9NklMzXF6vmbW9r0oNWDR4Svsz53Dh6iB0J5o9ry7edqyTnS+my7wa3ocjSSAeVi5eo/W/38ZIjSqpfiaLa8/1CIUy65to7nat7Yl0MC6H7OZfFiNJk0+Afqe1C9zp5abXVh1m+hIvu6/alLoDu9MF19ljRov6YGfb2yRY9ZrT7BTqqyM8rAht0/+NXSGupu8AX6ia2WFKMy47R3FGlGS4v+vGSWTkzmqgpbMm/wBD2eKygZ6ePvtmT1Vl8PO2k8y5Yb7BtMhg7L5ANXsddLrqIER5OINd9+9pmd89C+t0rn9D5bX6X+embJTE1aPF37vj5LA8JbgFR6bba2sVXPYrQersPnHexVGelfVbFeWNdSWaHn8zk942M97r3ujqQbbf+bZH/u6MhteJ+z9y+3907YnCFpowqtsOPGeucvs239QxElgkYyoFwsqG+Vd+daTZzyCxh3oh1M+4Qg5fxKu876UQiA0rCy+Q77bG54aIA0cslQOe4i5d1dGjVjssbU8bQmAKRIXZ2iphk6YOlMXdqW0x+ddJed1Cbz7m5ffEd5iGN925XA8ET/zRWHastYT/TNY5/HdzmvX+dz+lNTg2YsadCeYVOm7VKrZ9es1QeseHMxgzRykf60y/kdfsN6q63M63bbuV4IYaZZJbqz1aVTXE53N3vd1TRTVy+aqY8+PrW9sQFIlZWFjd+z8wU1h2Lp85ry72V6NESbJM4rb+cG620ks209L744WaFU0EgGlJPGiX+y13uKAUrA39S8MnuNEUi3pEHdVZ5tpTXFRMa0z2foL1Vb339r1NQLNXLKfho5b8NPuQEAuoyfrR4vTdMuz83S25PhcJoaNGppgxo/30//9jn91erxC510sL21HJ+0/2MyzF0ol5Q40s9DsZwl91f29tJ4+4w+YZ/bPy6eodHPzdB7np+tHb3P5s2wvb6il3u0tc9RNt++97ZiFilSsA/mFaGxu6S8bZJW+lg1ViybYabtd5H0LtnPO43OOf2qT4WWL2nQA1afzGiaoVOsTjnyhW9p36VTVf3qbPXzdaoo/kmgdFTGm/C5jLQ6lEqWVYorbPW1IRM05Zj6zevVavtv8v4NHRPZd0tMJk/SsEWcRk1LnhzarhimlHcXq7E2eaIU6zNy+jly/vshQndqiw/X9ZNptNyQkdPvt8/re0OUVsuVq9pHV13wYohTwC7LRk5dIBd9KiSy7DVbkidUfyeXu0Zzx9NwnWVnTDlRudwv7DNeGTLp5N3X7Xzn/0JUMvx85Z76R1Z6e6MzRL3kXIUG9Mhpe7v62L6Q1w7KabtIGuxiDVOkIbFvj/vY9j7et8/z1Kv4p8ve2kKsk4ZN0K0hLilPzlaPnnn900m7hxQSTt4+xyvl9WoU6Wn7+dzhvO5eVaH79hqb8vmi/8eSBvWy7+8yK365mEFK/HnwOL2/FBvJEr5O0XMDdKftRxubL6hcJPVGs/2+VtnPZK2Vkwcbn4+dFuW8nrNf4kvhxv5rlZFet2PqiqQvS7OsHjI9K7V67fLsDmGJTdezv9qG1HTOg7HPzdCwONLCEK6THQsPHzx+8x7iXzpL+1tNdbsVO/dBqeKx+6/2bzx/8Ao96DazgSyRzH0WF3Sv7avbhtSb2Nd+ac4KDawvsdEByhmNZHgDjWTlYvTUQYrdv5MbDyGD7uD1BzVOPC5EWB8aybrPWTOOVKFwq5yrCpny4PWsfc8PyMUPKo4et1PWV1QZL1PBvW6Xl8vUWJ9cjCKtaCTrVE0zdZidX9zpeTIS6Az3rVmuD+1V337zsyQtma6jXU6/s2J5nTtsmeSm2EJ7eSayxerN5IGd16wOfcW2rI1yavMFxbGt29+dEs4rsmWCFY8tZlDKnJQveH1+6Hg1hlRJem6mToudrgshgI7gtWDwCn22M4Zwfuk72qW1Rc+HcJ0KBR0/rFa3hXCTdGYjmdWHzXYsThr2/um9fly9Qr+yn816h0vcmEUNemfOzt2smDzwtS7P/2C5qmkkKx00kuENNJKVk9FTL7afVV2I0PUK9vM/wz6rPwwx1odGsm7k7bgw/SIrlNyN+C4TK6+o/WnN5OQ4WdrspHyF/WyW2fp1O3S+bkfP5XJuE25Y+oK9d9PGXfdx8qRa147R7l0PRa77h52MXW/7OXViA0u8h/3ePm2FdA85TiMZUG7iWDpkaI0eDHFJ8l6uaZb+YMVjihlsodglv/NkLukS7d2zEc7+/el+GKV8PN+W14G7TSzteb98naqW9tef7XN1UEgB2Fqd2Ej28lRt01K54Yd6bH8+eXCNfhHCTbKRRrLk2Pm4HTTfMjyrdxrk/HrnsL2vEKs2V6WFbQWt2nWwVroRWz/E69KZerd9k3+xYo9i5s3s3/lM9TjtWaq9eMuRfX6AdjSSlZP2+Xdefsp+64NDBl3J++dtlztQjRPLYhLirUIjWfcac2VvtS1Pnu46tJgAUBJoJAPKSXLz5PLqmvZ5eUrekpn6lHO6KYQASlmkr1VfoG+GqKQ9M0PDqiI9YMUdixkAW6UTG8nsxMUtnanVdj6w3ocw7T3nDKnRnBBuko00kq22rznEvmYyncKbhD93hxWTOf/exP7MijjWscMm6K8h1SGem6Ej46j971xf28sjg8fpQBrJSke6n6IFsGUaR62Vcz8LEbqa9w00kCEV5pyzWnHh/PYRuQEAQHd4pTXWt0K55FWvUHKNcWcxAlDC/j14UPsccqmw+wQt8rG+F0IAJcwp6by1kTnJnHYNxU5XPU6P+MK66zv7d/aryOmWJQ0d22kkn9N+ttpQ56RkiGWUEBrJgHIV+x+FErqS9wu1uuo7IQJK3zUX/tXOYMdYaXUxAaDbORqugTKxynb2M5KbwyEueckT6c7rdCsuLWYAlKC8nUn8X0cMKdaVWvNqsNU9xQhAKbPzl3+E4jr5WEN9XRe2S+R0vdV7T4foTezfuoO9XBDCDhF57RuK62R/5wtJY2IIUQJoJAPK1TUT/2zV8Z9ChK7i/PVaULMmREA6rNp1nn12bwgRgG5HIxmQdcnwO95pxpAa/TakUmPweC2xWuqqEAIoMVa/PFndVz8OYWrsMVnL11To5OTmckgBKFGR2+g8qsOe2r7r5q+086mmXIVqQ/hm3qpFpwufndWhvduODut1czxMVGpoJAPKWZQ73w4GNNh0nYL90BnmEumzYERBLasnyLf3QOXmPAAAncwOtjfbyxUhTJ0ePTXTe/0uhABKhNUtS2Ovk9w5agupVNlzrF7xcfscjR0+jxKADhTrbm1ovi2nvQasUVWIusTAL+vnzunGEP6viopYv3pqunYK8RZ7boaG2Te+TwjXKfL6dyiiRNBIBpSzlSv+ZQeme0OEzhbrLs2b+FCIgHS5oX6FqvwX5D11BgAAnchLfx28TCeta/L5tNjpPK3qUdBIp/QMFQlkXvGG9cVWtzxVTKRPMjzZ0Am60Xl9xcJUDRcJlJM40rNW47wSwrewfXnntZV6ewi7RFJ/tEkzbL0ipN7EOb2zh9PIEG4xH+lY+zvs//WLpL+HIkoEjWRAOVtQ32oHLYZQ6wqxXyVXOTpEQDrNmbxcFfqMfZ5vCRkAANCBvPS8XaWPTub2CqnU2nGiXnTSOFvyIQWgO3lda68/LAbp1rpC37LV1cUIQKlpbmtviHq2GK3Xuoc/7ETDlukRO9eaHcL/lQy7OHnpNO0f4s3m61RhX//EEK6TnRetjvvosRCiRNBIBpS7F3veYCfLTSFCZ3HuFjWOWxgiIL2umrRUPXJnWOke+2AnT6MCAICO4PV0ZUH7D7lAj4ZMqjn7jgbV6Gfea6x9b60hDaAb2Fn776prNHJITTamW9itXmvvqda5Vs/8wjl6lAGlZp9JWmXH/ydDuE62/356SYMGh7BLJA8hWV34NSuue5Qnp22V03WvXan+IbNZXthe23rpPSFcJ/u53DT4HK0OIUoEjWRAubtlbIudMV9gJcb07kwupscesmPOhFeknifb6d11FlF3AACwlbzXc1GFPrNLrV4KqcxoW6F5ivTdEALoev+OIn0hlDNjxAgV1rbqTKs/fxpSAEpE8qCMrX5bjDboI2HdpazeuNRW625gd3pb8yqdGaLNErfpUPveh4VwXZL7J98rFlFKaCQDYEeHqtvs9R/FAB3O6wmtWsPwdMiWeWNfVmX/L9oHPGkoW1tMAgCALfCwz+u9g76sv4Y4U5IeH4MvUI0rDo1Gjw+gKzk9VlHQ+weOUyZHNdljspa/8LhOteJ8q2MY2hUoIZVxe2/y5SFcJ9tvPxOKXere+/RzL/0phP+rwv5dly6dqb1DvEmenK0e3mmKFXPFzDo98WrMfGSliEYyAFLjuOSgNa8YoIOtldo+2z7/G5A1c85ZrcqnP29nE+fJez7jAABsJuf0O+f18aGT9FxIZZJ9n35lm8Z5u/IIKQCdzemJqkifzGIP1f920By1rWrT2Va/TAspACXA6p7myOn7IVyfI56bseHhCTvDiAUqVFRohBXXPf2MUx+rU37w9JRNH3axZ16fstXbi9G62de8+12rsjHsbdbQSAYg4eWbvyfv/x1idJxbtLCVCTmRXXPmtOnqiXOtdJTVJPRIBbqC50lpIO18MkeXU6N665ODx2tJSGfa2yZp5b3VOsd5fYd6DOhcTvpTLqf37/TlDc8JlBVJ/VJdo4ucU62FK4tZAN2txetGW60qRutUVcjpxpenapsQd5mBY/WynY9dEcK3sPrksKoqfTqEG/RsnXrauc05IVwnb0su0k+SedGKGZQSGskAFDXWr1XkzrcSvUE6UsFfoTvquQmA7GucdJ+9Hifvf2Bnf8n5H4BOw3UVkHIrXaSz25bpi+U2cXsyh1Cc3MR2mmwhlRnQ8WKfNETH+mRyAzjkysa/l+nyikjHWzGTw0sCadOjb3tD/aPFaN2c114tFfpcCLtUPtKV8uvpTSZV2LYZTZdrnxCvV8UAnRY5HRbCdXLSfa+9rttDiBJDIxmA/1jZfI8dAO4IEbaan6drJ3EARPlonPiCGieNsdO/5AmqsnhqFegW3i4lAaRRcvP6r7Z8vHqcrkvm6gr5sjKkRmuqazQz9jrLwleLWQBby6l9WMWvVa9QzeAJeqWYLS/H1Cu/ywX6S+T0Yatrf28nTG1hE4BukDwMZMf7qVbc8IMxTuOenaZdQtRldhunZT5uHyaxuZh5M+c0wLbPemG6+oTUWzw/W++wq7NvWX1TEVJvYfXRGherdt96OiaUKhrJAPzHgvpVKlReIIY/6QD+KeXyF4YAKC+NtVcp745obygGAAAJ76WZcauOHzKep4gTQ1bo2qq8DrUiwzUDW8l5/TMu6PjByzXFcRNWg8bpX9Xb6eP2c5kYUgC6iR3vfy2/0XOffaoq9dMlDeoV4i5TPUH3O2l+CN/Czt+Oy0f6cAjfxE7uXL5N063Yu5hZrweeXznwoVBGCaKRDMCbXTfuX3LuYisViglsEe++rasuyvQEycAGeF1X+5KGrj5bcfsY3ve0n1oCAFBuXPsB8H5bf2xIjSYOu1CvFzcgmZNjp4l6sofT8c7rKuc2OGcJgHV7zXvNqBqg9w2p1aPMdfMfbpTWVo/X5VYJH2I/o98lTyoA6HpJveQjfdOKG5wv0PbRgyOnZBqYLmXnHz7fqpluPf8+y1fay3eWztTeIdXusTpVLW3Q1+3PnxhS65O3rzH9oPrny2qI7bShkQzAW7XkvysfPxEibDZ3i5p3/bYVOA1Heauvj3XNxJ/IN3/AdofTLbO8uAEAgLKQt7PB8XZCeHT1OP0m5PA/dhyn5wet0Dk+r89ayIgWwKa73eqXd1Wv0KQdz9rwzedyNqRG9y9foZOcNMLCZcUsgK507z36k/f6dQjXJxd7fbNplk4JcZcZNln/iCJ9KYTrsqNzmpI0jIVY2/bX6Zb7uhWtelk/+76/N7iG88BSRyMZgLf64YWvq7JipF3U0xNqc3m/0C7tz9OCEfTEA97QWL9W8yZfr0LrO20fqbfMouIGAACyxzu1ea8b5PTe6hrNSubgCpuwHslT5tW1+k2uRXvZz+5qS7UUtwB4k2Lv1HudNNoKH7H6pYneYxuXzANUPV4L4rwOin177zLmQwS60IgFKkReY23f2+Dc5UmvLR/ryqbLdVJI/X92frDKlnuseOf/LvZ1715bsXUP2sSv6yarYRut+Javnyz2d/fqv52G+TpFz8/Spy1OhlnccNuK09O2TE16q4UMStQGWzpRVpxGTUsmdt2uGKaUdxersTa5AYuOMHLG6XJxMqdQrpjARsX+NF0z6YYQYWuNnH6/nH9viNJquXJV++iqC14MMerqIi3sM8FOJ79hUY9iEsAmi+NJumbytBCVjKaZOszOKJOL1P/X3r2A21XVBwL/r3NucsmDxIAQ8uIhg6LQWiytLVZFrVNHUXSmUBw/lbS2VlqQ3DxA+s3EO6OtPJIU1OkHUkmw6pSonU5tR6sWGF+fDjqjAorKMwlEnknI+95z1qx9z2Y6My3hkdzcc879/fLts9f6731z7z1377XX2f+9137Sh1ZDv8vVc4FSvPGYobirDvEsbL48jhttjl11/cJOBCgeKm3MexYOxeeccN0/Gz8Sh6e9cVV5E6s7WN1AwOSTY/2CbXHOwU6yb1wTbyjf+7Ol+FTnAVpl/zxr0VD8VV3vGhuuiLc1GrH2aX3myXF2laCva3QxBwLgybXy5yK3r61r7NtItNv/IdZd9Km6DjyZzjCMl0Wj8YJIeVnpOX6ndB590Aegl/1DasQ5U9rxyxJk+++o5XH3SIrTcjsuKNV9XnUO/Sx3esg3pXb8bnMgTlq0ND4rQbb/Fv5hPDJ/Ybwj5Xh5O8XVJWRYeDgINk+Pvy8N2KWl+FTtWDNFXL9pdSzPV8eUOjahbv1ozNy4Kv6otMF/Vn74fSbIys8+Wtrv4QVL4zN1iC4nSQY8uU8s3xFrL/790jM3du5TyfkfIs39k6rUCQBP6c+X3Rsfv2hVXHfRqZFGX1X2nttL1PBK8FQaDcMqQXcYLR2/n6aI1y4citcsuDD+8qjlsaNexn46bklsWbQsPrxgSbygvM8XltCj5b3W/jGZfC93hm191YJlce28C+KhOs4BkM6O1oKl8Y2jl8Tvp60xP+e4ooSrZJl2BsbJqe+OkUVDsbIUP9eJ7NPMcvy/bOP2uGHLf4o5deygKz9D2nx5zJi9J/4iUnygTIfWi55UO8c3Hm3H5aXf4hxhj5AkA57a1Hxeef1up8I/keMLkaa9PdYu3l1HgGfquktujmN2/Fy00qtK7d/VCTMA6D45qj7f+nbEbw4OxikLhuLLnQWMh+qumUVDcWWjHS/JEctSxD31IuhrOcf/KNv7bXWVcbRgOHYuXBorBqK0M+14T2nnbyzh/Xq+EfDkUo4l5Zj+7bq6T6kRZ27fHV/ZuCrecbDvKrtxZQxsXBO/02rGLaU9PrMO71uOrwy24rde7MKpniJJBjy1ay6+L/KOl5Ve+tM6gE0qOf/P8ro4rrvAVX2wv6phGK9f/s24bsUHYu2KkyOnV0U7Pl+WPFimkbF1AGBiVFcCP1pePtXcGy9cOBRnHz0Uf33kH8T2zmLG2/xlcW9539fMXxLPyzl+L7fjzpRiZ70Y+k7Zvt9VZp++80MxuxNhPFV3fBw1FHctWhbXLFwary7t/UtK+IbS3mwu5b2dtYADYcHS2LBwa7y87Fu31KEnl6vdM04p667bsD0+c/+aeOGtK2NqZ+H4+MlVMbj5yjj5+bPjH1KOj5XvfWK9aN9y/Kj8sIuPXBGb6wg9QpIMeHrWDu+OgcY5pev4rTpC5C+WVvSMWLvCwQ8OvBxrl98U61a8MaJ5aqm9OVJaXdqgn9bLAeBgqIbd+ma7HeelRpy2aCjeNu997mSaSGN3li2Njz2a48Xl73JGCX0sRWzrLIX+Ut25MDg1PnP3mnhOHeIgKe39DxYOxW+NtuKUUj0zp/homW8cWwjstzQ8lnx+azmu/69OZN/KetFI8aZ2jm/Nnh1/tfHyeENeeWBzG3dfF4fcvzreMm0kPtNqx9dzxMvrRU+prPvVVoo3VAnAOkQPqTKxUEmx+LKHy/ywTrVH5fT+WLt8uK4xHlaubMSGmZ+MnM8utcmZaG9Xwy6kL0UeeXtcf8kjdZTxcO7l346Uf6mu9aqt0Zz6grj2wp/VdfbXb196arTyvy095FeXfXFuiVTHrnG9kgy6SsrLxp7n12U2rYrTSo/y5vIBcZ8PsoYeUA2nWF0E9aXciI8sujC+Pxala919WRzVHIh3lQ8n/6ZUjy1t0ez6ynPoCznH3WkwXrfwD+PHdYgJkFfGwP2z49Xl7/Gu0t85JaV4bglXd/ppb+gtOdYv2BbnpOGJfwZfNaThCbPir8peVF348kxtTKWv1hqJv20PxCPbt8QjJ3eSb09LNXzjg7visL0jMTcNxBtzdVFUivn14qelrN8qb+I3R0firOPcQdazNOI8QZKMp++sj86MGY//TqTGH5fa9E5w0miPbWc7mlfE+qFddYzxIknGvpy1elrMGZ0fe/Kx0Ui/Wo5kr46cX1YOaRJm9LuhuG7FmrrcNSTJ6HU5x11l9rmBRvztnog7jrkwNqdUXRhMr6gerD86ECeUv9prSnt0bgmdJFlGH/lJI8WZ85fED+s6E6QcL9LGNTEn5VhUjhPV8xJfX6ZfL42NO/7oDV2UJKtUd8sOtOKSaMSFZT96Ns8dK1232FT2ww3l63/ciNJONuL2Mt/SGo2tpSewY2Q0ZjanxKGlfHjZd08s+/ELUyNOKPOF5WsWlK+fNvY/PUPle155yEj8uyMuisfrED1IZ5EnSJLxzC2+4jci2tXwZy8ob36zjvavXH0YGV0Way/5uzrCeJMk45k6a+XUmDbrZdFsnxa59dKIxqKqExztPCcaaUZZQ9+HfiBJBvtp7KrfdjxU5vfldtzcbMQN87bGd7vlZBH7rxqCacOh8YvlwH9WaowNl3RsKR9Z2qjJORoG/SHFrtJunbngwvhSHaFL3HBDNE/bEL9U2pvX5RwvK9P88rc6siw6vEw+g9BduixJVqmSzxtWxzsbKVaW6rGdaFfbUPbx91+zJdYO6z/2PI00T5Ak49lZ/MdHRLu5pHzUvKhsRv36gXNv+d2uiSl7/ziu+aMH6hgHgyQZ+yWneNuHD43GzudENGfFQFoQqX1KCZepfVJZ4fmR0rO5Sg0mmiQZPDutMn2vbKOfL9vqje0c9w1sjc0LhmNnZzH9atPVMb25I44ajTgp57Hnn7ypzGeUOfSiasj/8xYMxfqyCZcmjW4zNnzcETE7t+KwxkjMbad4WTnu/Goj4lfKH6waLh4mVhcmyZ7wwJo4tpXjqlJ8YyfSXUr/oTqL/oXBiPOPHArPTO8TuoQ8QZKM/fPOD50Ujea/L3+E3yi1akzufrCj/D5fK9vVB2Ptiq/WMQ4mSTLG0+krB+L42cfGSPuEGMjzS2/36Ij2wsiN55aj4syyxrTSBlRDys4oh8nB8kFisMSrpFrpD4/NJdiYKJJksA9lGxwpH3QfLNPmUq6eDfHTnOOrA1Piv8+7IB7qrMVkVt3x8Wsb47RWitemHKeW7eToRsSiMp9VrwLdbk9p7JYs2BZXuwO2d5Q2Jt19RRw9tRE/X45RJ5b6SaXvNL/8BavPH3PKCrPLvDqf4o5XxlcXJ8kq1b6y8Yp4Sxq7ID9OLVM37BOt8oPdmlJcOX9rrNP29hdJMp4gScb+q4Y5mzX9+GinC8uB47fLVtWbJ8naMRqN/F/LbvHB2L7j1lg//LQf+skBJknGRFi5shGPHj4ltuwZiObAlEi7pkQeaEZ7bzOa0xox2h6IgWaKPNqMNDol2lOnRXPv1HIMelZjmHMwNf+wvLylU+5pkmTwj3L590A04rZ2K24trfO3Wq24pT0ldh7ajB2HPRI703Dp28GTuHVlTJ09e9bMgbRt1mg7XlRCr2+keFWZP1971rXaOceWlOLhctx5qHx++1mZP1zmD6aBsfrD7RzlzxirSrwa7q5f7c4pPrJwQVyczh67U5YelEsbdNe0mDZjdgy2dsbgaIpZzRwvKtvv89opTiirPL+aSr3alp3H5cDo8iTZE+78UMwenBJnli3/0lI9qhOdEA+XPsHFM1N8ds6S2FLH6CMaV55QJcm+Wea9/ZDRdnw41q34aF1jIr3r8uNitL24bFkvL5vXS0qku6/KzLGrvP6gzL8e0fhkrFv63fJzl2MgE+rcy24o29DP17Ve9Xi0Rl8X119SDYsCTKTFl15Z2vYL6lov684k2RVxSm7EJ0rRSWWesZxjJKVolc5XdRdYdcJmpExVcmt7mXZUU1n+SG7Ho6Vv8FhZ/752inunj8R9HpTOeHhsTTxnV46fazfiRdGqhmiOo8v2Obdsn88tiw8v88Mk0Z620fJeVcOa7irv266y/+4s82qf3l3iO8qnrt3l/d3ZLvFGtX9HbMsptpblW8uybe3R2FLiW0cbsbURsWXh1tj2dJLfGy4vnyOasa78Py8un/PKt+w/5b2q2syrtmyN9588PNZe0qfyVTG4KeKIcnQ8vBz/5jari9xTHF62geekdswqfbBDywZRj4YRh5Rpetk2ppTlT4yCUd2JU7VZ2i2qtuMLpS0d6pW7oTatjOntWfG2sk2/tVRPLdv+oZ0l42p7eZ++08ix/vHRuP5E/c2+1pedBJ6lt18+I3Zv7/VtYq+7frrM+VcNxtbtM6M5cHY5Ci8ukepg1kXbWf5paQo/Fbl1XewY/FmsH9pdBTvLmHBnrS4d/K2l/9/DDpmZ4xPLdkq6QheQJBtX1fBlpz80dmIGnrH2ztIbmxW5vaPTDxvdGnn08MhbB6N915ejffZ6d0kwsXJp4+65LabMiBgYmB/NnSMx0Nwbx7cacUwaiWNzM44tq83NKeaWXl81bNqssZN4VXKmczKvH4dPK3tqPFB22gcbKTa3UzxUfvdqmNMHy/Sz1IrNU0p5dFpsaz0e7UMPi3ZrS5ka0a6GWJi1PVrHzo/WTfdHPr00A+NxsnbTqlhU/tMvpzR2N06/apf3+4uDW+PsIyXKJrVctTfro3HbbdEcPDzSwCNlmh2pMSNSc9vc1Jj+M+eBGbNjeowetziq81895SdXxeAho/HcsiGfU44/55ct/ph60YGTxy7W+Ej5v6/ePRAPn3BB7KmX0Mc0jsDBde5lR5Wm55cit38+Gul5JXJsOQAdU3pzc0u9uuppPFQHtOr5ExvKdHf5CHF3+V63lY9g345jd9wdw8M9ceUMAPtJkgwAJp3qrsDt7fh4SvHmUu3L82Dll6oSZX/bTHHBvCVxTx0G6FsbVse01IpfSAPxktIAntJI8YLIsaC0hfPK4upuyn0q6+0pbecDpXB/TvHD0pB+r9Rv2bIlvnPycLgBY5KRJAMmVvXsn9tvT/HQi1IcNzgnYsqLI+fq4bULy4FqXqQ8P3KaW8rTojN8wEA5lM2M1GiWzwHby7JWacoeL/E9kdoPlvKmSOmBSK0Hop1+HM0p34/mjHvjsTnteNFtOYaHy3GwrA3A5NMvSbJWOj+uX/6RugYAPIXq7oNpo/H5Uvz1TqQ/5XbcMXUgXjn3wvA8ZGBSySujsf6kSGc9Fo3Ne+KE1mgcX8KHlem5OcehOWJbI8UjkeLhatjuhVvjh3FS5LitTMORk3OFk5okGQAAk4MkGQBMWjeujIF/MSv+JKVYVof61W2pHb+/YFl8ra4DAPvQj2NiAwAAAMD/8arhGF20NJaX4rIUMdqJ9qWTciM++8DqMndxPAA8JUkyAAAAACaFhUOxKlK8pxT7OVF2ZCvFzRtXx1tzligDgH2RJAMAAABg0liwJK7NrXhtKT7SifShHIeniGs3ro5/nVdWz/YGAP45kmQAAAAATCoLl8XNOcVvRo5NdagfTUsp/vPG2XFJXQcA/j+SZAAAAABMKilFXrQkbmqleEWp/rAT7UsDkWN446pY9aNL49A6BgDUJMkAAAAAmJSOGYq7BiLOiBzfqEN9J1VPJUsxNGNKXJNviGYnCgBUJMkAAAAAmLSOGoq7mnvizZHiS3WoP+U45/6NceOG1bGgjgDApCdJBgDA5JCjXZcAAP4f8y6Jh3KOc0rxmjLlsWCfqe4oyyl+rRHxX+7605hbhwFgUpMkAwBgkki76wIAwD+xaCge3bI1lpbi1WXaOxbsNzlSjjh1ao6v33NFnFJHAWDSkiQDAGBySLGrLgEA/LNOHo7tW7bGe0vxkhwx0on2oRzHDzTj8xvXxK/WEQCYlCTJAACYHHLaU5d6W6PVH78HAHSpk4dj74KtcWUz4qIcsaUO958c88v015vWxJvrCABMOpJkAABMDim36hIAwD6l4RidNxR/miLeUar9OfRixxE5x6fvWxV/kKv77gFgkpEkAwBgcsgxtS71tpRG6xIAMI5S6T0sHIq/Gc3x+tKPuLMO96NDGik+tPHyWHbryj7pLwHA0yRJBgDA5JBiTl3qba3m43UJADgIjl0aXxkYiDfn1MfPKIuYmZpx6XNmx5obV8ZAHQOAvidJBgDAZDG/nve25qgkGQAcZEe9N26dMhrXFDEAAA37SURBVBAvKMVvdCJ9KaWI3zthdlyzYXUcVscAoK9JkgEAMEmkk+pCb2s1t9UlAOAgOur8uLt1SJwROX4Uqbz2ofJLVXeRLW6k+PSmq2N6JwoA/UuSDACA/veeP5kTkaurv3vfwCH31iUA4CA75rx4bPrM+JWU49N1qC/liNe2t8cXNl0RJ9YhAOhLkmQAAPS/3c1zy+shnUoPy7ErPn7+/XUNAJgAh707tn59Ybwj5/iLUh3tRPtMjpRSvLzdiM9svjyOrKMA0HckyQAA6G/nfXRmeX1Xp9LjUjxYlwCACXT22dHaPWWsfzFcpr4cerGSIk4abcYtG1bHK+sQAPQVSTIAAPrbzh2vKK/Hdyo9T5IMALrECRfEnoVD8YFox3mlurMT7UuLUsTnNl0Zp91wVjTrGAD0BUkyAAD611k3NCPFxaU02An0uJzurEsAQJdY8HhcGzmqoZ13dCJ96bBoxX972UvjnXUdAPqCJBkAAP3p966eEtPv+VApvbwT6AOp9eO6BAB0iTQcowuXxvrUiLfkiAfqcN8pv9us3Ig/u3dVvPvulX3wrFcAKCTJAADoTyOPvT4auRr+qI80flQXAIAuM/+98eVWO94QKe6pQ/1oaiPFh6fMjg/UdQDoaameAwBAf6iGWJx+7+si5U+V3u6sOtonGifFdcturysAQBe694p4UbMRnyzFX+hE+lPKce3eRiw/bklsqUMA0HPcSQYAQH859J63RaP9yb5LkOV8V2z/1h11DQDoUscsi9ubA/EvI8eX6lBfyikWD+T4ZDb0IgA9zJ1kAAD0h3ddujBasTxynB8p9V8/N+eLY+1Fl9Y1AKDL3X1ZHDVlSlydcpyR+/hC9fK73TS6JxYf976+HmYSgD4lSQYAQG9bubIR90x/azRiTeneHl4i/XcSKsfe2DNydHz6j35WRwCAHpCvisGNI7EqpfiDOtR/UpUni7sarXjN/GVxbycIAL3BcIsAAPSmt18+IxZf9ltx34wvRkrrItIRJdqf/dsU34xDn/toXQMAekS6IPZMacdFpbiqTLvGgv0mj6XJjm8344ub/zReWkcBoCe4kwwAgN5S3Tl234z3lq7s+yPyzBLp/wu/DLUIAD0t50j3rY73NlN153v/yu3Y22jHGxesiL+vQwDQ1STJAADobv/qqsGYO3JKROulkfIrShf2NSU6u7NwEsgxEql1Ylz3vrvqCADQg/LKaNw/O96ZU7wv56gu9OlLKcVDzYj3zlsSN9UhAOhakmQAAHSJnOKssxsxZ04jdsybFgOzTo9G65zI7TMjNabXK00+KT4cH19xQV0DAAAADhBJMgCgY/Hq58VAHqhrMP7ae2dEq3FM6ZIuGptSnhc55pV5FStTTOmsOInl/EAMxC/HtRdtrCMAAADAASJJBgB0nHvpnZHS8+oa0BXyuth+y+/E+vWtOgAAAAAcIP3/kHMAAOhFObZFTh+UIAMAAIDxIUkGAADdpxW5sTzWrvhJXQcAAAAOMEkyAADoNil/JwZH/7KuAQAAAONAkgwAALpJO2+PdloW11y8tY4AAAAA40CSDAAAukWOVjSjGmbxq3UEAAAAGCeSZAAA0DXaf1dePtkpAwAAAONJkgwAALrDd2PvrHfGxy96vK4DAAAA40iSDAAAJt690W6/Iz513mN1HQAAABhnkmQAADCRcn4smulNse7i2+sIAAAAcBBIkgEAwMR5NHI6J65d/v1Szp0QAAAAcDBIkgEAwMTYGrl9eqxb8aW6DgAAABxEkmQAAHCw5bivTG+MtRf/YKwGAAAAHHSSZAAAcFClW2POwImxdsVX6wAAAAAwASTJAADg4GiV6fpopDNizdCuTggAAACYKJJkAAAw/nZHzsNx3Ypz48+X3VvHAAAAgAkkSQYAAOMp5+9EO58Rx+z8YFXrBAEAAICJJkkGAADjIu+MnNZFq/HKWHfRV2J4uF0vAAAAALqAJBkAABxYufz7drTjTTF11u/GJ5bvqOMAAABAF5EkAwCAAyNHzg+U+X+MHQOnj909ds27RzqLAAAAgG4jSQYAAPsrx97I+cpot06P61asjPVDu+olAAAAQJeSJAMAgGcr50cix2ejkX4x1l60JK6/5Mf1EgAAAKDLSZIBAMAztydS/lik5ivinh3nxMeX31rHAQAAgB6R6jkAMNmde+mdkdLz6hrwT+QypTvK7O8jt6+OdRff1okDAAAAvUiSDADokCSDfbk1GumSmDr6tfiz9z1WxwAAAIAeJkkGAHRIksE/asdoNOKH0c43R2p/Nu7Z/bW4aXi0XgoAAAD0AUkyAKBDkgwqe0oP+TPRjisijvhRrD13T+kyV+MsAgAAAH1GkgwA6JAkYzLK0So94u+V0i2R2zfH6OCN8RdLHugsBAAAAPqZJBkA0CFJxqSRcrTzHWV7vzrmNK+ONUO76gUAAADAJCJJBgB0SJLRj3IeLV3en5TS7WX6bun9fj+i+b24bumGseUAAADApCVJBgB0SJLR21plGol2Ho1G2l7KX452+psY3P75uGZ459gaAAAAAP8XSTIAoEOSjJ6RRyKn+0rhnlK+I1Ljjsj5gUjNTZEb98eOLffH+uG9nXUBAAAA/nmSZABAx7mXVsmG4+oaHAQ5l5d2mVqlW1qmXJVHI6WRsqgzRdxfpvvK8tvLmj+MKa0fxJ+/784Sq74WAAAA4FmTJAMAOhZf9spIjel1DcZfHm1HSnsj5z0xWuapUaa8I1ojO2PqwPZYtHNHDA9XiTMAAAAAAAAAAAAAAAAAAAAAAAAAAAAAAAAAAAAAAAAAAAAAAAAAAAAAAAAAAAAAAAAAAAAAAAAAAAAAAAAAAAAAAAAAAAAAAAAAAAAAAAAAAAAAAAAAAAAAAAAAAAAAAAAAAAAAAAAAAAAAAAAAAAAAAAAAAAAAAAAAAAAAAAAAAAAAAAAAAAAAAAAAAAAAAAAAAAAAAAAAAAAAAAAAAAAAAAAAAAAAAAAAAAAAAAAAAAAAAAAAAAAAAAAAAAAAAAAAAAAAAAAAAAAAAAAAAAAAAAAAAAAAAAAAAAAAAAAAAAAAAAAAAAAAAAAAAAAAAAAAAAAAAAAAAAAAAAAAAAAAAAAAAAAAAAAAAAAAAAAAAAAAAAAAAAAAAAAAAAAAAAAAAAAAAAAAAAAAAAAAAAAAAAAAAAAAAAAAAAAAAAAAAAAAAAAAAAAAAAAAAAAAAAAAAAAAAAAAAAAAAAAAAAAAAAAAAAAAAAAAAAAAAAAAAAAAAAAAAAAAAAAAAAAAAAAAAAAAAAAAAAAAAAAAAAAAAAAAAAAAAAAAAAAAAAAAAAAAAAAAAAAAAAAAAAAAAAAAAAAAAAAAAAAAAAAAAAAAAAAAAAAAAAAAAAAAAAAAAAAAAAAAAAAAAAAAAAAAAAAAAAAAAAAAAAAAAAAAAAAAAAAAAAAAAAAAAAAAAAAAAAAAAAAAAAAAAAAAAAAAAAAAAAAAAAAAAAAAAAAAAAAAAAAAAAAAAAAAAAAAAAAAAAAAAAAAAAAAAAAAAAAAAAAAAAAAAAAAAAAAAAAAAAAAAAAAAAAAAAAAAAAAAAAAAAAAAAAAAAAAAAAAAAAAAAAAAAAAAAAAAAAAAAAAAAAAAAAAAAAAAAAAAAAAAAAAAAAAAAAAAAAAAAAAAAAAAAAAAAAAAAAAAAAAAAAAAAAAAAAAAAAAAAAAAAAAAAAAAAAAAAAAAAAAAAAAAAAAAAAAAAAAAAAAAAAAAAAAAAAAAAAAAAAAAAAAAAAAAAAAAAAAAAAAAAAAAAAAAAAAAAAAAAAAAAAAAAAAAAAAAAAAAAAAAAAAAAAAAAAAAAAAAAAAAAAAAAAAAAAAAAAAAAAAAAAAAAAAAAAAAAAAAAAAAAAAAAAAAAAAAAAAAAAAAAAAAAAAAAAAAAAAAAAAAAAAAAAAAAAAAAAAAAAAAAAAAAAAAAAAAAAAAAAAAAAAAAAAAAAAAAAAAAAAAAAAAAAAAAAAAAAAAAAAAAAAAAAAAAAAAAAAAAAAAAAAAAAAAAAAAAAAAAAAAAAAAAAAAAAAAAAAAAAAAAAAAAAAAAAAAAAAAAAAAAAAAAAAAAAAAAAAAAAAAAAAAAAAAAAAAAAAAAAAAAAAAAAAAAAAAAAAAAAAAAAAAAAAAAAAAAAAAAAAAAAAAAAAAAAAAAAAAAAAAAAAAAAAAAAAAAAAAAAAAAAAAAAAAAAAAAAAAAAAAAAAAAAAAAAAAAAAAAAAAAAAAAAAAAAAAAAAAAAAAAAAAAAAAAAAAAAAAAAAAAAAAAAAAAAAAAAAAAAAAAAAAAAAAAAAAAAAAAAAAAAAAAAAAAAAAAAAAAAAAAAAAAAAAAAAAAAAAAAAAAAAAAAAAAAAAAAAAAAAAAAAAAAAAAAAAAAAAAAAAAAAAAAAAAAAAAAAAAAAAAAAAAAAAAAAAAAAAAAAAAAAAAAAAAAAAAAAAAAAAAAAAAAAAAAAAAAAAAAAAAAAAAAAAAAAAAAAAAAAAAAAAAAAAAAAAAAAAAAAAAAAAAAAAAAAAAAAAAAAAAAAAAAAAAAAAAAAAAAAAAAAAAAAAAAAAAAAAAAAAAAAAAAAAAAAAAAAAAAAAAAAAAAAAAAAAAAAAAAAAAAAAAAAAAAAAAAAAAAAAAAAAAAAAAAAAAAAAAAAAAAAAAAAAAAAAAAAAAAAAAAAAAAAAAAAAAAAAAAAAAAAAAAAAAAAAAAAAAAAAAAAAAAAAAAAAAAAAAAAAAAAAAAAAAAAAAAAAAAAAAAAAAAAAAAAAAAAAOhuEf8bMX4zQEb9p/MAAAAASUVORK5CYII=" vertex="1" parent="1">
          <mxGeometry x="652" y="755.0000000000001" width="155" height="103.33" as="geometry" />
        </mxCell>
        <mxCell id="KeAtxHLE9qD8ygLtUr-u-22" value="AWS S3" style="text;strokeColor=none;fillColor=none;html=1;align=center;verticalAlign=middle;whiteSpace=wrap;rounded=0;fontSize=16;" vertex="1" parent="1">
          <mxGeometry x="594" y="1070" width="88" height="30" as="geometry" />
        </mxCell>
        <mxCell id="KeAtxHLE9qD8ygLtUr-u-23" value="AWS EC2" style="text;strokeColor=none;fillColor=none;html=1;align=center;verticalAlign=middle;whiteSpace=wrap;rounded=0;fontSize=16;" vertex="1" parent="1">
          <mxGeometry x="-62" y="755" width="88" height="30" as="geometry" />
        </mxCell>
        <mxCell id="KeAtxHLE9qD8ygLtUr-u-24" value="" style="shape=image;verticalLabelPosition=bottom;verticalAlign=top;imageAspect=0;aspect=fixed;image=data:image/jpeg,/9j/4AAQSkZJRgABAQAAAQABAAD/2wCEAAkGBxAPDxUPDxAVFQ8VFhUPFRAVFRUPFRUVFRUWFhUVFRUYHSggGBolHRUVITEhJSkrLi4uFx8zODMtNygtLisBCgoKDg0OGxAQGy0lICYtLS0tLS0tLS0tLS0tLS0tKy0tLS0tLS0tLS0tLS0tLS0tLS0tLS0tLS0tLS0tLS0tLf/AABEIAKIBNgMBEQACEQEDEQH/xAAbAAEAAgMBAQAAAAAAAAAAAAAABQYDBAcBAv/EAEEQAAEDAQUEBQcKBwADAAAAAAEAAgMRBAUGITESQVFxEyJhgZEUMjRSobHBByMzQnKCkrLC0RZTYnPS4fAVJKL/xAAaAQEAAwEBAQAAAAAAAAAAAAAAAwQFAgEG/8QAMREAAgICAQIDBwQCAwEBAAAAAAECAwQREiExMkGBBRMUM1FhcSJCsfBSkRVDwdE0/9oADAMBAAIRAxEAPwDuKA8QBAEAQBAEAQBAEAQBAEAQBAEAQBAEAQBAEAQBAEAQBAEAQBAEAQBAEAQBAEAQBAeoAgPEAQBAEAQBAEAQBAEAQBAEAQBAEAQBAEAQBAEAQBAEAQBAEAQBAEAQBAEAQBAEB6gCA8QBAEAQBAEAQBAEAQBAEAQBAEAQBAEAQBAEAQBAEBhtsxjie9oq5rXOA4kAkLicnGLaPJPSbOeWLEFqE7XmVzquAMZNWkE6Bu7uWNDJt5p739ijG2fLezpK3C+EAQBAEAQBAEAQBAEB6gCA8QBAY3zsaaF7QeBIC8cku7PNo88qj/mN/EF5zj9RyQ8qj/mN/EE5x+o5IeVR/wAxv4gnOP1HJDyqP+Y38QTnH6jkh5VH/Mb+IJzj9RyRka4EVBBHEZrpPZ6eoAgCAIATTVAeBwOhTYPUB4TTVAeoDxzgNTTnkmwGuB0IPLNeJ7B6vQEB4CDogPSaaoAgI+G57MyTpGRNEla14HiBoFDGitS5JdThVxT2kSCmOwCgPCaIACDoUB6gCAID4ErSaBwrwqF5yR5tH2vT082hWlc+CbB6gCAIAgKZivETw82eB2yBk941J3tB3UWZl5T3wh6lS6574xKk4kmpNTxOazX1Kx8oeBAeoAgCA2rvvGWzu2onkcW6tPMKSu2db3FncZuL6HSblvJtqhEgyOjm67LhqFt0Wq2HJF+ufNbN5THYQENia+vJIxsgGV9Q0HQAauPsVXKyPdR6d2RW2cF9yhvmtFqfrJI7Wgq6ncMgFkuVlr82Utym/qeSQWiA1c2WPto5ntXjjZDumhqUSfw1iOczMhlO21x2QT5w7a7xzVzGypuajLrsmqulvTMWOrS82gR7R2GsBDd1STU+wLnPm/ecfLR5kN8tHxdeJXwWV0ddqXaozazDW0GvHOtB2ryrLddbXd+Qhc4w0REslotBL3dJIeNHOA8MgqzdlnV7ZE3KXUwxTSROq1zmOHAlpXKlKL6dDxNrsXPDGJTK4Qz06Q5NfptdhHH3rTxcvm+E+5aqu30kbeNLS6Oy9QkFzwwkZGhBJHsUubJxr6Hd7aj0Kdcd7vsry4VLS0gsrkTTqnxWZRe6pbKldjgzXt14zTu2pXk9mjR2AaBcWWzm9yZzKbl3LThaeZlineSdloc6MniGkmld1ae1X8WU1TJ/6LNLkoNlWsVtkZM2UPO3tAk1rWpzrxVCFklNST6leMmnstuPrQ9rI2NcQ1xcXAZVpSgPZmtHPm1FJFnJbSSIG4r+fZWyDN1QNhp0Dq68qKpRkupNf6Ia7XBM0LXbZ5yXSPc7xoOQGQUM7Jze29nDlKXcxWe1SRnaje5pG8EhcxnKL2meKTXYv2Fb8NpaWSU6ZmZOm0ONOPFa+Jke9Wpd0XabeS0+5IXxebLLEZH5nRrdC48FPdcqo8mdzmoLbOeXlfM9oJL3kN3Mb1Wju396xbb52PqyjOyUu5qx2aUjabG8j1g1xHiAo1CXdJnKTJy4cTSQu6Ocl0WlTm5nfqR2K3j5coPjPqv4Jq7nHoyDktkhk6UvPSV2tqudexVHOTly31IXJ72dWskhdGxx1LWuPMgFfQwe4pmlF7RlXR6EBGYivPyaAvH0juowf1Hf3aqDJu91Dfn5Eds+MTmJJJqTUnOqwTPCHgQBAEAQBAEBN4TvTyefZcfmpOo7gD9V3w71axLvdz0+zJqZ8ZHRltl8ICjY/aenjP1dig5hxr7wsn2hvmvwU8nxI8wdfENnDo5eqXEESUqNKUPD/ZTDvhXuMv8AYosjHoy6xyRytq0tew8CHBaicZLp1LaaZr2a6bPE/pI4mtfxA05cO5cRori+SXU5VcU9pFKxx6Z9xnxWXnfN9EVMjxnxhS5xaZSZPomUJHrE6N5LzEoVstvsjymvk+p0OKNrBstaA0aACgHctlJJaReS0Rt/XMy1RnICUCrX0zrwPEKC+iNsfucWVqa+5zQFzHcHNPeCCsPqmZ/YuWKbV013xS+s5hPPZdX2rTyp86Iy/BaulyrTKYxpJAAqSaAcSdFmJb6FU6HceGooGh0jQ+bUkjaDexo+K2aMSEFuS2y9XSorr3JG9xSzSgDLo35fdKmu+XL8M7n4Wcsh85vMe9YC7ozkW/5QtIfv/pWl7Q/b6lrJ8iCw1dotNoDHeYAXu7QN3eSFUxqlZZp9iGqHKWjpMUDGN2WNDWjKgAAW2opLSRfSS7FRxxdTGNbaI2hpLth4GQNQSDTjks7Opikpr1KuRBL9SInCEhbbY6fW2mnlsk+8BV8N6uRHQ/1ozY1thktRZXqxgNA7TmT7vBdZs+Vmvoe3y3LX0NjBtytmJnlFWNOy1p0LtSTxAyXeFQp/rl2R1RWpdWXpopkNOC1i4QGKbjZNE6VjQJmjaqMtoDUHiqeVjqcXJdyC6tSW13OeFYxROtXd9DH9hn5Qvoq/AvwacfCjYXZ0EBzXE96eUzkg/Nsqxnbnm7v/AGWHlXe8n07Iz7Z8pEQqxEetaSQAKk5ADMkols9Nq2XXPC0Olic1pyBOleBpoVJOmcFuSOpQlHujdwnZWS2trXirQHPodCRpVS4kFO1JndMU59S2YvscbrI95aNplC1wFCOsBTlRaOZXF1N/Qs3RXDZz2KJz3BrAS4mgAzJKxkm3pFFLfRGzbrtmgp0sZaDodRyqF3ZVOvxI6lCUe6NRRnAQHRMI3p08Gw4/Ox0ae1v1T8O5bWHd7yGn3RfpnyjonVbJjRvi647VHsPyIza4atP/AG5Q3UxtjpnE4Ka0ykW/CtpiPVaJG8Wa97Tn71l2Ydke3UpyokiJY+WB+RdG8c2FVk5Qf0ZH1iy3YZxO6R4gtGbjk2TSp4OHxWljZbk+E/8AZZqubepEVjj0z7jPiq+d830RHkeMmfk/I6GQb+kr3Fop7irPs/wS/JLjeFlpWgWQgOUXoQbRKRp0j6fiK+et8ctfVmZPxMnLeCLogr65PcXSU9itz/8Ayx/P/wBJ5fJRHYVjDrZEDoCXd4aSPcoMVbuiR0rc0dMW6aBp3z6NL/bf+UqK75cvwzizws5ZD5zeY96wF3M5dy3/AChaQ/f/AErS9oft9S1k+RqYB9If/b/UFH7P8b/BzjeJl7WsXCv449E++z4qnnfK9UQZHgKphT02Lm78jlnYnzo/3yK1PjRixGD5ZNX1z8KLzJ+bL8nlvjZcsEuHkYpqHPrzrX3UWlg/K/2W8fwE8rhMeSEAEnQAk8t68fYHHivmzKOtXd9DH9hn5Qvoq/AvwacfCjYXZ0V7GV69DD0TT85JlyZvPfp4qlm3cIcV3ZBfPitfU5+scohAX/ClwiFgmkHzzhUA/UB3c+K2MTG4LlLv/Bepq4rb7mLGl6xiI2YdaR1CR6oBrU9uWi5zboqPDzPL5rXEg8EemD7D/gqmD830ZDj+Mt2KvQpeQ/M1aWX8mRZu8DKHcFvbZ7Q2V4q0VBpmQCKVCyMexV2KTKdcuMts6Q9sVqhpk+J4/wCpwK22oWx+qZf6TX2OcX7dTrLMWHNh6zHcRw5hYt9Lqlry8ihZDg9EcoCM3rkvE2adso83zXDi06/v3KWi11zUjuufGWzqMUgc0OaatIDgeIOi3001tGknsrt4YuZDOYujLmtOy59QDXfQb1SszYwnx0V5XqMtaJew3tBOKxyNJ9UnZcObTmrNd9c/CyWNkZdma+I/JzZ39Ps+adnTa2qZbO+tVxk+74Pmc28ePU55dbSZ4g3XpGU/EFi1JucdfVFGHiRLY49MP2GfFWc75voiXI8ZqYevc2SXapWN3Ve0a03EdoUePf7qW/LzOarODOgWa9rPK3aZMynAuDSOYOYWxG6uS2mi6rIvsyLv/EsUTCyF4fKRQFubW9pPHsVfIy4xWovbI7LklpdyhwQukeGNFXuIaOZWRGLk9LuUkm3pFzxfZxFYY4xo1zG+DXLUzI8KVH6aLdy1WkQGEPTY/v8A5HKnh/OXr/BDT40dJW4XzTvn0aX+2/8AKVFd8uX4ZxZ4Wcsh85vMe9YC7ozkW/5QdIfv/pWl7Q/b6lrJ8jUwD6Q/+3+oKP2f43+DnG8TL2tYuFfxx6J99nxVPO+V6ogyPAVTCnpsXN35HLOxPnR/vkVqfGjfxzYCyYTAdR4AJ4OH7ingVNnV6nz8md5EdS2a+Fr8FleWSV6J9CaZ7J9blxXGLke6en2ZzTbwen2LzHelnc3aE0dPttHvWsrq2tqSLqnF+ZXMT4lYYzBZ3bRdk6QaAbwDvJVHKy4uPCH+yvdctaiUsrMKh1q7voY/sM/KF9FX4F+DTj4UZZ5mxsL3mjWguJ7AupSUVtnreltnLb2t7rRM6V280A4NGgXz9tjsm5Mzpy5S2aajOCYwpYRPam7Q6jPnT3EUHjRWcSvnYt+XUmpjykXjEF5eTQOkHnnqsH9R/bM9y1ci33cGy3ZPjHZzGR5cS5xJcTUk5kkrCbbe2Z7eycwR6YPsP+Ct4PzfRk2P4y3Yq9Cl5D8zVo5fyZFm7wM5msIzyx4LvUxS9A4/NyGg7H7qc9PBXcK7jLg+z/ksUT09FjxdYemsrnAdeP5wch5w8Pcr2ZXzrb811J748onOViFAIC7YHvXaabM89ZvWZ2t3t7vitTBu2vdv0LmPPa4s2L9wq2dxlidsSHMg5tcePYV3fhqb5Reme2UKT2iq2nDtrjOcJPa2jx7M1Qli2x8iu6ZryMcdy2p5oIH17Rs+1y5WPa/2s8Vc35Fsw1ho2d3TTEGSnVaMw2u+u8rRxsT3b5S7lmqnj1ZBY39M+4z4qpnfN9EQ5HjPvDtystdnkBOzI142X606oyPEL3Gx1bW/rs9qrU4s0bXh61RGhhLh6zOuD4Z+Khni2xfY4lVNeR82a4bVIaNhcO13UA8UjjWy7RPFVN+RcsPYdbZeu87UxFK7mjg391p4+Kqur6st1UqHV9zJiywPtFm2YxV7XB+zxoCCB25r3LrlZXqJ7dFyj0K/hK5522kSyRljGB3nChJIIoB3qniUTVnJrSRBTXLltl5WsXDBb4TJE+MauY5oPaQQuLI8otHMltNHPLHh+0umDDE5tHCrj5oAOZroe5Y0MW1z00UY1S3rRZsa3bLMxjomlxYXVaNaGmY46K9m1SnFOK7Fi+Dklo1sFXVLE98srCwFuwA7InOpNN2i4waZxblJaOceDTbZbVoloicUWF89mcyMVeCHhulabuarZVbsraj3IrouUdIrOFbnnFpbI+NzGMqSXClSWkAAb9VRxKJqxSa0kV6a5cttFyvKGKSMsmpsOyzIbnuIJ3rTsjGUdT7FuSTWmUi8sJzxmsI6WPUEUDqdo39yyrcKcfD1RTnRJdupGtua0k0EElfske0qD4ex/tZH7uX0JWO4fJonWi10BAoyGoNXnzdoj3BWFje7jzs9ESqriuUivRRl7gwauIaOZNFTS29ECW+h1yFmy0N4AN8BRfRpaWjTXRFWx5by1rLO3R3XdyBoB4+5Z+fY0lBeZXyJdOJSlllMIC4/J9H9M/f1G/mP7LT9nrxP8FvGXdnz8oMprEzdRz+/ID4rz2g+sUeZL7IqCzSqT2CfTB9h/wAFcwfm+jJ8fxluxV6FLyH5gtHL+TIs3eBnM1hGefULy1wcNQQ4cwar1PTTPV0Z1sgPZno5vvC+i7xNPujkRFMu5fOGWEBmslpdDI2Vh6zTUfsuoTcJKS8jqLcXtHV7NMJGNeNHNDh3iq+hjLkkzST2tmRdHoQBAc+xwP8A2+bG+9yxs75voUcjxkx8n4+ZkO7bA/8AkfurPs/wS/JLjdmWlaBZCAIAgCAIAgCAIAgCAIAgKjje7p5XMkY0uja2haM9k1JJp2ings3OqnJqS6oq5EJPqit2K+LRB1Y5XAD6h6w8DoqUL7K+iZBGyUezJD+L7XSlWc9n/am+Ot+x38RMibbb5bQ4GV5cdANw5AKvOydj/U9kUpOT6lownh57Xi0TtpTNjDrX1iN3Yr2JitPnP0LNNTT5MuC0y0UnH8B6SOX6paY69oJPx9iy/aEXyUipkrqmVRZxVCAt/wAn02cse8hrx3VB94Wl7Pl1ki1jPuj7+UCzmkUo0G0w99CPcV77Qj4ZHuSuzKaswqGxd9sfBI2WM9ZvHQjeCu67HCXJHUZOL2iVvnE8tpj6LYDGGhdQlxdQ1HIVCsXZcrY8daJZ3OS0QSqEBlssJkkawauc1viaLqEeUkjqK29HV5niOMuOjWk9wC+hk+Mdmk+iOR1XzhlhAAK5DXgh6dZu2ExwxxnVrGtPMABfRVx4wS+xpRWopGwuzoIAgNS8LshtFOmYHU0OYI7worKYWeJHMoRl3M1lszImBkbQ1o0A/wCzXcIRgtRR6kktIyro9CAIAgCAIAgCAIAgCAIAgCA1rVd8Mv0kTHdpAJ8VxKqEvEjlwi+6NP8Ahyx/yG+Lv3UXwtP+Jz7mH0Nuy3dDF9HExp4gCvjqpIVQh4UdKEV2RtKQ6CA074sDbTC6J2pFWng4aFRXVKyDiziceUdHLZonMcWOFHNJaR2hYEk4vTM5rT0fC8PCRw9b/J7QyQ+Yeo77LtT3ZHuU+Pb7uxMkqlxls6JelibaYXRE5OFQ7Wh1aVs21qyDiy9OKlHRzC2WV8MhjkFHDLn2jiFgzg4S4yM+UXF6ZhXJyEAQFuwVcx2vKpBQDKMHed7uXBaWFQ9+8l6Fqiv9zJHGt4iODogevJlyaNT8O9TZtvGHHzZJfPUdfUoCxyiEBZMF3V0svTvHUjOXa/8A1r4K9hU8pc32X8liiG3tk5jC95LOxjYjRzyauoDQNppXmrWZfKtJR8ya+xxS0Y8HXxLaNtkx2izZcHUAJBqCDTkF5h3ys2peR5RY5bTLKrxYCAIAgCAIAgCAIAgCAjr+vPyWAygVdUNaDkKnj7VDkW+6hyI7J8I7IfDeJpLRN0MrW1IJa5tRmM6EclVxsuVk+MkRVXOT0y0rQLIQBAEAQBAEAQBAEAQFMxzddCLSwZGjZOejXfDwWZnU/wDYvUqZEP3IqKzSqEBcMJ4iAAs85pTJjzp9lx9xWliZWv0T9GW6bf2ssV7XRDam0kGY0eMnDv4diu20QtX6iedan3Kna8GTtPzT2vb29Q/ss6eBNeF7KsseS7GtHhK1k0LWjtLh8FwsK1niomTt04PjjIfO7pHD6gyZ37yrdWDGPWfX+CaGOl1ZNXpeUVlj2nnsawauPABWrbY1R2yWc1BdTmt5W59olMr9ToNzRuAWHbY7JcmZ85OT2zVUZyZLNA6V7Y2CrnENHeuoxcmoo9SbekdTuyxNs8TYm6NGZ4nefFb9Varioo0oRUVoq/yg6w8n/pVD2j3j6/8AhWyfI0MI3lFZjK+U0Ba0ADMuNTkAocS2NfJyOKZqO2yTdjhtcoDTteAfcp37QX+JJ8T9iYufEENqOy2rZNdh2p5HerVOTC3ou5LC2MyWVglIy9r9gsuTyS/Xo25u79w71Bdkwq6Pv9COdsYdyDOOBXKzmn2xX3Kp/wAgv8SH4n7ErdWJoLQQzNkhyDXUzPY4KxVl12PXZkkLoy6E0rRMYLbbI4GGSVwa0b+J4AbyuJ2RgtyZzKSitsrdoxtGDSOFzhxcQ32ZqjL2hHyRA8leSMljxpC40ljcz+rJ479/sXUM+Df6lo9jkRfcskMrXtDmEFpzBGYKvJpraJ099ioY0veKRnk7CS9rwXGnVFKgivHNZubfCS4LumVb7E1xRAXDbm2e0NleCWitaZnMEKnj2KuxSZDXJRltnRLqvSK1ML4icjQgihB7VtVXRtW4l6E1NbRuqU7CAIAgCAIAgCAIAgMVpgbIx0bxVrgWkc1zKKkmmeNbWmcsvOxOs8ronatOR4jcVgW1uuTizNnHi9GsozkICZunEs9nAbXbjH1HbuTtQrVOXOvp3RNC6USx2fGdnd57HtPIOHiDX2K7HPrfdNE6yI+Znfi6yAZOeewMPxXTzqjr4iBFW/GpIpBFT+p+Z/CP3UFntB/sX+yKWT/iir2q1PleXyOLnHefhwCz5zlN7kyu5NvbMK5OQgLlga66A2p4zNWx8vrO+HitPBp/7H6FvHh+5lvWkWim/KFrDyf+lZntHvH1/wDCpk+RXLpu91pmbE3KuZdwA1KpVVOyfFEEIOT0Wu1YLi6M9E93SgZFxBBPAimS0J4EeP6X1LLx1roUyKR0bw5uT2mo4ggrLTcXtd0VE2mdKnvYNsXlXFgcB/U6gA8StyV2qfefY0HZqHI5uNuaT1pHu1O9xKxP1Tl92UOsmXOHBcOxR8jzJTNwoAD2Cmi1FgQ11b2W1jR11KjelhdZpnRO1GYdxBzBWbbW65uLKs4uL0X3Cd4m0WcbZq9h6Nx40AIPgfYtfEtdlfXuuhdpnyj1Kbie8TPaHZ/NsJYwcsie8j3LNyrXZY/ouxUtnykSeHcLtniE0znBrvNa3LLiSp8bDU48pElVCkts1MTYf8lo+NxdE47OerXa0qNRkVFk43uuq7HNtXDqjawNeJbKbO49R4Lmjg4ZmnMe5SYNrUuD7M6x56fE+sYXIyIG0scavfmzUVdUkg817mY8YfrXmxfWl+pEFc1hFonbCXbIdXMCugqqlNfvJqJDXHlLR0O5LnZZGFrCXFxq5x300yGi2aKI1LSL1daguhIqckCAIAgCAIAgCAIAgCAreNbq6WLp2DrxjPtZv8NfFUc2nlHmu6/gr3w2tooSyCmEPAgCAIAgCAIDcuiwOtMzYhvzceDRqf8AuKlpqdk1FHcI8no6lDE1jQxoo1oDQOAC34pRWkaKWlo+16elN+UHWHk/9KzPaPePr/4VMnyNXATh5Q8byzL8Qqo8DXvH+DnH8RfFrl05NeTgZ5C3QvcRy2ivnbWnN6+pmT8TLRbmn/wzPuE8tvL3hX7E/hF6fyWZfJRAYcIFshrpt+2hp7aKpjfNj+SCrxo6gt40Sg47I8qFNRG2vi5Y+f8AN9ClkeIkPk/B2Jjuq0d9D/pT+z+0jvG7Mp84Ie6utTXnVZku7Kr7nULiINlhpp0bPdmt+j5UdfQ0a/CiOxuR5Ga6l7AOda+4FQZ2vdeqOMjwFRwwD5ZFT1j4bJqs7F+dEq0+NFqx36KP7jfc5aGf8r1LOR4StYP9Nj5O/KVRw/nIr0eNHSFtl8IAgCAIAgCAIAgCAIAgBFcjpogOZ4juk2WYgD5pxqw9m9vMLCyaXVP7eRn218H9iKVciCAIAgCAIAgOhYRug2eLbeKSvzIOrW7m/FbOHR7uO33Zepr4rb7k+rhOEBTflB1h5P8A0rM9o94+pUyfIq9itT4XiWM0c067s9x7DmqEJuD5RK8W4vaJy14wnkjLGsaxxFC8Ek/d4K3POnKOktE0siTWiEu+xvnlbEwZk+A3uPYFUrrc5KKIYxcnpHTZ7uY+zmzfU2BGOygyPsBW7KpOvh5aNBwTjxOZWuzSWeUseC17TUHvycDwWFOEq5afcz3FxemWSHGzwyjoQZKU2g6gPaQry9oPXVdSwsl67FbtM8lolL3daR50HsAHBUZSlZLb7srtuT2dFw5dvk1nDHeeeu/7R3dwAC2sar3UNPv5l+qHGOio4uul0MxlaPmpDtA+q46g99SFnZlLhPkuzKt1fGW/I8uLEz7MzonM24xm3PZLa6ivBKMt1Li1tCu5xWjWv6/X2sioDY25hgNc+JO8qO/Ila/ojmy1zJrBF0uDjaXigoWx1311dy3eKtYNL37x+hLj1/uZJ43iLrISPqua48tPip85bqJMhfoKPddtNnmbM0VLa5HKoIoVlVWOuakipCXF7LfcWKX2icRPjaA6tC0k0IFc68lpUZjsnxaLNd7lLTRaFfLIQBAEAQBAEAQBAEAQBAYrTZ2StLJGhzTuOa5lFSWpI8aTWmQcuDbK41BkaOAcKe0FVHgVN+ZC8eB8fwXZvXl8W/4rz4Cv6v8AvoefDxH8F2b15fFv+Kf8fX9X/fQfDxH8F2b15fFv+Kf8fX9X/fQfDxH8F2b15fxN/wAU+Ar+r/voPh4j+C7N68v4m/4p8BX9X/fQfDxN+7cPWaznaayrxo952iOW4KarFrre0up3GqMSVVglCAIDSvS64rUzYlByNQQaEHsUVtMbVqRxOCmtMxWO4rPFE6IM2muzdtdYmmmfZ2LmGNXGLjrueRqilo0H4OspNRtgeqHZe0VUTwat+Zx8PAlruu2Gzt2YmBtdTqTzJViuqFa1FEsYRj2NtSHRq2+7op27MrA4bjoRyIzCjsqhYtSRzKCl3Id2DbLWtZB2bQ/ZVvgKvuRfDwJO7rmgs+cUYDvXPWd4nRT10V1+FEka4x7G+pjs+ZI2uaWuALTkQRUFeNJrTPGtkHaMI2V5qA5nY12XgaqrLCqf2InRBmSyYXssRrsF5HrnaHhovYYdUXvW/wAnsaIImgFaJT5ewOBa4AgihBzBHavGk1pggZsH2VxqNtvY12XtBVR4NT+pA8eBvXZccFmO1G3r6bbjtGnZwUtWPXX1ijuFUY9iSU5IEAQBAEAQBAEAQBAEAQBAEAQBAEAQBAEAQBAEAQBAEAQBAEAQBAEAQBAEAQBAEAQBAEAQBAEAQBAEAQBAEAQBAEAQBAEAQBAEAQBAEAQBAEAQBAEAQBAEAQBAEAQBAEAQBAEAQBAEAQBAEAQBAEAQBAEAQBAEAQBAEAQBAEAQBAEAQBAEAQBAEAQBAEAQBAEAQBAEAQBAEAQBAEAQAoAgCAIAgCAIAgCAIAgCAIAgCAIAgCAIAgCAIAgCAIAgCAIAgCAIAgCAIAgCAIAgCA//2Q==" vertex="1" parent="1">
          <mxGeometry x="-97" y="894.9999999999999" width="194" height="101.38" as="geometry" />
        </mxCell>
        <mxCell id="KeAtxHLE9qD8ygLtUr-u-25" value="" style="shape=image;verticalLabelPosition=bottom;verticalAlign=top;imageAspect=0;aspect=fixed;image=data:image/png,iVBORw0KGgoAAAANSUhEUgAAASoAAACpCAMAAACrt4DfAAAAYFBMVEX///8A2f8A1/8u2v3i+P2C5f1m4f3z/P268P3I8/5L3f2h6/33/f7D8f2u7f3n+f3X9f2a6f1z4/3Q9P227/2L5/1+5f1Z4P2e6v2p7P2J5/3m+f3d9/073P1h4f1v4v2rklyLAAAJSklEQVR4nO2c6ZajOAyFY5NA2MKSAAWd5f3fcizbYHmhu05Ph84M+n5UFVtiLpIly6YOB4IgCIIgCIIgCIIgCIIgCIIgCIIgCIIgCIIgCIIgCIIgCIIgCIIgCIIgCIIg3sitzbJ2vK8dTqchil63LVv0oaSMM4BHeeEfrU5cH2bH7dv2WZRKCSVH5xws2lkn+PHjrzTwY0iECnxomlbLccYHR7Xv0V3yQfwZ/a1GfgatkCKVf9XSgvhzOZRkckeXyK2cM375K038FIQai9clL2lFtdpKlVBL/5Xt3KxET8VRZ15HII80nhw881GZY1dxauVevyNOjGXWjh4UmvTvxjq0cw/MkP8pzqBRD/2W7sMWBsZO27Xs42C+pRzn1MH1tomxYat2fSDcsx3Ru0OHxR5ePpqLndu06iMRUl29nT1I5fvahe86BIak6lTi2bj7b7uXynXAC+Tlwge5O0AWufueHdAdyojUCmwqkeMdp9aQu4nFvngwlls7Zo1AMW737CICPg/7JXb7b/C8Ev6A/Cpzz+23a9nH0Tm5Um8qMSfuFGUi1wL3hYhqDG2CKcXzhsjOrfAYysEQzwzznM6BQuF/mfsyBi7u6dhAlhAxLmEyE/26pEf31DARs+G8/3+JJe7/XJ2nQerDAsj9z6ZMLswyQA9XKuaPIv8U1fH4F6rXmRTDkWbG2s2Qb4YAqaIFdfGbtOpF25K3fPIq1x4rJEd+X7dbWV7r+lqWt0seoUPSOZv1pwmxE5e3BlkafMsdnd71wSskDVskyKZbLbtxZ6YBsqu2uF5Oj/lU/lirWYFUlpBfcM1b0ottpTrGZi5GpQQi+vnjPkge6rl5eqbCP0viSSWH3fwdXfuWUulJKx41VTuXVliwdr7sFUr09YmtDKUPIakK7o+b/ggbSnVRN9zDIC/VOcBpsR8LKL5D4nnUNQjdBTH/VF8qcGlmqVrU6XVlFruq03plojGpy6v1ydObrNVH+t5iGVzezg/olUzjzDMbVLO6JVWoTjxoWAGpOruzyiMVWAfP0m6DjrlD6R46Tsy6anzGL4g2MfD9e/4tigdTMw2aXoowmAd1fEHLWh3NKqUhQ0X46smtCUPFr6S6mEDKI8u0zia+iLBhe1aLD0GTJpzC/K4G3wSUwk0VUY7XtfYzQaPbMhfdwdorcFOkA8zec+eZBqSKkcAwx8h5FseRNEpkWGqqFmpk6puRa1VLTid1hh4CScX5vxLil4hu3JlNEPfYDssj+jLPXt+O2PF6OnV1qL87PhiQipsCIRgiUx+YNNZ0kDySSxu+S982rUukPj30i0UKc90imbmO4wVam4+C39Tge1y5N++iVyaoezri1R7q+X7h4wtOxhmSqjE5aGOVdH7gLCIVg0WreaakKAcAy5eMnOuC0TbdujEfg5RCJwomfzfRS+nmXARP3MovPamuZiwEHR62Sth+zRsvbBw5Cpq5s6RknA9skyxwv2auUkUderBSsx1ApYZ5Ea9zRHfNTPZ5es/LlVFYcvhmCyQicw13ZhOpjqFKCn7mdnVB74xCBg+RAG+Dt/ST5pRhry24N9Tma3XCxRLlEwqPizaRKuFe3ysrUYsqQamY32Or3BVvh4ow2oDPflWwXZvTMFLFoW+VbOWAvitBTOe6w7BuWKdOsuLnpXsvZyDkl/Zes/32vlVecO+XtpBmRi3Iab4KPSuHbaQ6+Y8q4ciCchwBVXAvlC85bUtNJqZwpOrOVsbPzjaT+cRqLlsItWojVeHHanwT75dK6mI/4Ua1U983uls7KNorZrDTKlC3Dllubx+ySoaqAqYfWSX/jvpugtHNLcJRc6WEs9FwWWZRVs8utqfX4g93k4Kqs0Dczg13qb+oCCULkJzhGYyAVEA9fz2L9IVqiPMpUqlFZihhkGMW1K5jpBfL6sY8oaOpuDUWgdEFdyIYzqs6u5/JxFaZupTyCy52yjVYDrgyRbtZEUZqNSyG9ZJN7VEJtOyz7DSbDKxr/JJ3u0SslKE4sGCloHCGKVS0awnSQRX38THTra+vad6uXiW7bn5K5hbBXRfeZLImUvZxW3LGUvbC/gSDJVVtuWDuj4sWnDweSTWsCrJhae+uRvcx3MtZa5DzYMUSdstEXlwBio7q0qc/BLMHNi12weN6MDu4PZKRagwlNpJNa+t6CMy6YzzfRRRKY5LF2CBnPA+6zhyas3LGgAxHwShcYgXcRN5IJVeaBK/Zdhqi6PRMHZsfXY2HsDOLEyQdm6chIq9SKXGkKrELll6/UxXmMusJoWwXZj6wMV5Tc2DbeUDlSyratXkJExLuEj5Yw9DXl26Y65QiBfcXRCrcysKAXRBiIO6Saj53+pMdIVJkZQV84QtdM4/pV+YB3kl9Mim2Luf2p6nJJd3Ut/gI8PzJq26uVAmeBizk5bM5Hl9mDbx0s8VOR2sSW5Zx9FXJZEpZuTa3clPTetharAFDtFBfhvDqVRfsgony9jYfx15a81KyG2XxOU0OxT0XSUyE+y75WhnnWRursKtTOZkmR+1j01cOChjzJ2XzitxFCkYjHg3d7R6u3yD8KmiGXfAQ40/naAGcyl0UL9xXHeZYPV+02PSg92y5jLc279gk9xQGYCzTC6WecKdReV3k4chRAkRefacS2uNicKzHfnzJ6RT3TO/PhA2KX1aOPs4rRXhvLirUS2WQG28GWD/avOOEMHPM5LGW5nyf66Vpmps/aVrduq45r/Q81bnpmtGJJnUuLth0/VbvZDW5GXhBQLSeWovHKvsjcy0lnietLl6G3ez7xZHIex0pUiW9q1ePohdH3HGvzHNq+dOplrrF9J0ReMdGvg4RMT/cXXctFaRV3gjhrIKzF4j3LdUhJJUcNwSCHUnlFVQKNTD0sh/ndYC9EShPzi/kehp+7TtZWHnNu5X/OsDpreJ9p6CTaynyVfhJeRsfrJHDzv95QGqXC67S86QguFa0nLrrf6CDax5HuYBuXjxcyYnOYendH/vuquTkpl6oWKpl1qi83ssdetFv+5MJqp0gi5Px66FKRswKe3W0VCHB3Pb85jKAFn8GSmUjqoxG/6/X+36DSi+w41nQv25ziTLevVKC+zidvspVJZJzc5rGPf8/JoIgCIIgCIIgCIIgCIIgCIIgCIIgCIIgCIIgCIIgCIIgCIIgCIIgCIIgtuMfMypQnOvWh+0AAAAASUVORK5CYII=" vertex="1" parent="1">
          <mxGeometry x="147" y="895" width="172" height="97.54" as="geometry" />
        </mxCell>
        <mxCell id="KeAtxHLE9qD8ygLtUr-u-26" value="" style="shape=image;verticalLabelPosition=bottom;verticalAlign=top;imageAspect=0;aspect=fixed;image=data:image/png,iVBORw0KGgoAAAANSUhEUgAAAXoAAACFCAMAAABizcPaAAAAb1BMVEX///9FlvSfyvg8k/Q8kvTm8f37/f+s0fmYwvi31/vz+P5apfWcyPigy/jg7v3q8/6MvvhFmfRZovXu9v7V6PzN5PzI4Pu82PuEt/h6tPdyrvb1+v5qq/ZOnfXS5vxZo/WTwPmsz/rB3PsrjPO00/qeVhPvAAAJz0lEQVR4nO2b6ZqjKhCGVRSXuMQlGqMmrZP7v8ZDASouSbfpdnKennp/9DBKCH5gUVUQTUMQBEEQBEEQBEEQBEEQBEEQBEEQBEEQBEEQBEEQBEEQBEEQBPkd0HsrCN/dk3+OqjE5f9x39+Sfo0p0jlm8uyf/HCj920Dp3wZK/zbYMksAlP6vU50vgvzdPfnd0B6llErouzv3uynOR06rGaJwdDVHlq7v7tzvxpF2vdRqWTpq0tb/QVu/K47JvRlSahciSo722MPJWu8NffylbJK+uph19o5e/ko2Se8SnSTo9/wQW6RPD6wKiU9v6ejvw/kj0pSwzApgmRWZy7n0HR8ccsNk8o/QfQjuWitLhebL0sy5pEfxhpjnz5vNgvsLC3Ju5L8+lqCVZDWkGgpaX40LUh2ESdL1T02OlZims7lXuW7q3QtPM6PKC2tD9bDIq+9/6ZcpkgNwK9P2JkpH7SxLhnbhhUOSW7UscRPjxVJ5cvys/ZOpkzrd2iu27pgfLzzNjM7326+LWQW+/wPj/WXuImhi8viLkOpDS4hMn4WNLHGPMtV76eswsiwrevx8IP3hFenJ8fsWx/YN4+vTPvIN3/2LZu4uvZk6ferhhI3Ueiq9HicNYX8uziNH873SG0awTfr7/136KtanEFMv170dlP4hL0lPL0Sf88DbQekf8on0ZCa9sPWaYS6k19dNDkr/EEV6Mpf+gy6kF7NeC5O58OS83mmU/iGhK8hpJksnLZelTOtkyaoKWRLhUTi3OOQ2fcQqCoXbM5eeppa1GmLBjaHeQvoondedNEItumzk/yu9F3IsyVBYKynVwiw3yvmkJ40aW3nFsb4lyaFkAzWRvsrlDTua9oVenfqQJLeL9AVn0qdOchtyGSuNpOfkYmk0+4BGDhe/l1tKX1lZFqo7bVE2fQ9pFtJR+irKrlno7TgIhvToX2Em/DSBXBxEDfY3cXNF+tNFfJaFB80k3Z+d+xsk9qHyVPocGmyqlUZkwzZ7FCc868MN2R0ufdSxUIlhn/qvtAI/UMeestArp9Kvj/KWVzfccDfxj0svZTMQZJH40CqTKP3Qx4aJftN76asgVr6RXEZn1G3UGzCMqvTWERokCf8vbdVGTNmIz641SiN9JAzSuwGLqwAmvhyRnGmsZqXS1vBtD6Q37LyvbjDxt2QhtnD+Aenr8uy0uTqBq7Oc8PrwcgjpqTO9QQ699q0cxf5GTRXpqcuXehK7g8hqXZE79ftHkS+laQ/S97L7XMwT7aVXDWTUGkYrpB+q8/rBTpnZ70vPHpzOX0rhJ13cMLWKi5j/Qvq70LsN06g7w9QltRiyDuIzkvhZFJ2O7AaYlkH6sORTvn9HbPG1AWskL0Uj6Sg9uRnQiFP7VJXeN2y3c1su5nVN+nQivW+0btfd+ezfSfvvGxziLxrNQY6mXxI7MWNB+gwEjgOpybVmN0z+8egGdXz55mSlrgfS4LD1um1MPi7S8Qi5tQlk3RNvBNKiUnp/nkri0jM7A5/2riAmd3ieSs+q82aiDv7TbvaLv8LHt6WPo3mbFNRQvJ0skdJTPtDjWfEIKsYwp7hs7fDyVNzZENJzbdmsP/Y2lzdyHxqx+LdlvfTt4hFtLmWvnsUU9gv6ifT3vjq9Bqz+Lpug7XelJ8aizRO7bKoSuFJ6q5ETdKgZi5rVbS0cA+nPTizemeHpo4aH2CMQ6MGrB9KvxXQgveLYZyCt91z6QJnmJ3hN9jh40X1X+ZUgNWD2IVE7C68BVOzk/BxhSw25MNMDhmhxwsoZEhXC2RQUcCG3FKCRshKzfuWYlg3TXOmMyzTPnko/uV7B5/c4dxF+U3p9+VMTMCuzPalA+PU+CD2ZlvA+sFHi/yzmqyK9okULV1k0NXCD9MYt4q2v7cfArFelA83zp9JP/H1ecY/Nk3GX7yXWcixVyaS/Ty7JkIqNyWxHC9bdJgSzR8oH0vMAKclmV+c0Fpe+XHnEeSLhKt6Cx9L79mSlziDIeiLhq9D1J/mq8slKvPFAeuZFPpX+8kD6Myyro/+v+WsdJomY9Ws567n02VPp08UuVQiphScSvkz+DeX11V3rFYPDjIS0xjOFwXAnKTc4t1XpE5d6JXfdo7EtZoFmJHdtq/SneUgVcOk9iGYXs36X46bpNywOCVabNMC8LJZZNt0L9lXJJD6BFZLFreDp6IulTPr1WgQZUrOULfJl9hpZE2RItUX6uaJscnPpg3mis/N38i5l5PmS8g+S6fAimap15G4Uu8CdSzUCy+CCIX4ztDzXMESzPOAypd9ozZ3Lno3SW8HUaeyE9LSYraopOPb7xLP9/sd25c8PvF2+dDejmwchFWFmRYZU41RLh5CKj7893KAhaDXmcELQvh9pyH3ErlJXejUbpafgNI4ah0xhkF74/aPU3Be1dzqZ47827Un5MLwG/53cOvlOnGAkxLorEgn9TgTfahET2AJtY0M+YXhukmKSucx4MsIR48Absce6h2v/HFuk164QPJ36zGhrSOkpHB4JeuvnFb4xzXD+JFbzivYP57wmZzfRz3lohbnI9p6FUoHIq3WZFZ54nNqHZC5vs3azMMwM1iFymyaNcx7UihC5FXUL1jqvK/fit0pf3UF7N/SqKjoFRi+9FvJiZ7HraQbj4Lu7HUdzX5n0x2fdSUuRG26ShvDUV++fCJNDTHZD5zdu/fQyxI04SfgNs55tlRT86Ak3VvSjb0TWFavEVum1iOtq2K7dp+fF1s1VZjrvtkh02rtkzwSbV1oS2883b9KjqWyVmOUQHlJf2UPRlY0tak9uJNl8lwpSxSThA15NGzkMWyXbpNcsW6Qpxd9BelZDve7uqLzmrZyoear84VPjR+/JuEE4WaXyWjflVkfjq091vfQ3zPgIN5iTqvpDAXyCLhtxhg3C9SOabJ1U02E8RJLOotf1+vrtyfaH5dRyh+vBzodfoy3ak9j/SiIvvR8PTdwczvPd76o41uzGrZxvQdDOqRMWHl1ktioq44syXanRJO7YyAdrJE7K0Rlh1es1JzC0g4lbXnXGaEKs/M4WWNu9eto1aMd3MOzcwAhs97TnlOdE5Ve1J3r51fUeDmVYa7+2pWn04HTs9IY3P+wx2cZO50dsq/UDJlo1O1dAvcmnPM8Tp9Y9T1u9vjOVMz9hsC48ufz+Xxv8bWhXm5+Iz3yKEoXfA6+96Y/FZy/FocVfau6F55bwy/Cl6iZh61n2N3/n8u9BQ/d4iGMut8m9wzhu6nN72u8QFjJCrVPR+g7DN9oiD73FMRsEQRAEQRAEQRAEQRAEQRAEQRAEQRAEQRAEQRAEQRAEQRAEQRAEQRAEQRAEQRAEQRAEQV7iP2tHp8EEVxHVAAAAAElFTkSuQmCC" vertex="1" parent="1">
          <mxGeometry x="-730" y="868" width="378" height="133" as="geometry" />
        </mxCell>
        <mxCell id="KeAtxHLE9qD8ygLtUr-u-27" value="" style="shape=image;verticalLabelPosition=bottom;verticalAlign=top;imageAspect=0;aspect=fixed;image=data:image/png,iVBORw0KGgoAAAANSUhEUgAAAhQAAAGRCAYAAAA97yoTAAAgAElEQVR4nOzdd3gc5bXA4d/MNvVqyV2ucsEVV2wwpvcESG8kl5BCEkIgPZCbkNw0CEmAcJNACKRdSkgCpNCJbYwBGxv33qtkq3dtm7l/nBU2xtqZ1aqstOd9HmESVtJoLOk7c77znWPYtm2jlFJKKZUEs68vQCmllFL9nwYUSimllEqaBhRKKaWUSpoGFEoppZRKmgYUSimllEqaBhRKKaWUSpoGFEoppZRKmgYUSimllEqaBhRKKaWUSpoGFEoppZRKmgYUSimllEqaBhRKKaWUSpoGFEoppZRKmgYUSimllEqaBhRKKaWUSpoGFEoppZRKmgYUSimllEqaBhRKKaWUSpoGFEoppZRKmgYUSimllEqaBhRKKaWUSpoGFEoppZRKmgYUSimllEqaBhRKKaWUSpoGFEoppZRKmgYUSimllEqaBhRKKaWUSpoGFEoppZRKmgYUSimllEqaBhRKKaWUSpq3ry9ApScbsO13/rtlQ9SW/+0xwTTAAIzYnx1MA6WUUilEAwrV68IWVDRBXRu0RqA9LH82R6ApCE0hCEchLwC5fnnL8kKmT/7MC8DQXPnfGlcopVRq0IBC9RgbiFrQGITqNthbD5uqYUMV7K6D2jZojkJdLJggClixd4Tj0YIXMr1Q4IUcDxQEYFQeTCqB6YOgvBAGZ0FhJgQ88n4aaCilVO8ybLsj2axU94jaEIrC+kpYdgher4LdDVDdCA1BaA0hgUMyDPD5IN8PhdkwOB9mFsC5w2FRGRRmgMeQrRKllFI9TwMK1S0sIBKF5hBsroKHNsBDu4AQknnoDQbgh9MK4Cuz4ZJxUBgAv0fqMZRSSvUcDShUUiwbmsNwuBGe3w/P7IbXj0gmQqot++CiDMADM4rhvLFw+WiYXgIFGeA1NWuhlFI9QQMK1WW2Dfsb4IH18Kut0NIMoQh9E0R0wuOR+otzy+CLs+CcUeDz9PVVKaXUwKMBhUqYbUNNGyw7APeslYxEKExKBRLvYMLYQvivKfDeiVBeBD7dBlFKqW6jAYVKSNiCvXVwx5vw9C6oaCT5AstelBmA+SPg5plw4RjI8OoWiFJKdQcNKJQrtg2tYXhxL3zvNVh7jN4rtuxuBpABt82Cz5wOJdlSW6GUUqrrNKBQjqIWHGuB36yDu9+EhjaS297oyAh4Ym+GHPH0xd48sT4S0VjXzPbYv0tji9hbsgWfBng9sGAk/GAhzB8GAe3KopRSXaYBhYrLsmF7NXz/VfjbTgiHk/yAJmRmw+Q8mFcKc4ZAUSbkBCDPB7kByPHLMc/mkLw1BaExJA2ytlTBiqOwuR5qGkk+S2JAdjE8shguHidHTJVSSiVOAwrVqXAU3qiEH7wGz+0FK9KFD2JAbgaUFcDcITBrEEwbBGMKoDRbTlx0zOkwTngf4K0MREcywrYlW1IfhAP1sKVWOm+uqYJtVVDRQtcCDANGlMAP5sMHJsmpEKWUUonRgEKdUtiCZfvh8ytgzxGIJrpQm5CRCZePhAtHSzBRli9zOLorCxC1oCUM1a2wsQpe3A/P7JO23m9r4e2GAaX58LVZ8LlZkKVzQpRSKiEaUKh3iFiwdB9c+x84VE3CC3NBNrx7rBzRnDFYGkr19HRQGykaPdIIT+2AP22VDEYkwS0ajx9unA23LZDgRymllDsaUKi3CUdh+UG47nnYV4v7YMKADD+cNRy+OhfOGgEZPjDpvWOZb22L2DKI7IGN8MgWONSE+60QA7w++Rq+fQZk+TVToZRSbmhAod5i2bCmAi5/FqqOkVAwkZUDt54O182AQdlyUqMv2bEBZa8fhttXwTN7Sai+whuAuxfL16OnP5RSypkGFAqQp/odNfC1ZfD0brBdLr4Zfjh/NFw/Hc4ug1x/6jSKsgHLgkON8H9b4aGtsLsKbDeNuAwYXQL3LpYGWHr6Qyml4tOAQmHb0mfim8vg4a2xNtpueOAz0+HLc2FcYeo2h+qor1iyH761HDYdxVX2xTRh6lD43QUwc0jqfn1KKZUKNKBQNAbhzpXwPysBl0dDszPhxhlw41wYnNM/6gzCFqw6DDf8BzYcBctNFsaABWXw50thdEHPF5cqpVR/pc9caS4YlWmhd72Ju2DCgOw8+NEi+OZCGJzdP4IJkGFg84fDry+ARSNx991vwxuH4fbXJfBSSil1apqhSGO2DauPwMK/Q6QF520AA4bkw33nwyXjYk2peuNCu1k0tsXzoX/CywdwNdzMzJB6is/MlC6eSiml3k5/NaYpG6hohu+tgkgrrmoKSvLhzsVw2fj+G0yAnEAZkg0PXwGXjZNaCSdWEO5ZD6srYnNFlFJKvY0GFGkqYsGze+AFl0/oeOGWuXB1uRQndjWY6OgV0ddrsmHAkBy47UyYOxznL8iGbdXwwCZoaJevQSml1HEaUKQh24aDDfDgFgi1Ob8+4IOvz4aPT4FMX4KfCymGrGuD/Q2wqQpWVciQrwONMvgr2kcBhseA0wfDHYtgzCCcg4oIPLMbXjmkWQqllDqZtuxJQy1h+MtWWF+B40ru9cjArC/OgcKMxDITUQsqm+H5vfD4HukB0RKCiC1ZjsIMmDEEPjQBzhopk0Z7uyGW14R5w+Gbc+Cby6GuOf7rDzfBb9bD7CEwLLf/bvsopVR306LMNGPZsPEoXPgkVNU5vNiA0lJ47jKYPjixI5NhS/o9fHkFLN8H0QinDF4MEzL98NFJ8KXZUF7c+02kbKC2Fb75MjywAceOmoYJPzsHPjcbMjQkV0opQLc80k5LGP68DarqnV+bmQHfmiaLfCLBRHMIHt8C1z0HS/dANEynmRDbgtZ2+O0muOZp+Mkq2FwlbbN7iwEUZsLnZ8DIIhzTDrYFv94EBxp64+qUUqp/0IAizRxuhGf34ly0YMJFZfDR0yArgafwqA0v7YfvvAprK3E/PyMCayvgx6/DF16EP2+U7ZKom4LRbmAaMKUUvjsXslxMGT1QDy8e6L3rU0qpVKcBRRqxbHjjKOxx2uoAyvLgptlQnJXYbI6DDXDXatidyKTSE7S3w7L98Lml8NWlsOqI1F1YvbAx5zPhqglw+RjnrzkYhhf2SsZH9wyVUkoDirRhI9sIT26H1pDDi014/0SYPTSxrY6IBf/aCStcFHs6XWyoDf5vC3zkX1IsubtO6jJ6suLHMKRQ9PqZMj3V6RqXH5FTKxpRKKWUBhTpw4Y1R+CJfTgvgFnwqemQk+AR0ZpWWHIYwk4Bi1tR2FcP/7saFjwKj2+O9YDopg9/KqYBc4bApybgWEtR0wqPbZFARyml0p0GFGmiNQy/3wy20yRRE742BUbmkdCZSBuoaYN19XTvim9LEWRNI1z7PPzXs/DEdjja0nPbINl+uKIcCrIdXhiFR/bC9mptdKWUUhpQpAEbedJ/8jCOXTGH5MDl46SBVUI9FmypdTjmJjthkHgDBxtCIXhqB1z/H/juKzK0KxTt/oyFx4SpJbBoGI4/IVXN0uhKsxRKqXSnAUUasG3YWQtNrfFfZxgwqxTKi7o2pjtsO48EN0yYPgzGDoEMH4kHFpYceb1vPVzzLPziDdhbB+FuPmZanAkXjIJcp22fCLxxTDJASimVzjSgSAMRC9bXQNQhe5DhhfNGQVFmz12L34SPTIQnLoVvngGD8unad2EUdlbDt1+FjzwLj22F2jY5xtkd2w8eD5w5HErzHF5ow9Z6yc4opVQ604AiDYSisLYOIvGe4g3IyoRFIyDQw90fMzwwaRDcsgBeuBquKgf8XfhANkSCsPKAZCs+/7zMCOmO3hAmMCofppUQ/6fEhqoGqGzROgqlVHrTgCINNIfgmItiyZI8SfX3xnwK05AR6NMHw30Xw33nwbzRsaZSXdgGIQKPbYcP/gu+txLWH4X2SHLXmOOHKYU4/pQ0hmB3fe/0ylBKqVSlAcUAZ9nSIrqqhfgBhQEzC6QPQ28yDSjNhk9Mg99fCLfMh8FFJP6daQNR2HoMfvIaXP+CdNs80hTbBunCtfk8MGMQjtmT2hBsqZWhZ0opla40oBjgLBu218KxdocX+uD0QfJU3hcCXpg8CL48T+orPjYFirPpUrokEoLXD8Knl8INL8HSAxCMJB5UmMCkYvA53JNoRIpetTBTKZXONKAY4CIW7GmExmD81/l9cPpgOTLZlzJ9Mk78F+fBby6Gi8cAXTkNAtAOT+yQIWV3roK61sTqHAwDxhTCVKd+FMD+Bud7rJRSA5kGFANcOCqjuZ0ez4f4YUZp146LdjePCYOy4Opy+MtV8IuzoSjBRltvicL+OrjtVfjRqsSzCFk+WDQYx5+U+qBkQZRSKl1pQDHABaNQ57TdAQzOjA0C6/lLcs1jQq4fPjsL/vkuuO50GFYIeBL8QLaMUP/jJvjL1sQX/nKnmg4bGkLd3wtDKaX6Ew0oBrhQFGqDOBZkDu7lYky3DAMyvXDGCPjp2XDvuXD1eCCThKOfqma4fQ1sqU7sREZxlvPnqoxASLtlKqXSmAYUA1zITYbCiDWzSqX0xElMAwoz4d0T4J4L4K4zYdpg8CTSMyNWoLrsgNwXNwxk+8Xp3kQ0Q6GUSnMaUAxwoSgca3N4UWyxTuF44i0eA4bnwqdmwB8uhS/NhcGJ1FdE4aWKxGop3GQoCENbF06SKKXUQKEBxQAXisIuF1seBSm65XEqhiETQWcMhh+dBY9fAfOHg+kmW2HDsRb3GQqQeR4FLj52Y0i7ZSql0pcGFANcMAo4HWc0ICfQG1fTvUxD+lcsHAl/uxK+MR9ynOaQ2LI9kUhA4TOhyEV/jpaQdstUSqUvDSgGOBNcbQdY/big0EYCJx/g7YF9Gxt3gUIqHLlVSqm+0sNjoFRf83shIwPaQ3S+7WFDQz9symTZUnC6sxbufhMe3Q64qI3w+cGfwNHT9igcdTFNNC+gQYVSKn1pQDHABTwwLgM2N8Z5kQ31ToWbKcS2pQDy1UNw7wZYVwEHm3EVTGDAyNzEAorGILQ5bZEY0rZcAwqlVLrSgGKAC3ig2Kng0ob69v5xQiFiQXUr3LsafrkBGtuQaaMuGT64ZGRiM0tq2nC+OX4Zy66UUulKA4oBzt8RUBjE3fKo7Vg0U/QJO2xBZRP8ey88shlersBdRuJEJiwcCotGSqGlGzZQ46J1eZZPppMqpVS60oBigPN7ochFhuJYG0TtxLta9zTLli2HlYfgNxvhhf3Q0k6X0ikj8uBrc2BsoRw9deuoi9HvQ/zg1xJnpVQa04BigPN7oNBFj4mKIFQ0QVl+YottT7GB1hBsq4FHtsHvt0FNA13blzEgLwPefxpcMAa8CSz8ti2tup22VfI0Q6GUSnMaUAxwfhMGZyOphziLYlUINh2Tp3hPHwYUNnKEtbIFfrcRHt0Gu2shFCHxYMIAPDB3CFw/HS4ZC1kJfMfbSHbklWM4BhSlWbLtoZRS6UoDigHONGFyMQzJgMo4NQeRIKw5CheN67ttDwtoC8NrB+Fry2BdDdCVQALAgIws+NI0uGE2DMkGjyfBEhEb9tbDThezUMYV9q9uo0op1d00oBjgDGBcAQzKlKLGTlmygNcHoSSrt65O2EBzEDYeg99shn9shwY3JytOxYBAFlxcBp+fDmeOgGxf17ZxrI7tDoceHZk+mFisWx5KqfSmAcUAZxpQmgOluUAVcU96rG6Q0x69FVDYyDHQ/XXw2Da4dxNU1pPQMdC3GIAX5gyBG2bA5eOkGNVMolCyPQpvVuF4mqTID5MK+narSCml+poGFGkgwwPlhbDUBKuzBk02NDVIir+8qGcbNBkGRC2obIZn98DvN8GKCmR7owv8XhheCB8th2umwvhuuv6GdthYi3NBZiaMKkiNYlallOorGlCkAb8n9gTtiRNQAK1BeK0CFo+CzB76zrCBmnZ4djf8YQssOQj1Lvo8nJIBGX74rynw0dNgemn3dau0bNheCzuqHa7NhOEFUBhI2RYeSinVKzSgSAMeAyYXgScA4TgzKUJRWHIArp0KowsS/zzGW/+I/znuWgvNFlgJdrk8kccLp5fCfy+As8u6f45GyIJXDsuo87gMmJQHWQl03lRKqYFIA4p0YMD4Qjk+uj9eYaYNG47BuqMwMg88idQfGNLmO8sLrfFeZ0NjvGtw4oXJhXD1JPjkFBiVL9fZ3dmByiZ4fi+0O3Xj9MGcwT2X0VFKqf5Ce/ulAQNpWPXxsTieCW1ohyd3QktYmjolIs8PowNdvUoHBgSy4dop8PvL4Nb5MLZAmlR1dzARsSSoWnkUxw6ZUwpgcZkWZCqllAYUacJrwgcnQ1EO8VdgG/6wVzIVicQTBjAoG+aW0r2NLAzIyoBzR8OD58NPz4G5w6SJVE8UQdrIMLA/bYOw00h3D3xkQup0F1VKqb6kAUW6MGBcEbx3jIvXtsC966GuLbGgIi8Al4+B4mySTxsYgAnTSuF7i+C3F8P7J0FRVs8WP0YteHEvPL3X+bWj8+Dd5VqMqZRSoAFF2jCQ0x5XlkNhpsOLbfj3Tnh6T2LbHqYBZ4+CK8eCmUyWwoDcTPjMLPj7VXDDTNne8CXa6TJBtg0VzfCb9dDu0B3TMOCcEXJdGlEopZQGFGnFNGBaCUwe5Pza5iD8bC3sb5AjlG5l++Gm2bBwGIl/dxmQnQmXjYeHL4OfLZbJoBne3tlSCEXhgXVyusNxXHkA3jVeumRqPKGUUhpQpJ3SbHjPeJzrHGxYfxR+uw6a4hw1PZlpSMByz/lw8RjAj7sV1wenlcIdi+B3l8Kl47uvp4QbEQtePgA/3YjzUVYDxhTDvKFaO6GUUh00oEgzfq9M3Zw8BOe//TD8agu8sDc27dMlrwkzBsOvLoRvzoFJJZAdiH0+44Q3U8aKTyqBm2fBI5fDp2fGBnn14kJt23CgAf53HbQ145idyM+CW2fHprgqpZQCwLDtRA8Hqv6uPQJ/3QY3L4Hq5vivNUw4YzjcdyFMHZxYet+yoSkIu+qkI+bKI3CkSWZkZPtgeC4sGg4LhksjrbxA3xy/rG6FH7wG92+ANqfaCS98cjr8ZBEU93CBqFJK9ScaUKQh25ajkZ98Af65DecUvwcuGwO/vkgaXiWa5rdsCEahJSTBjGWD14AMn2xreM3e29o4WXMI/vdN+OarOE4VxZA5Jw9eCguHJzd4TCmlBhr9lZiGDENOelw7CbJyXLxDVI5Rfm8FVMVtg3lqpiGdJAdlwYg86dswLA+KMuXkSV8FE+Eo/HM33LYS52ACwAcfmwIzB2swoZRSJ9Nfi2nKY8AFY+C/3BRoAkThj1vgwY2Sbejvaa2oBZuq4Lbl0O4mSDJh7hAZQpbt6/HLU0qpfkcDijSW44MvzZEnbjfFAJEwfOs1uHstVLUkdpw0VdjItsuyA/DFl2BHrbv3K8qBW+fAGB1TrpRSp6QBRRozDBhXCN+YK8dJXVUYtsN3X4EfrnIxiTMFBSPwz51SkLriEK5SLX4ffGEanD+m77ZnlFIq1WlAkeY8Jlw+Hr42DwJeXAUV7W1wz1r49nLYX98/MhW2La3Ef7sOPvsf2HAUV6PTTQ98ZBJ8cY5udSilVDx6ykNhI4vtz9+Ae9ZAk8PRybd44YrR8PX5MH94z7fG7qqoBbVt8LM34OfrINzm8h1NuHg8PHARDM/RrQ6llIpHAwoFSJahrh1uXgr/twksl42sDBOysuHus+DKCXJ6JFVGeVu2bHG8UQE/eQ1eOAARtw26DJgwGH5/kXTE9GguTyml4tKAQr3FBnbWwjUvwqq9uNoS6BDIgPeVwxdOh+mlkNVL8zc6E7FkDsmTO+Gnb8LRetwfTTFgaCH8YpEESRnenrxSpZQaGDSgUG9j2bClGm76D7y0l4TOh3o9MKoErpskxytHxJpg9VZcYcf+EYzC0n3ww3Ww/kBsFkkCX0dZAXz/TPjAZBn+pZRSypkGFOodLAt21cP1/4Fle91vfwBggOmHycVwzQS4dJyM+M7y9VxwYSOTQo+2yMmNp3bCc4egvpmEsiwYUFYId54NV5RLMy6llFLuaEChTilqy9yNn7wBf94AjUES62ZlgMcH4/Ph9CHwvvFw5ggozIi12jaTCy5sG8KW1EhsrIJ/7IWX98PaGmgPAtEEP6AB84bBT8+F+cMg4KbZl1JKqbdoQKE6ZdvQGIKfr4Ifr4ZwokFFB0N6OQSy4QMj4ZIxcPpQyA/IUcyO4MLgeN2FEftUHd+dNrId0x6RgWM7a2HJfvj3fthWC8GQZFa6xANThsND58KsIVqAqZRSXaEBhYrLBupa4dfr4O43ocrFeO9OdaQkTBlRPnuwDNvKDkC2F3K8UsyZ4ZUsRnsY2iLQFIHmCLSF4UA9rDsG2+t5exaii9eUHYDLxsGt82FKqQQTKXJIRSml+hUNKJQjG5nK+ddt8Is1sPEo3TPMwzj+5jUhEPvTE6u1iNrSQyJky5ttxT5vN33ujAy4YTp8cRaMyNcumEoplQwNKJQrNhCKwLZquOtNeHwntLTRL6eEeb2ytfHV2TIgLT9DgwmllEqWBhQqIVEbqlvgH3vg3jWwoYrECyD7igHZWfDpqXDdVCgv1uJLpZTqLhpQqC6JWHCwAW5ZAY/uAMIkdkSzNxmAByaVwE8XwgVjJZDQVtpKKdV9NKBQXWbH2nU/tQP+uAv2HIODLWBH6PutEAMwoSgAZUVwzgjJTEwoljoNpZRS3UsDCpUUG8lW1LVJP4h/7YFn90mtRV9uhZTkwnllcPlYOGMYDM+VRlWalVBKqZ6hAYXqNlFbjnbuq4dlB+HxXbC5CpqDcgS0x7IWhvSyyAtATi58eDRcNAZmlMaGlelRUKWU6nEaUKge0R6BqhbYVQc7GyR7sa0KNtTAsTYke9HFJlkdb1l+mFEIEwdBeQlMLYTxhTAyV/5bqkw9VUqpdKABhepxFtJPIhiRfhZvVsJft8JDO4Ggwzt7AD9gyvCxqdkwqxjOHQVnlkFxphRY+jz9/+jniZ1B4e2dQ1XybPudMWx//55RKpVoQKF6zYm/0LdWwdVPwc4a4mYqxg6C+86HaYOlVbe3Y/vCOJ6s6Pj3/sC2JcCKWLI91BaBcDTWETQok1Hbo9ItNMcHuQGp/fCZ8memLxY8ocHGqXR8j0UtuadtERkc1x4LZptC0BKW+5nnl/ub5ZP/nRG7v/7Y/e1P31dKpQKdp6h6zYnTRt0OB4sApdlQktX/nybbwlDRLDUmW2tgcw2sqYWGVoiEJbCIWFKL4ol1DfWZ4PFDTqZs70wfBKcVwegCKTTN9vf1V5U6QlE41gIHGmB7rdzfN2rgWDNEQhCJxu6xLd9LHffX64PcTJhSAFOLZVLumHwYlgsFmRpUKOWWBhQqpVWEZNJpf0yj2cgCVt0KLx+EZ/fC5mrY0QKNrUiqoqOduBMD3jwImJCbBeOzYVKRDFo7eyQMzZEn63TKWthIkFDXDqsr4bk98OYx2NUElS1INOq2VbsBaw4BJvgyYEI2lMVOCl08BsYWSiYjjW6vUgnTLQ/VJ7ZWw1VPwA6HLQ8C8McL4INTZMHsD2wbQhbsqYWn98JTe2X+SX073XuU1pQn6EmD4IJR8IFymFgsWyIDeeGzbcnkHG6C5/bBU3tg1RGoaUOCiO5iSHbotCK4cBS8ZxzMHCoD7NIpcFPKLQ0oVJ/YWg1XPwHbnQIKE249A25ZKE+IqS5qQWsYHtsK334VjjXFhpr1MMMEwwc/OgOumwmFGQNzDLsVO5r8z53w2VegqQHs3uh3YsoMmI9OhtsXy3Fknx5HVuptdMtDpTYb1tdCSyi1AwrbhoZ2WFUJ962Dv+8FQr34+S2wQ3DLq/DCEfjSDGnoVZQ5MAILG9n6WlcJv1on20eN7fTeXpgldS5/2AQbj8Enp8O7x8HQXO28qlQHDShUarNl66CyBYpTtDAzakmh5W83wB+2wNFG+qbowwYrDC/tho2VcNVEuHEmTB6UmvfNLduWYtb71sGft8CeOvrs/hKVY887G+ClA3DT6bBwpAYVSkHsdJRSqexQk0w1tVJwcy4Ula6gN74Et6+Byoa395LoE5acbLh/HXziGXh+jxyb7I8iljRF+8oS+P4bfRhMnMiGplZ4Yjt8/Hn4yzbZ5lIq3WlAoVJeYxD+tUuOU6aSYASe2QWfXwrP9PIWhyMbiMCaI3DTUvjbdgl++pOIBVuq4OvL4PHtSBO0VPoesGB/DXzlZfjtOulzkUqXp1Rv0y0PlfoseHQv/KBBju+lQoV9OApP74KPPgdtbSS3knSE9Sd/XXYnfybChu1V8LGXwLLgg6f1j9MyEUuyETMeBZK9v291QCP+Pe7i/a2sk6CtIQhfmae9QVT60oBC9Q9B+PZrcN8FMgSsr9hIZuIvW+HW5V0IJmKLm9cLhX5pnlSaD3kZUJwBY7KgwAe1QTjYDsfaoTUIVU1wuAGOBmPj4RM5OWIDrfDZJfJxPz1DOkKmQFx2SlELlh6Ez7xA14IJA+i4vzkwrBCyAzLKfmQGDM2Elgjsa5X72dwOdS2wvw5qQ7FBdm77g3SIwM/XyJHdG2ZBTiB1769SPUUDCtU/2FLZv/YonF3Wd7+sw1F4dg986RWoT7T40oC8HJhfAmeNgIXDYWKRtNj2x+aReDqepm3Z4glHpadFSwh218GKClhxEF6ognAin9+Gthb4/ipp2PTu8tQ8/RG1ZZvjq0thbzWJBxMBWFgKi0bIPT5tEBQEYvfXjBVPxu6vZUPYOt76/HCz9LNYfghWHYXdTkeaT9LQCj9ZKX+fn54prbyVSifah0L1Cdd9KE5geuBTM+GOsyE/o0cv75QiFrx+GK5dAruO4H6xMaAgC+aVwRdOgzlDZaiZ15PYRFQr1tCptk3u3/2b4IV9UNOC+4yFAaML4cGL4cyRqbX9YVmwoxZuXiJBWyJZmMwAzBkGn5gE55RJ5ifgkRbvbtmxIK4xKNstf9oCf9shgYbrhmQGZGXBQ+oLsXYAACAASURBVBfB1eUSJCqVLjSGVv2GFYW/74FLR8G7J/TuUUjLhoMNcPsq2FuJ62DC54NzR8A1U2HRSJm/0dUjhqYhAcCQHJlvMrEYVoyD/9sKz+yDkNPkVuS699XB15bBPefD/OGpMebdBo62wh2r4cV9uA8mPDBzMFw7FS4og3GFEOjibzXDAK8hvTsKMmBMAVw6Bv6wDZ7eHWuX7vT3bkNrK3zjVcj3w/mj9UipSh+aoVB9oisZig4XjYPfXgwj83qvQLOhHW58Af64BdeLnemBm2fBNxb0XA8N25ZZFneshF+sgVAYd/fThCvGw+8ugZLsvt3v76hL+cYSuGctrrMBhgmXlcPPF0sg0VNbOPXt8McN8OVXIeq2mZYBpYXwxGVwxkg9TqfSg36fq37n+QPwy3WykPZGNByOwmPb4bEduAsmDCjMg+8shG+d2bMNuQxD2mx/Yz78/BwYkY+7n2oL/rUfHtwArX183DVqSa+MezbiLpgwIC9TulX+7/kwviixrY1E5Qfg+tnw6MUwrkQCGUc2HKuHezbA0aaeuzalUokGFKr/CcOfNsFze2Ux6km2Dfsa4MH1EHTZvKg4H+48G26eK+nznt6aMQwZEvbpmfCbC6GsBHcphyDcuxXWH+u7pmE20gX1F2vketwI+OGm2fCTxZKlMo2ezbAYsa2mqybCgxfB/BG4+4QWvLQXXtqfmk3ZlOpuGlCofuloE9y+ElYd7tmGTW0R+N16WOmybmJQITxwAVwzBXJ78eiggRQAXjAa7l8Mw0px9ckrq+GPm2Mj4vtg0bMsaVq29qi71+dlwvcWwE1zYFAvt2L3mnIy5/eXwCXjweOi4LK6Rdqx72/QoEINfBpQqP7JlifrLy2D1Ufk9EN3i1iwbD88sBVXqfisDPjhGXDp2L6ZRGkgBYnnjIZ7z4SyQuf3iUbh77tg+cHe70Rq27C3XgZuNbjITuRkwJfnwPWnS9FkX/CaMKEY/vsMmDUM579kC5YchD9u6r/tz5VySwMK1X9ZsPqwNLw62Nj9T4ANQXh4G9Q0O7/W9MAt8+DDk+W4Yl8KeOCSsXDddPD6cFz0qprgoQ0Q7OXW3BFbjoe+Xo1zbYoBV5TD506XI8N92S3VAOYPg/9ZAJ4cHO9vNAy/WCunhDRJoQYyDShU/2bBkv3w6RdgdUX3LYqWLb0IXq3EMTvh98J10+AzMyEnRdouZ3jh+ulw1Wk4/5Tb8MQ+2HC099LyNnCoEf60E+faCROmDIOvz5H+HanAY8J5o+H+s2RrKy4b2trhpYMQ6WfzVJRKhAYUqv+LSPHbjUth5eHu2f4IW/Dyodgo8ngMGJ4PH5sipzl648nZRgKnhnYZSHWqIMAwpMbgzjNhfD7OqfkIPLKt99LyUQvWH4UtLmpTBmXCt2fDlJLe6+4ZjkJTEJpC8r1wKj4PXD0RFo/C8TdpKCq9LFpSaYCcUt1MG1up1NaxEDo9OUdh5SHpsvjVuXDJGDn50NX1vaZVqvMdFwATzhsF00p6J5ioaYVXD8N/9sORJsjywelD4MLRUF709iZKpiGzLK6dDt97FULxvhZbvt4DDTBpUI9/GbSF4eXD0O5wfw0T5g6Hc0ZJXUpPawrB2kp4br80ADMNmFIKF5XJn37P27+ncgPwicmw9AA0t8X5wDa8egQ2VcPCEb1bTKpUb9GAQqW00YVSOHjQzdyKKLxZAV9eCmuq4IszYERe4k+1lg3bamRuhtPnzMiGj0yQgWU9uUZYtmwR/HINPLoDDjeCHQUMeHwX/GM3/OwcCWxO7MngMeGKcfCnrbDtWJyvx4Y9jbLFM6G45xe8imZ45bDUUcSTkQkfmQglPZz9sW2pmXloI9y/EbbVIePoDQjsgv/bAbfNhSsnvD1o85jSwnzhcHh+N3G/X+ra4J87YN6w1Gp5rlR30S0PldLOGAI3z4aiLNyt2DZUNsDPVsHHn4blB6A1LAuy2/KAYBRWV8ZaLcfjgU+MhYUjezYVb9tQ1SLHZO9cA4fqYsEEgA0tbbLl86UXoT749q/TNKSL5HvH4Xj/2sOyDdETJ2ZOZCPzMTY7dUk1YOFgOTXTo/cXyUw8tF66YW47igQTsf8YbIdNh+GTS2HTsbfXjxrI1tIXZ4DpdPLEhif2S+dNpQYiDShUSvN74f2T4ctzwQzgPg0QgZcPwnv/CTcugdcOSc1B2HLut9AehlUVzp/C8MpMkZ582rRtebK9a7X0i6CzGgcblh2Bl/e/s9lXhke2ZXKcChot2FTV83UU4aj0D2l1WlhNGfZV2INHRG1b6lB+uxFuXYmMSz/lC6GlCZ7aIxmzE3kMmDkEFpc6f749bVLsq9RApAGFSmkGsk9902y4cxEUZyfwzhbUNsPv1sGVT8KnXoBl++Boc+dP4R1Pq8vjbQ/ETC2AmaU9u9VR2w4/eR3uXgPNTguwDVtqZME+kWnA+EKY62LB29EodRQ9xbYlYFl6EMfsBBnSU6Mntzpaw/CXLfDdFTLePd41RW3Y3fTOIk3DkGFtU0qI/xvVhmgb7NSAQg1QWkOhUp4BZPrgU9Mgw4AfvQGH6nG/hxGVXhJ/2yLHIy8bAnOHwYJhUF4osxpyArG98dhx0dZ4BXaxi5o5ONZgqYcWvGPNcM8auHutQ0HlCbK871yAOxa8eYPliG2nPR9sOBQbjT7VRfDRVVUt8KyLzpjvGymDy3rq/ta2wcNb4YvL6TwzcRKf5531JQaSpTp9sPTIaIi3VRaBLbUyDK2rU1GVSlX6La36BcOQRf/DU6QXwQ9XSd8E12OukddazfCv3fDcARklPiQPZhTCnFIozYJsvzw9O83t8HlgzlBZFOKtd5YtGYP6dnnCLcyQ94lX9GjbUN0Kv3wT7l3vPpjAhLlDT70Fk+GFWUPk5Et9S5yPEZTahndHe2Ydt2yp08DFdseiUc4dR21ki6e+XRbpvABk+eOPZLdtaAnDI1vgx28ATrUyMV4TTivofBz5lGIJgOIGFLHi16aQBhRq4NFvadVvGEhG4D0TZWG+YSnsqCKxoALAhnAI9tXI2+v74D4v4Im9Rei8ViEmyw9Ti+IHBpEo7G2Av22TIs+oBdMGwQdPk5MUvlMs/DZy2uD+9fCDNTgvvDEerxxfnDW082uaUARDsx0Ciig8skvqSLw9EFFYNqw6imN2qdAPpxV1XoxpI4HB0Rb41w5YdgDqQjCpEN41QU5SZPpOHYy0heHJHfC916HKqc9IjBEL1t5f3vk1Dc2BojygKv7HqgppG241MGlAofodr0f21h+5FL6zEpbvg8Z2ut7X2AbCHA8inD6OIddQFKdYsD0ibaVvfUXqGjqCnif3wOO74ZYF8N7yty96NtL34oF18LM3cB1MeH3w4Ynww8WSiehMYYZsiTjZcRRud1gUk2LjGARm+iAzzrVGLVhXCV99BVYcON6B8ul98Mdd8K3Z8NmZ0qejYwvIRv5e/roTbn4Zat2OFffAeWPg1+dJVquzOCvDC2WZsMrhw9WH31nnotRAoEWZql/ymVJZ/9CFcNtCyCkk+e9mG9dBidcj2ZJTLS6WDTtq4HsrYcsxJFCxYm9R2FYNn18Cf9kqmYAOTUH41Rr47qtQ5zINjweuHAe3LpQ6iXgFjJle2TZy3Muw5Tp77M1FRsnvkdMpnTncJEHBsn0QCfO2+1tdD99eDre/JlNUOwTD8Nxu+MbLUOumrwmAAVOHwQ8Xwrg4GROQGSqDnNpwA6FI5903lerPNEOh+i3TgEHZ8JnT4fRSeGAzPLNXTnb09BQmn7/zuR2WDSsrYE91J9dhQXMT3PAytEXhI5NlgfndBrjtNWh3MXkT5EjtFePhu2dKrwmnZlReE3JTZBaGE7+38+O4UQt21MKGCjqds9IWgjtWy4jxG2bJ9tK/dsLXlkufElffHx6YOATuOlMKLp3ur9/j7ohrRAMKNUBpQKH6NQPI9sGiMmk9fWEZ/HUb/OcQtAbpscBiTHbnraCjNhxqhaZ4++Q2tDTDj1ZKAWZjCB7c7D6YwITzyuDWM2DyoM4LBU/kMaEwIFkMp14cfc3v6bxo0QKONDsP2gqG4K61UqxZkgW/2QBH6l1egAlTh8BdZ8NZIyTAcXPN+S4yFJGIzPZQaqDRgEINCB4ThufBx6fCZWNh6X74nzWw81isAK6bnwgNm863Dtx25bSl6+V3XuV4yt4F04TTSuHn58HEQe7bZMdOxfYb8a7V7ddc3xw7yWEidTJuGFCaD3cvgsVl7rt0dhSKuvoUOstDDUAaUKgBpWPK5lUT4ewyeOkA/GMXvHoIDrYiKfIEaiU6s6ul88I6jwnluVDghzo31fwJVPybpgzKuud8KE9w5kbIgrr21M9OgNQZhDq5Lx4DxuSDPyCNqRwlcqIiFqzdcy6clWBL9VBUWp878fp6Z9CZUr1Nv63VgGMYsmdemgMfnAS/vRhe+hA8dBFcOR4KC4BMkmq0EAlLEeWpeExJk88bRvf+hBkwYwj84CyYVOxum+NEEQua+skciVBUZqqcimnI1/+B8XT7I9HIYvjJWZKZONWx3nhCUQnYnHi9GlCogUkzFGrAMpDFPTcgBZSj8+HKcpnaubUaVlfB3kbY1SqDwNrapFiuOeQwVtuWeQ4dg7hOjksMZMrpV+fAjlbYW0nSWy6mR/b071wEs4d2bVhWW0cQ1A8yFME4AQVAUSbcNBf2NcOSfRBOtq+DCcML4YfzZe5JosEaSK1GjYsMRcCbeLCiVH+gAYVKCx1Zi8JMeTutBK6YAM1BaSR1tFWeLlvC8PhOeGIb2HGCgHAEquIc7fR5pFD0V2fJyYJNlXR9ITdg0mC44ywZld3VYWTVbfL1OfHnwpz8numUaQP7WmLFkXHuR0tYClU7K1XpyFLctkD+nl7YR9eDNgPGFMIPz5JTM9mdnN5x0haBwy5aeBdohkINUBpQqLTkMSHLlMZHpTlSjwBSXxCOwr93QjDOAtUakpkMF4zpvMAu4JH/fgfwiediXRkTDSoMyMuDexbB2aOTW4h210ngFJcHvnQafH5WD7XeBpbvh088T9zahsYg7KqTv4/O7q9hwLzhcOc5cM2zsLEyfhB46g8i7ci/e4Z0YA0kkTmobIFqF503SwLxm3Yp1V/pt7VSJ4pN5vT54s/ziFjw5lF5Ks32df46jwnnjYYHL4Sbl8KuGtwHFQZMLJUOjWeOTC6YaIvAmkqHORNAZiYsGgFl+V3/XPHYNiweLVsWcTtV2rD8AHx6hizynQUVHkOyTX+4BD75Iqw9hPtMhQFDcuCHi+B9k5MfQ7+5Jn7WquNzTiyQmSNKDTSaeFPqJKMKwOc05TI25KrB4dRExyTKi8bCHWfD8AKHj3uCvHz4+dlwVllyi51tw7EWeNNpJLsBwzNhSuwoao+8mTLc7dKRztf91H65bideE6aWwD1nw7BBuP6tVpQN3z8LPjo1NqXV3budUjAqrcAbnLY8AjCtkzkuSvV3GlAodQIDyPHB+4Y5v3ZDPayucDX6A58JF42BH54Jw4qIv3qZMLwEHjgHzh2V/H57NNYK/KVjzhc6uQCG5Cb3+Rw+BQGvZFzi/vaxZcrqc3vk+p14TRlJ/+fzYfpQZMhbnIsozoVvz4P3ToyfAXHDsqGyGdZX4RiwZWTIkDalBiINKJQ6SSA26ttRGB7bJkWdjkGFIcV+75sIty+A0UWc+qfPgJFF8NOFcPl4GZKVDBspcHxqD+D09GzC1NKef3r2mTJ1tSTb4YUWPLgdjjS52yUKeGDRSPjxmTBuMKcO2gypmfn2PPj4NCnQTVbEglcOwBqngWoGzMqDkT20naRUX9OAQqmT+D0SUBTmObzQgof3w6sHwXK5b5/thw9Mlq2MssEQ8CE/habMnSjMh5+dBVdPlILRZNm2zL14ZjeOtQWFflg4TOoSetqIPJjslKmxYW2FNCaLury/Xo9kgh48B6YMgayAjB7HBMMDRVlw0yz41Ewozkq+8NQGjjbD7Wuh1akHhQFXjpUMmFIDkRZlKnUSAynMvHQkPNxE/IW4FR7cKk2sHJ+4Y3weuKwcZg6GFw/CljppijQsCy4bLbM5kjltcKKIBQ9vgX0NDi+MHZ2cVpJY982uKs2W7ZzXD3feERNkHsejO+Q456g8d1sTXhMWjIDn3wuvHII3qiVLU5AB5w6R/9bVo6Eni0Thyd2ww8V2x7BcuHR813pcKNUfaECh1CnkBeCCUfD0bqiPt1VgwWsHYcUhWfS8LgIBw5CAYXQBXJsvNQK2LSdCPEb3LeiWDVur4NcbwXIaRmXAe8fD0Jzu+dxOMrxw7gi4KxNC8abDWvB6pUwK/dRMeT83fB4Ymis1EldOkPtrGnKPTaN7jsTaNtS2wWNb4p8IAsCQ0zOjXQZFSvVHGisrdQoeA+YOhREuTmVUtMDd62FnnbsCwg6GIU+rAY8slD6ze4OJHTVwy3IIOnVvNKAgG64q772nZ9OQ4sRzh+N4f6NB+NkaeH6vdKN0q6NTasf99Xvk77W71vPqNvjpKlhxBMcij0wvvL8csropM6JUKtKAQqlTMAxJsV8yivgnBgCiMt30v1+Dw42p0dm6pg1uXwPPuekgacCHy2XLoze2OzoUZ8ki689weKEN+2rhxythZ60ES32tKQiPbIZfb8DV/S0vhjlDe/f+KtXbNKBQqhM5fvjwJMh1Ks4EiMBT2+D+DfFrAnpDMAqPboWHt0LUxbVMLoZPTE2+sVOifB64dBxcNBxXv4lePwzff026aPblxFTLhiUH4M610NqGYwQZyISvzpYmWhpPqIFMAwqlOmEYcozy9rmQ6aKzYSQKv1oLf9kiQ8b6Ys1rj8A/d8DtqyDkYvKlzwfvnQTTSnv/6dkA8jPhE9NgkJuCVkvmrNz8St+MYbeRItfNVXDb63Cwzvl9DI9MRb1sPPj1t60a4PRbXKk4fB54/yQ4twznx0sb6lrh0y/Bb96Uxb0317xIFJbsh68ug8MNuPrkc4bCxyZLv4u+eHo2keLXqSNw99soDH9aL9tLTaHeDSosG9ZWwhVPwNojuGrxPSwPPjxZWo1rMaYa6DSgUCoOA1kMbjwdCt2cgLClCPK2V+GnK6Giqef3/C1beiE8uBE+8xzsd5jkCYABhbnwuWkwpqBvU/F5AfjJXBjqsuFTNAy/3wDfWC41FWGnEyxJsm1psf7Udvjks3CgDnfzQrxwzSRYMEy3OlR60IBCKQemAWcMl6ACpwJCABtqW+QEwHdWSHOm9kj3P03bQFsYNh+D778OX1sGh1xONPX74JrJMsK9t2snTmYa0pPjljlQkOXiHWypXbh/HdzwshTEtoS6P3CzkWBlRy3csxo+/x/Y5DQPpYMpWa2PT4V8HQSm0oT2oVDKhfwMuOF0aRD1583uih2b2+F36+Glw/DZ0+DqCTA6H3ze5CL5joXuSBM8uRN+vwXWHyPuOPC3MWD2YPj8TGn2lAoCXvjIFNjZCL9aAxEXX4sVhhe2w+ZK+FC5vP/kQXJENJl6EBvpfFrTBs/ugfs3wYrDgFOviRjDgJml8PPFMLFYtzpU+tCAQimXCmNbH9tr4fVDuHtStWBfFXzrNXh0u/R6eNdYWWgyvbLYvLXenNQjwX7rH/LHW0/MNXIc9G87YX01tLe7vJbY5ygvgp8uhnGFqZWKL8iQttj7muAfO3AXINlwpAHuWgf/2geXjoGrxsGMwZAbOKmJVZz7C5LhiFiS5VlZAb/bAq8fibXUTmAkelYO/HgxTOmlrqNKpQrDtvvyAJZKV1ur4eonYHsNcRfDT0yHey6QxSEVfjdHLFiyDy55BqzGBN/ZkHkdfh9ML4EbpsElsQFgHuN4p0wD2R6xgIgtXS5bwrBsvxxLXXFMWlJHIyRc9TkoG558D8wflpotoC0bqlvhsr/BmgrcL+QAsfHofi9MKITrpshMlKKs4/fXRBZ5O/a5opY0IwtG5PTGL9dLYBIJSjv0hD4/gB/+cSVcPKbvt5KU6m0aUKg+0V8DCpBF6LGt8N1VsPsY2IkuOiBfjAmDcuHMEijMgFw/5AQkZR+MQHNIei40hmTex7Y65Km9Kz+xJowuhJvmwWenQUYKL3a2LZmBLy+V3hN0pegydn+H5sC8EsjLgLzY/c3ySaanOSQnRZqCsLcR3qyOBWld/PssyYdvzYPrp0NGH52aUaov6ZaHUgnymPC+STA8F/57BSw/QOKLkA1EoboenqrvgYs8kUeKSr9zBiwuS+1gAmQbaN5QuP8i+J/X4PFdgFP78JPF7m9FAzzlNBgtWabUbnxjPlxdnvzIeaX6qxRMeiqV+vweWDQS7r8Q3jMJfCk6o8HwwMLh8Mtz4eKx3TMSvTd4TJl8+qvz4QszUncGhmHGgp8L4WOnyRFYpdKVBhRKdZEZK3C842z4wmwgk9TJcxtQkAnXTJcn/ZlD+meBYFEWfHMufHkelOaSUvcXL1wwGu46H+aPkPoNpdKZ/ggolQSPCWML4EdnwuOXyMmJPl/0DMjOgbvOhXvPk3R8KhZgumEasrV0ywL48+UwvpSU+K2VmwnfmQ8Pv0syFD6z7//aleprWkOhVJIMQ/bNryyH8QXw32/AqgNwrJmuFfglITsbLhsFN8+CmUPlaGp/ZxjydZw7Cv59pTS0emwXHK7vYkFsly8EMv0wdSh8ZYYMNsv1a58JpToMgF83SqUGnwemD4YHz4Pn9sq0zyVHob0VCSx64jyVIW+5WTCzSOaOvGeCnG7oj1sc8XhNGQP+nbPgnFHw6BZYegQONyEnQXrqvJoBBGBOMbxrDHx0KozM02OhSp1MAwqlupFpQEm2dG28YDSsroC/7oAX90FtG7R19djnyQzpLlmQDecNg6vGw1kjYWjuwH5iNpDCxyvGwzllsOoI/HsPPL4P6uuhORxrcZ7sPTZkGyM/AGOGwLXlcH4ZjC3qv9tHSvU0DSiU6gGmAYNz4JJxsGA47KyDlZWwqgK2VMHmWggnGlwYYHpgUoF0YZw3DBYMgQlF0hrcZw7sYOJkOX44uwxmD4XPzIBXD8NrlTLbZH2VzPdI9P5iSnv06YNgRiksHCr3uiRLMhIDLeujVHfSgEKpHmIgT7PFWdK2e/YQuG66NK2qaIYXd8OLB2BnE+xo4/isCIu3tjI8PpiQCaNy4OwRcPl4GJYr2YkMT6z7Yxovct5YFiEvAGML4YOToT0q00FfPgDP74Et9bCjFVo7ellYHC/s9MDoTCjPhbOGwoXj5ONkeiHgAa/npPbdSqlOaUChVC8wY9kFnwdyfFCUIfM8rp9zvM12e0SeqkNRWcxy/Mefig1D2kd70ywL4ZaBZGh8pvTaKMyAsnz40BQZ9NUxB6UlBK0ReV22X7qSemL31xtr3Z3OAZpSydCAQqk+YBjgi+3Tgyx4WT4oyjzFa3v1ygYGg9j8Dg/gkfub6ZMW3Kd6rVIqeRpQKJUCdFHrWXp/lep5Wq+slFJKqaRpQKGUUkqppGlAoZRSSqmkaUChlFJKqaRpQKGUUkqppGlAoZRSSqmkaUChlFJKqaRpQKGUUkqppGljK9UnTGJdDNOQZUPUhqgFTSFoD0MwKjM+2iMQssFvyqyOQGymRIYPsn3HW3Fre+jO2cTamdsQtqTldtiSluZhS+47yL30eeRe+0yZ2+E15XtT25srlTgNKFSfCHih5BRtkE9mxRaG/sxGvobmEDQF4VAT7KqDLbWwpw5q2qAmCEfboKId7DDgg+EZUJoBxRkym2JUPkwthvGF8u85fplH4TW1E6SNzOwIxgaDHW6Goy3QGJSgrSUsb41hCEWkLXe2T+5hjk/anuf45V6PyIPSbBkQ5jMBHQ6mlCsaUKg+keWDQZnIb+o4AUNLWJ4s+yMbsC1Z2FYcgr/vhR01UNcC9UGoC8p/f8c7AUTgcBscPnElM6HQDwUBKMqGsmK4ciScOwqG5spwq3R6srZj/2iLQmUT7GuAAw1wKBZItEUkE3Tia22OBwetEahqO37PDCRrke2TceVluRK4leXJtFjNXCgVnwYUqk/kxZ6unR79GoKyFfC2laAfiFhQ2wbP7YY7N8CGaiCIjBVNxInBVhTq2uRtbwOsqYAndsDEQrhxKrx/six83jSojLJtucdbquDlg3CkRQKEiCXZoHhJrZP/m33C/9EWkbfaNthZK9NICzJgWgmcOxKyA5LdUEq9kwYUqk8YBvhdfPc1hqWuoL+IWLLg/20H/HkzrDgKhIm/wnWFHXtrh+2V8IUqeGgzvHcSfGgiDM87Psl0ILGR74d99bDyCGyukSxWd2+LWcS2qcLyVtkCm6pgwXCYXiJBRjoEbkolQgMK1TcMGSftpDEkWQoLSOUaTtuWJ+TVR+CuN+GFfdASpPsDiVN+ciD2uTdWw5ID8JVZMH+EZIIGSpo+FIWqVtk+WnsUGkK9V18TsaT25R+7JDN0ThlMLJa6Cy2QVUpoQKH6hMeA4o4aiji2t0JFM8ywUzfVHLFk//6v2+C+9fL03CuBxCkEQ/D8blheBTdNgeumSx1Af36atm3JQqyphGUHoaKFt+ohevU6kOzIngao2AqzSuHsMqlfGYjZIKUSpT8Gqk+YhhS+eZ2ChDbYUXf8qF+qiVryxHrjf+B/XuvbYOItNrQ1wt2r4cPPwfN7pC6gry+rK2xbilr/sROe3iNbD3YfBBNvuybkfq6shIe3wLqjElQqle40oFB9wgBGZkG+3+GFNrxZJb/AU00wCisOwmdegGd2Q2tvbXG4YUNrCN7YD9e+CH/ZGitu7UcsW4ojn9oJrx2RkxupcoTYRnpaHGiUwtg3KiCkQYVKc7rlofqGAWPyoSgTalrpfCG2YFM1VDbLcclUqQdoCsGjW+BLr0BbM8kFEsYJb7G+B9JY4YQ/u8qCY/Xw9WWyVXDddBiUlfoHZqK2ZHv+uRN2NSSfAfDEjtSaxvGnqKh9vAFWVz+8hRz/igD9hAAAIABJREFUfXKHBDwLhkNeILlrVaq/0oBC9QkDGJIDhTlALXEX5IpG2N8AE4r6vo7CRp7071sL31sJbS1d+CAdgYMfBmfBhGwYnQvDc2FojixIjUEJog43wYFm2NECFa1gdxw9TSSAseFYE/zgdTk186350swpVYKzk1k27KqFv26HI02QaBuSjn4Rfo8UpeYHJBgtCMi/5/olm9DYLsFAfVDud30I2sIQSbCZmm1LgegL+6TG4qKxctw0RW+vUj1GAwrVZ3L8MLMIVh2I/7qqILxeCeeP7vuTHsGIpLi/tgpIMJjweCQ7MLgYzhwEi4fB/7P33lFyZXd+3+e+V7FzDuhudKORMzDABEwkh8PhzJCc4TKJu5SWkq31yl6vLEvy+tiWbOp4JR2fo6MVd9e20uqsvKtlWpIz5ARyZjgZGYPQyI3OOYfqrvzeu/7jVocCuruq0Km6cT/nYEAWKry69d673/u7v9/393A11BWCudjmYyJfoH8aLvTDyV44PQytw6riwc5gtg2G4c+vwMES+Opu5VaabThSiYjXW5TbZSaRA0Ooibzcr8RZYyE0FkFl3tzkfvckP6MbQnElWlvHoXNKjfdUTG1rpMt0HD7uUef147XKaVOjeZAQUsos2ZXUPGjYEt66A19+laWXoQIe2QK//pa6Wa8XjgPn+uHvvQNXBkg/SiDAnQPf2g7f2AWHKtRWT45LTYLpRApm7LsjcRiLKE+En7XAX7fCeCCzY6ktgH/3PHy+MbuqEyQqKvOz23BzLP3JXKCqWLYXKYG2rRAKfWpCF6Q/viR6f0zHYSQElwbgypCKYKSrKwQqCvKVnXC8emNX12g0maIFhWbdkKi+C+V/BlYgxZNd8LOX4Us71+cm7UjoDsDvvQtvtJJ2HN7lgafq4X89BkerlCGSsQK9IWyp+oJcGYD/5zL8tAOscJovFrC/Gn70RdhTmj0+CiELftkC73Wr6pl0bkymASVeeKYOjlSpnicrYZEtpdq+6ArAh51wa1wdXzoYqAqm/+qgij5ly/hqNKuN+d3vfve7630QmgcTgbrZBqbgzCAp/ZJvTcKXGqHAt/b708Mh+EcfqdVzWmJCQEUe/G+PwT87AQfKldX4SogJmAvv1xXCs/UqP+CTQbDTnPRGwtAXgqdrID8LkggtR23pvNeVXkXPTFTiaDl8c68a33xP+hGflO8vVCfSEj/sLIUCt0pqjaZRfjvjVzEcUtsuuR6dT6F5MNABOc26Ygq1n1/hT/FEqRpr/bINrDVuFmY58HY7vNZM2mKiLA/+6Qn4vWPK+GjRHIllYgoozYHfPwJ/+gy4cklr9pIW/KJNmXGtt7W5I1XX1dfuqOTIVAihkkqfqlXnTl2+mvxXA0OoLYwn6+C396vcjJTeKagIUvOEci0Nxlbn2DSabEMLCs26YgjYXgiHK0g5EYZj8INmtfWwVkgJPQH4fy9DJJLGCwRUF8L/+Th855DqXLnaq1OBWgX/7UPwV5+HPWWk9aFWBP64SUUG1tPfIRyHD7pV7kKqwxBAkQc+vw1e3qm2ONaiWsVlwq5S+K19sLM4vdwT24HrI9A+kT32JBrNaqIFhWZdEYkV9guN4E7D5Opcv6r5j8TX5PAIW/AfLsGFgfSe31gM//ez8LcOqBD8Woa6TQO+vAP+6FnYVZbeazrG4C9vqYqG9UCiunq2TaQWNQKVlPtSIzxVl0i6XKMBntme21oIX98D+0rTi1SMRVTfkUgaYkmj2ehoQaFZdzwmPF8P+9KYBINh+OMryplwte2ObQdOdcO/uA6xNARMQQ78kxPwxR2Qsw7VKAJVCvpsPfzLp6C6OPVrbAveaFb24WttHy2BuA1n+tITNB4TnqyFx9axJNMUsCUPnmtQf6fClnB1GFonktukazSbES0oNOuOELC9BH5zB5BGB9LOcfjnZ5RnwGqG6iej8Oe3gFDq55pe+MfH4Ku71MS3Xkl4goRA2wZ//yHw+FK/pmca/u1l1c1zLXEkXBxQzbbsNKITB8vgiZr1L3UVQjVce7ouYRCW4vlBC37dqUST1hSazYwWFJqswO+Cr+2Bh8pJfYd24Ncd8G/Ow3RsdVZ+jlR732d7SW1CYMJXd8DvHFEVKNlAngd+9yD89m5SX+UOvNYKV4fWNpdiPAJn+1Qn0aUwUImXX2hUVRfZgMdUnhfPbk0tcGbOpTtjOkqh2dxoQaHJGhqK4NsHwJ9GGaNlw7+9Bn94WpkQrfR92nLgk14YTKNPx7Zi+L3DUJFlPTIKffA/PwZVxaQ8sJgFP1jDig9HQm8AOgKpoxM5bniiVlm1Z5Ong9cFT21VYifVYcUcaBpe+yiQRrOWaEGhyRpMA76+Az63lfRm5jj86WX4ixuqUmAlGQmpUtGUe/sueL4BDlaAkWVXkyGgvgj+wUHwpdpKkvBul7K9XgssR1ldp5pgDQFbC5S76HpvdSxEjgseq1ERi6WQiShFqmiMRrORycJLVPOgIlB1/n9wHPwFpCUqwmH43qfws1vKOXIlQspSqvD0m32k3O7w5sHf2q0cMLMRU8ArO2FXqihFwgvi9BqVkAbj0DOV+rN8JhypUF4Q2YhhwMFyqM1fOnoiURbeXZPZ04Jdo1lptKDQZBWmAQ/XwJ8+ruyL06FrAv7gY/jeRRgKLf+GHbVV1QOprKxN+O92wkNbsisUPx9DKDfNr6WRSxGy4OLg2lR7TEagL5h6q6o8R7lgZuv4zpSyPl0L3hRRCkeq3iBaUGg2K1pQaLIOrwlf2wtf2g0iHQdECX2TKp/iX5xWk5W9jEkxYsG5wTSe6IYv7Ug9kaw3Phd8oR5IJdAkXB/KrMPm/TDTUXQ8hVGYKWBviTKvymZMobqaVqUYXwm0B2A03Z4rGs0GQwsKTdYhhDKF+h8Ow/4a0j5Lo1H440/h7/0qYSaURt+Fu5HARAR+NUTKFz9colbPa2WudL8YQE0BvFCR4okSbgagY2J1jydmK2+GVCt1jwmHKlf3WFYCIVQCbF1Bim2PREO3roAuH9VsTrSg0GQlhoB95fBvHk9MKumeqQ78pBn+/q/hRzdgOJh5iLk7AFYq7wmhjqvAm12VHQshBFTkwvFU4yhhIAw3R1bvWCSqwVZbiklVAHV5UJOGeVQ24DFVtcdShlsSCNswGARnjU3ENJq1QAsKTdbiNuGZrfCHj0NjCWnP3LYNp3vhOx/AP3gP3k+YCqUrLFomUjtjelxwvCp1dv8MM66QwTiE4up/Z4qTaKkdjKuqlky2dTwmHKuC0tyln2dF4NrIKq6gpfotovbSP6cQqrW6y8j+CNAMW/JVZG0ppFTNwlZ7W0mjWQ/WycBWo0kPlwnPNcK/Bv7he6rnQ1qznQME4fs34YMe+HwD/J298PAWtYpctMRTQlcwdUdTvxv2FKc32VkO3B6FW6MqaRSUZ8XBctX7w5VC1kuUgdfVIWgZVxOy11RujYcroCwnvaTFxmLV1XV0qdJQBwZCKorgW+LuYEvVn2I4pMRBukgJ3VNqTJb6GV2GmqBXq0vralDghWIvDASXfl7YUoJyqfHVaDYi+pTWZD1+F7y0QyW9/fZbqo152ktoG/on4C+a4Gdt8M1t8O29cLhKiQK3oSZjIdSK2QGmIilC0kJFT9JxbbQdONUDb7SqbpozURIh4PwAfGk7nKhZeuKM2fBmC5zug6gz992vDMP1YfjmXtUiPZWmKPGr7qepmIotLSgsB64Nw6/aYSyc2phqPhI1JqlC/j5DlYxuJDyG8qVIRdha+74pGs1aoAWFZkPgMuChavjeZ+Efn4Trg0AmK2MHpqbgz5rg+81wtFRZJx+vVp0ji3yJ7pWoSTIVpkt5I6SaxDsn4b1OCMSTPTKkhEAM3u9SK/FtRQu/l+XAh53KtfPuMHncgeZx+GUbfDUNLwyPAfk+1ActIQImYmpbpnCB97Md1czr9RZ1/JKl32sh0nm6x1ROlBsJ01CunqmIWMo5U6PZbGywS1bzoCJQUYFnt8G/98I/PQMfdICTiVV0YiYLheFkL5zqUyHqUr+y+y7MgZ25cKY/9VuZnjT2y4FPB2A0srDhliNVCWHzKNQXLBylmIzAJz1gLTILOyhR0TeVEDhLKBy3AXlplGCOR9Uq+p7vI1U4/5121ThtNSsVvKYSQBsJl5FeF9SQlXpLTaPZiGhBodlQeEx4tAb+9DPwR5/CX96AcIz7qg+VUkUjZiMSAj5OsXqfYU9u6v19KVU+wlLh7bgDY4sIDlDuiuEUk0/MVs+TLB0xMQ0o9aotnqUSVEcTWx53v5+DyuOYWGUxASp3xr3BtjxcIr2oSszREQrN5mSDrQE0GjUx7i6Df/YE/KtnoCGDCpAlkahZM43ZcsRK/TwB5LqWjhoYM5PQIs/xuZRx0lIYYm67JhWRFMmQoBJWFzpmKWE4w5yJ+0XKjefVIEmvksiQ2V9qrNHcD1pQaDYkhoCqfPi7R+AvX4Sn6gCTNbtTj4QgnmryEFCTu3To3mNCuX9x0VHiU8mJS30tz0yCaIrvbjkQSKPfSYVnYYEigDzX2tw0Ys79ldauJ5ZUkZ1UeF0bL/qi0aSDFhSaDctMXsWJWvjrr8C/fBr2lANuVl1YWHEIpLCOFsCRatUtc6GyTtNQuRO7Sxcv+/S64OWdkO++V3QI1MT/SLXqeZHqK8cdmE5xzKByMRbqTjpjNpbjXn3dFrMzK0fNBixH5UekwuvKzs6pGs1y0ae1ZkMjUBNdeQ78/jH4i5fgvz8KW0tREYtVwnbSS0wsz4GXtsPu4uStC4+hfCxeaFxaDBhCte5+sVF5SMyICgHkueGJGni6TpXApiIch+koKQ+60LNwyagQqhrlkerV91CI2albm2cb6QqKHC0oNJsUnZSp2RQIoTwWHqpSK/5v7YSf3oG/bIfApDJhWrFNeQmWlV55qSFgVwmU+ZUD5WjC2Ko8B/aXqy2NVOZYpgGP18KWPGibVJUfuW5Vbrq7VE1Q6UQMxiKqHDQVRZ7FqxXcJjzXoCbETwdgasZbI4OxtVFVDkvlJcZsVWmSKtE0m4g56Y2vT295aDYpWlBoNhVGorHYiTrYXwHf2qvKQ0/1wsd90D9F2omXSxGMw+VR+GxDakFgCOVm+VQdxCz1fLeZOtlyBoHKk9hVCtuKVW6BKZT9dyaTbfMY9KbqUeKCrXmLW4oLlCPkcw0qcjIUhEiGTpnTcXirTXmDLPYzxCW0T8LhyvTHab0ZD6moVSp8rtTuqBrNRkQLCs2mxBDK6On4FhW1+DuHoH0cftUGP22Ds4PA/EqNu/9OgWXD5QG1jZDjSW9iN0V6WxNL4TbuL1weseBcH0wtJSgE4FcdVFPhdyvr760FmR2HRPWy+KQnRftyCddHlJOokaFwWg8k0DutzL6WwkBtVWV7y3uN5n7QgkKzqRGoLYN8NxysgP1l8F8fhp6Aso9uGoFzozAZhlAU4gkXw74QOEuFryVcHFTbCDlrkAS6HKRUkZlzabRk3+lT2yjpkmnjLoGKrOwpUVbiSzEShvaJxPFk8/iiBFtXYGFDsBkE6lypzd84Dc80mkzQgkLzQDDTq8MwoTQHiv2wvxK+kuj+GbZU6D5mKffKP7oIr91a+j1vT8LZPqjdvSZf4b6xJdwYgQtDKZ4oYF8JVKboSLpcPAbsLYULA4sbPElUVcqlQdhZuqr5tctHwkRENT1bCiGg2Ad1GUZ1NJqNgt7J0zyQGEI5G+Z6oDwXthaq5MkDFfBYDXyhnpSrYjsO/+maSs7MZhOmYBzeaIdoqv19AfvKVj9hUAioylOJqksila340PTqHs9ysSTcHFERlaUQwM5iVZar0WxGtKDQaO7C44JjlVCVaiXpwFu98E5H9vZmcKRKxvxlB0uXVQAFHvW91yJhsNAL1XlLazaJWvlfHsre7pxSKpOzU72pzwGXoVrWp9NqXqPZiGhBodHchQC2F8PjVaTeu4/AXzWrBMNsjFJYDnz/BnRMpHiiUN/5eOXaTHh+twr9p+qHErXhyhCMh1M7fK4HjoSLAzAYWlqvGSgfkS15On9Cs3nRgkKjWYBCH3xxu9rzXhIHzvfAyZ7sW0VbDtwehe/fBJkqgiLgle1Qnb8mh4ZLqAqR3BQVHA5qsr4wkH1GVxLV2+TTQWV0thRCwPaihR1INZrNghYUGs0CuAw4UQOVRaSMUgwH4XsX4fZIes2h1oq2cfjtd2EgnRwEH3xt19o5OAoBNXkqpyBVlCJiqXbzbZOpJ+61JBiDX7fDUIroBCijsEOV2iFTs7nRp7dGswg1+fDsFlKWGNgOfNgJ/8dJ6J3Kjq2P4RD8yUW4lqI0E1Tly+/uhu0laxuOz/cq0VaUwsdDoipv3mmD/mB2jG8wDp90w4XB1JEpl4ADZbCtUOdPaDY3WlBoNIuQ64Hf3q9yC1LmUkj4RRt871O1cl0vJMqt8c8uw1/eVE3MlpyBE7kTf/vg4u6Yq4UhYGcJ7ClNnQgqgZYJeLtN9SNZT1FhO8rD5GTv0r4TM5T5Vb8Vry7S12xytKDQaBbBFHCsGn7/MGkZIcRj8EeX4a+uKQ+FtZ70JKp99lst8E/OwUQw9WvcJvyN3XC4Yn1Wz24THt2iGpKlIu7ApSF4vVVtg6wHjoT+aXivPXWZKMxVdtQX6mRMzeZHCwqNZglMA769H55vIC23RicKv/sh/F9nVSOwtcqpkFJFRr5/A/7HD8BOo005AvZWwzf3qNXzesx3AqgtgN0lamtgKWbMrs70wau3VbmmvVbjixJrTUPwn5qgO42tFwFU5SiHVsPIarNPjWZF0IJCo1kCgXLV/G+PgD8vjRdIIAL/8hz84Rll8b3aokKicib++Dz84w9gYIq0ZjszB/7RYWVtvZ57+z4XPFsP5f70Jt2oDWf74a9vQW9gbURFKA6neuAHt1QeR6rfVKASMI9UqGoWLSY0DwLmd7/73e+u90FoNNmMkahIiMfgXBolggDxOJwdhp4J9dpiX+bdQVMhJYQsuDII/+o8fO8yTEdIa6/F5Ybv7IHfO6qSI9cTgcpXKfFBZyC9FuC2hKGwqrDwu5Qpl8tY2W0FiUq47J+Cj7vhnU6YjqW3leU24KFKeH7b+o+vRrNWCCmz0S5Go8kuJNA5AX/wIbzarJqIpYNhwq4y+PJ2+M3dsLdMdZpczsQnUaLm9ij86Db8tBVuDysRkxYCPtcAf/KcSojMlr39iKX8PN5sU1UU6WAKKPLCnjI4WqGSPD3m8oWbI1VlyeVBtc3RM51eAiYoAbq7BL61FypydXRC8+CgBYVGkyaOhOvD8M234FY/GWVdCgOqS+B/OQLf2g8FPpXnKUTq7QaZ+I+T+BOIwZt3VOJl91gaplV344c7vw2NxdlXxhiIwU9vwfmBzLYyTFQk4FgFPLFVbZ+YibyFdASTREV8ZnIlbo3Au53QNZWZYZkQyqzrvzkMO0qyb3w1mtVECwqNJk0k4DjwTjv8nbdhYJLMSjkEYEBFHjxdDSca4OEytcde4FVhckOoSUkmxIPlqGTLnik4PwxnuuCDPpU7gJP5528phP/4PHx+29r07MgUKVWztR/dhBtj6vun+xUNlHDzGlBfoKIv9YWqbNPnUt93/gQvpRrCmA1TUeidhjtjcGtMld7aMrP8FyMRLXllJzxUpU2sNA8eWlBoNBkws6/+8zvwD9+HrvH7fCND/anyKzHhdUNpLuzKVUmgo2FoDapKhngMpmIqZyBuk9qWcRFyiuB7J1TVij/LLaC7A/CzZrg9dn9JlzPiIs8FOW5VnprrViZaeR5VLTIRVeM607Z+Oq4SPmciFZlS6lfVQI/XrH7HVo0mG9GCQqPJEInqLPlRN/zeSWjpA3slfBEEyRvukhUxszBdsKsc/vAxeGG7mmCzHUfC4DS80QrXRlfGd0KIuSGeGdaVqMAxhdpi+XyD8i3xaQMrzQOKFhQazX1iOyqn4p+fhZ83QyTdpMi1xICXt8P/9Cg8smXt3TCXg0R5eXzSo9qDT6VZYbFWCNQ2x/YieK5Bld96N9D4ajQrjRYUGs0ykFKF5//3T+A/3wDWycHxHhL5Gt/YCd97Dqo2cNvsiAXn+lT1RyB63zs+K45pwK4i+NY+KM/Vpj4ajRYUGs0ycSSMh+H1FvjXF1WfB8dmfZbTCSGxr1SZcf3mPuWBsZGrDWbKZK8OwYfdquuo5axPZ9eZqESpX/lMPFuvcjI28vhqNCuFFhQazQoRs6FtAv7sCvzJNYiGWFtRISA/B35rN/zuESUqVtpMaz2xparGuDqsXCu7p8Baw/E1UOLhQBk8Wau60eqGXxrNHFpQaDQriCOVAdKv2+EvbsFHvTA+nb4R1v0gTCjLg+OV8O3d8NIOKPRuzlXzTOnu4LTyqmgaVk26opl6cWSAS6iqmMZCeKQaDpQnzLM24fhqNMtBCwqNZhWwHdVf40I//KoDPuqCpnHmciyWe9UJwIQdRfDMVvjSNjhepXIlstFfYjWIWtAVgOYx6JiEvqDKsbCd5edZmEIlWJbnwNZ82FGsjKpKfFpIaDSLoQWFRrPKRCzomFCGWL/sgF/2AdGE38FCV59kwX0KkTC9wgvPVsJzdfD8dthdBjkPcOhdAqGET0fzqLLL7ptWWySz5aGJv8Vd4y0T4zyjwYSAPLfaLjpSAVvyodCnTao0mnTQgkKjWWVmbJ1jtvoTiELLGDSNwKUx1dBrOqoaT01FlQDxuyDPq/bs8zyQ64d9RXC0TPWrKPaDx1Ch9xl3zQeZGTMqy1FjPBSEgSCMRZRhVSgO4cTfMUeNWY5LjbPfrbw5CjxQkaNyI/K9aqtDj61Gkz5aUGg068BMXw7bURNcPCE24jbEJbiFclt0m0o0uI056+gZgybN4sz25pgnNGb+ODKxY5QYU5ehtjhgLgqkx1ejyRwtKDQajUaj0SwbvTOo0Wg0Go1m2WhBodFoNBqNZtloQaHRaDQajWbZaEGh0Wg0Go1m2WhBodFoNBqNZtloQaHRaDQajWbZaEGh0Wg0Go1m2WhBodFoNBqNZtloQaHRaDQajWbZaEGh0Wg0Go1m2WhBodFoNBqNZtloQaHRaDQajWbZaEGh0Wg0Go1m2WhBodFoNBqNZtloQaHRaDQajWbZaEGh0Wg0Go1m2WhBodFoNBqNZtloQaHRaDQajWbZaEGh0Wg0Go1m2WhBodFoNBqNZtloQaHRaDQajWbZaEGh0Wg0Go1m2WhBodFoNBqNZtloQaHRaDQajWbZaEGh0Wg0Go1m2WhBodFoNBqNZtloQaHRaDQajWbZaEGh0Wg0Go1m2WhBodFoNBqNZtloQaHRaDQajWbZaEGh0Wg0Go1m2WhBodFoNBqNZtloQaHRaDQajWbZaEGh0Wg0Go1m2WhBodFoNBqNZtloQaHRaDQajWbZaEGh0Wg0Go1m2WhBodFoNBqNZtloQaHRaDQajWbZaEGh0Wg0Go1m2WhBodFoNBqNZtloQaHRaDQajWbZaEGh0Wg0Go1m2WhBodFoNBqNZtloQaHRaDQajWbZaEGh0Wg0Go1m2WhBodFoNBqNZtloQaHRaDQajWbZaEGh0Wg0Go1m2WhBodFoNBqNZtloQaHRaDQajWbZuNb7AB40bNsmHo8j5z3mdrlwufRPsRGRUhKNxrBse/YxwxD4fT6EEOt4ZBrNHJZlEbespMe8Hg+GodeUmpXjgZnFpJybwh3HIRKNEo3GMA0Dj9eD1+OZnQBWayKQUnKntYNTZy4Qs9XF7TJNHj1+hP17dm3Yi3v+2MLyxu/u9wJBNs/LoXCYX737Ia3tnbPHXlxcxLe+9mXy8/LW+eiyg3t/U4UWXGuDlJIbt+9w9sJlHMdBAoYQfPELz1JTXbXeh6fZRGx6QSGlxLZtQqEw1242c+t2C6MTE0QiUeLxOIZh4Ha7KC4qZteOBvbt3kF5WSkul2vFb3hSSvoHh/jozHmi0SgAHo+b2i3V7N21k42mJxzHYWR0jOlgcHbSEEJQVFBAcXFRxuMXDIYYGRvDtu3Z9/N5vZSVleLxeMjG6ceyLNo6urjUdB0ncczVlRXEYxZSygd60pRSMjo2QSAQQJIsKnw+H+VlpXjc7nU6ugeL3v4BPjp1Ftt2kFJiGAaPP3pMCwrNirJpBYWUkng8TnNLB2cufMqtO22Mj08Qicaw7gr9AZiGwbmLl8nPzWH3ru0cO3KQg3t3k5OTg2Gs3KQgpcRxbBzHAdSkrCbPhVdxy/0s27ZxnLn3NgyBaZorMtE5jsPP33qXTy9fnf0MwxA8/+xTvPzi5zFNM6P3u93azg9+/CqB6SAzi9rqqnL+7t/6FjVbqsjKUIUER4Ij5dxKfJV+z41GNBrlhz/9OVdv3ObuIEV5aTHf+fY32NHYkJVCcTmoa9zBdpzZ00AIME1zXaKQEnV+Oo66HyT9g0azgmxKQTGzcn73g5N8cvYC4+MT6mYv714nzWE7DuFwmEgkwvDpMS5fuc7e3Tv42ssvUr+1dkOuNKeng/z41Tfo6e9HJL54Tc0WvvbyixQW5C/7/aWUhMJhJicDs6tzwxCEI9FFw9xLEYvHCUxNMxGYmn0sPy8n+Sao2RBIKRkeGaOts5uJycA9/x6Px+nq7mF7w1bERgvNpcBxJB98cppT5y5CYuHg9Xr5xm98kYatdRvyXqLRpMOmExS2bdM3MMj3//oXNF2/gWXZSZObEGqFbhoGwhAglZiYCbPPPHc6FOJi03WqKsuprdmCy5XZajsbiFtxOrt7aG7tmH3Mchzi8fiKvL+c9/fcGItlrXxk4j/zpZ9eSG1Munr7GRubWFBcRmMxWtu7ePLEI3g9nnU4utVDSoeh4VFuNbfORiJzfD6mgqF1OyYtYTRrwaYSFI7j0NHdww9/8gtu3m4hHp/b2hBCkJ+fx9baLWyt3UJ+Xh65OX7i8ThTwRDDw6P09PXRNzCsqjAS4kL9WbljNA2mdfM5AAAgAElEQVQDt9s9+55utwvDNFiVS342FO/MfYeV/DIazSJIKblxq5lYLLbgv9u2TU9vP4GpacpKijffqj1x75jd2pRy3ZSxAAzDwONxz265GEKoBZVGs4JsGkEhgcD0ND/7xa+4drM5KUzudrnZ0VjPS89/lu2NDeTn5WLOC7M6UmLFLYZHRmlubePt9z6mr28AZ4WP0TAM9u/dxe//znewHHv2sdrqKkxzc4V9NQ8uUkrC4Qi377SpPAKUoC8pKiIwPUU8rhJWR0bH6O7ppfQ+Eng16SOE4KFDB6goL0POq/Koq6le70PTbDI2jaCwLZuPT56j6frNJDHh9Xh4+onHePnFz1FaUrxgoqCJ8oLYWlfDlupKdm5v5OOTZ/nkzAUMIVY0eFBWWkJZacnKvaFGk2VIKbnZ3EIgMDW73ZGb4+czTz3GhyfPMDI6DkBgOkhLWyf79+zC6/Wu5yFveirKy6goL1vvw9BscjbFslhKSXNLK2+88z6x2Fx+gGmaHD6wj6+/8iLlZaVpVR24XC621m7hq6+8yN/81m8kyh9X8+g1ms1F3LK4ev0W4Uh49rGS4iKOHznIlqqq2bC7bdvcuH2HwHRwvQ5Vo9GsIJsiQhEMhnjvo1NMTEwm+SHU19XwN//Gb1CQn59RSFUI5XR44uGHiMViGZc/ajQL8aAYPI1PTNLR1YNlq+0OwzCoKCulsrKcPbsauXWnlVgshuM4tHV0MzIytiZ5FEtVHm223yAbmD/ekuRA71qP93pce6kq3TbjObcpBEVP/wAdnT1JP6Df5+Ppxx+ltKT4vnwkZqpB/H7/Sh7qmrLU6Xz3Ba5ZXYKhMIODw0yHgkQiMUyXQY7fT0lRIaUlJRuyimghpJQMDo3QPziETORPuFwmW+tq8LjdNDbU4/f5ZpM1Y7EYt++0sn1bPR7P6plcKdO0cYKhENFolFg8jiFUomJ+Xh4lxYUU5OeviE/E4tfdg5MQHY/HGR4dYzIwRSQSIRaP4zJNvF4veTk5lJWWkJubsyaTaigUZnB4mOlQiEgkisDA5/NQWlxMWWkJbvfKToNSSqang4xPTDI5NUUsFsOybFymC6/Pg9/nw+/zqsKA3NwV9TlabzaFoGhubWd0YiLpseqqCvbv3bnmN+pIJErTjZt0dPWk9XzDMDi8fy/bt9VnfDOzLJtzFy5xs7l1Nvnt7mMZGh5JKuwYHBrhr378Gj6fl6UkhWEIdm5v4OnHH81qJe04Dldv3ObajduzGfUul4sTjzxEw9batN5DSknfwCCnzn5KJKIcTIVhsGfnNg4f2Id7GW6OwWCITy9f5fylJvr6B5kKBolGo5imSY7PR0lxEdsbG3jikYfYWle7qpPqWhCPW3R29xAKhWenT7/Xy9a6GkzTpKqinJLiQiYDc94Ut1raePbpx1f0u0spiVsWvX39XLxyg/bOToaGRpWgiMWJxWMYwsDtcVOQl0tpSTHbGuo5dmgfdXU1+LzeJc/7to4uTp/7lGAocs+/qchL1+z5CBCLx3jz7Q84fe7Sku8rgLLSYr7wuWfIyUl/MRMORzh/qYnB4eE0PWAEzzzxGJXlpWl/RiocxyEUDnOp6SZN12/S1z9AIDBFOBJRrsSmic/rJTfHT1VFOTt3NHLi+FFKSxfObVvys6TkdnMrJ89eSDLVe/G5z7ClulJN6sEQl5qucf5iEwMDQ0yHwkQjERACn9dDSUkxOxob+MyTj1FXU73sfkrxuMXwyAjnLzZxu6WV0dFxJqemicZi2LaNyzDx+bz4fD58Pi9FBQU0bqvj0L691NZU4/V6Nnw0fMMLikg0SvOdttmJYIbG+jqKCwvX/HiisRiXmm7wyenzaT3f7VYrpG0NWzNOaHEcm+bWdj745PSC7p/J/hCK8ckAp859mjI6YZomtmPx1IlHslpQSClpbevk7fc+wrJtBOD1edlWX5e2oAAYGR3n/Y/PzE50LtNEINm/d/d9CQrbcWjv7ObNd97n6rVbTE5N3fNbBIMhhkfHaOvo4nLTNZ468Qif+8yTFOTnZfWYL0UkEqW9szspMbqoqIjqygoMw6CkuJCqinI6unpmy7L7B4YYGRunYAXM1kAZpHV0dnP2/CUuXb3B6Ng40VhswYk2HIkQCEzR2z/IzeYWTp+9wO5d23ns4Yc4emi/SspegOHhEU6e/ZTx8YkF//3ua8+ybC5fvZ46KigEjfV1fOapExkJikg0yvlPr9B042aSM+5iGEKwf8/OFRMU4XCE67ea+eCTM9xuaWN6OpgkqGYIhcKMjU/Q0zfAtZvNnD53kacff4QTjxylqLAw7fNeOg69/f188MkZ7MS9z3SZPHb8KOVlJXR09fD6L3/NreZWpqamce6KDoXCYcYmJuns7uF2cwsvfeFZHn/k2H2JCiklk4EpPvjkNCfPXGBoZIxo9F5zvygQDM/lFQkhuH7zNu9/fJotVVV86YVnObR/74a99mGDCwpHSkZHxxgeGU06eYUQNGytxe/3rf1BSYltWYvW3y+EYzv37Q8hkcpWN4PXyyUcQ2cwVth/YzVxpINl21iWhQBclitzp04psW1rnjCTC94Q0z2evv4BXn3zHZpb2rEtS20xCTF7s5hvoha3LPoHh3ntrXfo6Orhd77zW+TlrU04eKUZHRunt29g9nwUQlBeWkxlosLA7fawe2cjFy5eIZ4QHWNj4wwMDrGtfnkuklJKLMvm/KdX+Okv3mJgcBh71tqe2eNRhVsiadKXUhKLxRkaGWVkbIzW9k4O79+DscgEM/Palb7uBNwz+aX73pZtEYvF0zpvDcNApiE80vpcy+KT0+f42RtvMz4xec+9WP2kM+e98sSRUhKOROjo6mZwaIje/gG+8cpLFBQUpL0FcPdvIBx1zd5sbuGvfvQq3b396liEQMyTcvPPBxVR6+W//Pg18nJzOHxgX0ZRAiklE5MB/tNf/Iim6zfvEa5KkKoxkPNeM/MnEosRHYszNRXk4IE9HNy3Z0Ne9zNsaEGBlAyNqH26GYQQ5OXlUllZvi4twYUh1D5hbu6C/25ZFtFYdN5kvYyLWgi1D19YuGCEwpEO08FQUmttl8tFXo4fQywdDzFcJrkbJX9ELvl/7+9NlkEkGuO9j07T0taBZVm4XCY5fj+lxcXk5PqRjiQwPc3ExCThSGS2YVMkEuVi03V+/NobfP2VlyjI31jdSh1HCanBoZHZxzxuN7t2Nia22FRPiz27duD1eomHlHNk3LK4cu0mDz90BJfr/vvMhMJhTp4+z6tvvsPY+JxDp0Cd9z6vh4KCfPJyc/B4PImuwzGmpqaZDoZmQ9O2rX6Lpc4Ij9tNUUG+auRyFxJJOBIlEp2LmgohyMvJwZ3qnmQICvJyM97+NITAl7jvLCQo4vE40QwWOekSi8c5d+ESr9095kLgcbspyM+nsDAfv8+LZVkEpoJMBAKEw5HZPkahcIQPPj6NlPDNr7xEUdF9RpalZHIywKnzF+nuG0ACfr+PvISJoQSmpoKEI2HC4cjssTpSEghM8f99/6f8wT+ooLqyIu1zMBQK89obb3P56nVi8xyIXaaJz+ejqLCA3JwcfD7VKt6yLIKhMJOTU4QjYWKx+KzovZ92BdnGhhYUtm0zODxMKBROerwoP5/8RSb01SbH7+fzn32SY4cP3PNvUkqabtzinfc/WRH7a7fLxWefOsHRwwcWjHBMTk7xw1dfp6enb/bmWFNVyde/8hKFBQUpymEFhQV5G7al+noyNTXNpabrxGJx/H4fx44c5MTDD1FVUY7P51U30VCYrt4+Pjlznhs378zejCzL4tzFK+xobOCJR49tqD3VaDTKjdstsxOXEAK/38fBfXuSnldRXkr91jpu3G6evYneuHWHwNQ0JcX3N5lYlsWlK9d59Y23GZtX7WUYBsWFBRw9tJ8D+3ZTXVWBz+fD7VJRrFg8TjAYUiH4G7e5cfsO4xOTKT9v545t/M53fgvLvlfIW5bNex+dSuzvq8nd4/Hw1ZdfpLFha8oVuDeRZ5AJubm5fPnF5/jMk4/dMzFJKblw+Srvf3x6RfviOI5DR1c3P/n5LxkZG08a84qyUp48cZwDe/dQVFSAx+3Gtm2mgyG6unv55OwFbjW3zt4HLdvm7IWL1NZU8cLnnrmv+44jJe+fOktLazsu02Tn9gYeffgojfVb8ft8SCAYCjEwOMT7H53mTkLwz3yX4dExLlxs4qXnP5vWYtRxHFrbO7l09TrxeQs6v9/HQ4cOcOzIQWq2VOH3+XB7XBjCwLZtotEYgakp+geGuNXcyp22DkbHxzP+vtnIhhYUsXic3r7BpBW4EIKCgjzy8tZHUCgfixrqarbc829SSsYmAiuW1SuEWNKwZmxsHL/Pq5ZoiXuM3++lsWHrqplrOY6kuaWdn73xTpIbaTp09/YlVoYbW6nbjoMdi+Fxu3numSf54heepXCBUG5tTTXb6uv40c9e58Klq7P9ZAKTAT46eYbdO7ZRWVG+Tt8iM6SUBKaDXL1+K2lCq66soKa6anbFJ4TA6/Fw5OAebt5uTvzSamV59cZNnnnisfv67NHxcd585/0kMWGaBrVbtvC1V17kwJ5d+P2+RSeq7dvqefihw1y/eZs3336f8cmlRUV+Xh75eQtHkCzL4srV60mrXNMwqK2pZvfOxlUJabvdLhobti64ypVS0jc0tOKfGwqF+fX7J5MSQQ3DoKqijO98++vs3bkDj8eT9LkV5VBfV8Pundv5/l+/xvlLTbOiKxgK86t3P+TIgX1UV6UfJZhBSsmNm8243W6OHz3EN155iYry0nu6K+9obGDPjh3q8y83zYoK27a5daeVZ558LK3micpHpYWx8blzzu1289ixI3z9Ky9RUlyMMIwF82aqqyrYtaORxx5+iJ6+fi5caqI4Q3uDbGRDCwrbtpmamk5anQsgNzeHnHUO1y90YkgpN71JlpSS5tY22jo6M65LdWwnSelvZFymyfEjB3nxuc9QVFiw4PlgmiZbqir58gvPMTQ8OpuoaDsOd1o7uH7rzoYpKZVAa2sH44G5iVgkEv/uPn6Xy0Xjtnry8nIJTE0jJcRtm4tXrvP4I8fwZNgszLJt3nz7Azq7e5NC7qXFxfzW11/m4P49KSM9hmGQl5vDsSOHqKqs4PzFKxsyOrfgfWcVPkdK6O0f5NqtZubvsOTl5fLKF7/Awb2Lj7lpmlRWlPGNr3yR0bFxWju6ZkP+I2PjvPvBSb71tS/fV9WPAHZtb+CrX3qeLdWVC3++YVBRUcrnn32Ktq6u2S06KSUDA0NMTAbSEhTTwRDdvX1J280lRQU89fgjlBQXL3n+zORT+f0+djQ2UFtTjXTkhhcUG++KmYfjSEJ373Um9u5cK1xbrEkf27aJxmJEo5n92SxiAqAgP5+nHn+E4uKlM9cNw6CxoZ5Hjx+dzTMAlbV/5eoNpoMbw0VSOg5Xb97GspJt77c3NmAY904spcVFVFXORV8cx6G/f4DB4dHMPldKenp6OXn6fHL/HreL3/z6yxxIQ0zMx+Uy2Vq7hVe++HzGEbYHCcexuXbjJhMTk8xIFiEEu7Y18PBDh9IScNVVFXz5hefw++aS5x3b4drNWwyNZHYegEq0dbvdPPbIMbZUVy39XCFUxGhHY9LjwUiEoaHhtD4vEo0SuKt6Kz8vj9qa6vsyUsykqidb2dBXjOM4RCKR5AiFEHg83qSs3sWwLJUVHYvFlvgTn21mpEkPwZwCz/TPZsAwBHW11dRvrUWkMSmZpsHDRw9RUlSU9Hhreyej8/amsxUpYXR8gs6e3tnwtRCC8rISKsrKFozKFRTkU1NdlbSKGw9M093Tl9H3tW2Hk2cvEgyHk6ITx44c4vjRw/clCoQQqZMnH3CisRjnLl5NqnJxu9088fjDSQJhKUzTZOeObTTUz5V3O4nW75meBwAIKCwsYM/OxrREZE6On4atdUmPxWIxBtMUM47jzLrBziAlK1I9s1HZ0FeN4zhEwskRCkMIFSpLMTfF43EuX7tBb+8Ajly8zGqm7fmJ40fJXadEz42E6ipZSFlZScYCYWoqyODwcNIqdyNiGib1tTXk5eakvetTWFhA7ZYq+gYGZ2+koUiEwaFhGhu2rt7BrgiSvr4BRkbGZh8RwJaqSooXydj3uN3UJ8yuZkRIJBKhvbOLh48dTntCn56epqe3L6myIcfv56FD+3G7XZtGpGYTEhgaHmFsLDmRsKykiB2NDWmPuRCCgvx86mq20NzSPrt1EIvHGRweJh63Mtr2EEJQU11JRVl63hpul4uiogLcbvdscqhj2wQT1Uep8Pt8FCbyHmau2cmpKTp7ejlQkI/5AJ57G1pQSAlygSbjYn7R7yJYls25T69w5vylJeu2Z07Sg/v2aEGRBkIIjh09xJde+ByuDCsULl29zg9/8gsCU9OrdHRrg9vloqqqMiNDLJ/XQ1VF+fz8WWKxOMOj44ncm+y9Oam8mfbkG7EQ7Ny+Da934TEwXS5qa6rxJcoJZcIHpL2zh2gkiis3vfLRiUCAkbvMpYqLCqmpqcrqMdvQSEl7Z4+qTJoXRaivr8u4OsU0DbZUVuB1u2YFhZQOQyOjxOPxjASFIQTbtzVktMXl83rxeuYEhe1IopH0KvBy/D5KipOr5cYnJnnvw1OUlpZQVV6OaRoP1Hm4oQWFkfB8mH8TdhIGNamQSGzbwbYtbHtxQWEYhqoieYDDWJkghFLupcVFGfuA5OWpMlVlOrRxx9vt8VBaUpTRjcSVWC0ZhoGTyAWwLIvxebX92YplWVy/2Zx0HbndLnbu2Lbozd0QgrLSEqorK2iZbkeicqJGRkbp7R9k545taUV3xicCTN/VrbS4qIDC/JVx3dQsTN/AIJZtzV6lQsCWyko8bnfG+QPFxYWYbhckqv+lhPHxyQW9dZZCApXlpWltM87gMs2khY90JHErPb8Ot9vNjsYGzl9sml0E2bbNpavXmQ4GObhvD9satlJdWU5hYQEu01T3t00sMDa0oDANgxy/T53NSY53UdLJbTYMgSEMZNL5J5EOG3pC06wvHreL4sLMJjQhBPl5ebhME9uxk9wEbdvOWj8KKSVdPX0MDg0n5TDUbqmmvHTpba+iwgLqa2tobe+EhIganwzQ0t7O9m1bF3WpnM/0dPCeLbKykhK83swqRTSZMT11t7W2oLQ080WEMiLMw+Oai0RIKYmEo0su9BZ8L6AgL/1txpnXkHDzVKdv+g7Bpmly+MA+Lly6yuWrN2aTgqPRGDdu3eF2Sxt+v5+CvFwqysvYvWs7e3fuoLamCo/HgyHEphMYG1pQGIaB3+u75wSKWzaWbS8ZcjYNgy1VlezZ2TiXWCQlkVicnr5+otGVd5XTPBgYhoHHnfmE5nZ7EquruZhbLBbHSZTUZeONx7ZtLl+9QXheLx3TMNi3eyf+hInXYrhdbrY31nPmwkWmElGGWDzO7TvtPPHI8bQcE8Ph8D1blj6fN6UTrOb+kVISjkaSeoYYQuC7y3MiXVwu8x4hErfjxKzMzf9crrVtrldcVMhzn3mSoeFR+geHZr1kHClx4haWNc3U1DR9A0NcuXYTIQQ5OT727d7JkQP7qN9aS3VlBT7f0s3oNgobW1CYJnn5uSRtYklJKBQiEoksmW3s8Xh4/rNP8ZknHk3yWB8YGuY//OcfMDA4tLoHr9m0CEPcV9myy20i7jK/siwrq7PGA9PT3GltTyr5dXvc5BfkMTgyumRkRUo5a4MNwdnHmlvaGR2fSE9QRKP3JFV7vZ6Mwt6azLAs+56okGmaC5YHp4NpGPecJ7btYMUzLCNfh/nYMAwO7d9DXm4O77z/Cddu3mZ8nrna3X8DBALTnLtwhctNNygrKeaxh4/yzJOPUV5WuuFFxYYWFB6Pm6rKcgwhmDm9lV/7NMFgiOK7yvDmM9PzA+YSLZW3f3RDGAlpshh5b5fXtF6m9jmSH1SdrLKWoeFRevoHkqIE8bjFex+d4sy5T5e+QUp1zc3PgVDNlibp6Oqlvq4mZQjdXCBkrFbO2SvCNjpCLFaUf/9ddO5+pSFE8kIxi3G5XOxo3EZNdSU377Ry/UYzzW0dDA6NEI/FsCwryc0ZVHlsJBqlp3+AX7z1Lj39g3z7G69seFGxoQWFaRhUV5bjz/ETTzQIk1ISSDT70WjSZSXzHh3p3FevFitu3dO90utxY4js3Ge1LIue3n6mAtN3teq2GBhYRoRPSm41t/Do8cPkpRAUfp/vnhbj0VjsvjvFalJjusx7tpNVU7X7K/d2bGe2BfkMhmniyaBKar0xDEFubi7HDh9k/+5dTEwGGB0fZ2BwmIHBIfoGhugfGGJkdAzLtpPOz2g8zsUrVyksyOfb3/jKhs7/2dCCQgiDspISCvPzCMwTFBOBKUbGJnAcZ0Pa52rWFiklcWvlzMts2yE8r9NkuqiJMLnroNfjydpzOBaL097RteIOpxLo6ullcjKwaNfeGXw+7z3jMx0MZpzQp0kfAfh9XkwhsOd17JzpIJrJ+SpReTN3C3CXy7UhI8Uzdtp+v4+qynL27tqJ46iGYJNT03T39PLam+/Q3d2LlegyCupaOnfhMocO7OGhwwfvEckbhY0tKAxBWVkpJcVF9PQNzP44tm3T1d3DQ4f3r3tPD83qM/8GNtNsKlNxEI2u3Ko2Ho8zPhFAyvSjtk6i9fL8VZ5pGOTm5mCY2SkoJiYDdPX0IeeNm2kasxns6SJRN9T5ZYIjo2MMDo9Ss6V6ydcWFOTfs1oeHhkjEomm1Y9hbdk82zCFhQUYpjkXWZCSgeER4nErsxV24ryPW8kNHnNz/Vlb2ZQuQghMU2CaBi6Xm5zcHKoqytm3eyfvfniSt3/9IROBOevuqWCQazduc3Dvbrxeb4p3z042tqAAcnP87Ghs4HZLG5F5meYdXT1MTQcfbEEhZv8ziyM3W0msSLQGnvuejiMzWjWrffvAijl0xmJxRkbHkNIB0rspKhEymSRqPG43ZaUladnIrwe9AwMMDo8knU31dbV8+YXPkZuTk/b7SCn59UenOH+xKTFmEApHaG5p5dCBvUsapBUXFVFUWMDoPNfGyYAKN1dWLNyFd01YpDngZmFr7RZcbheWZSMTd5TevoFZM6p0t+iklIyOjWPNi1AIISgvKca9ifoxqVQoAaZyXn7xuc9gCMHP33qHYEgZcEjHYWIiQCQa04JivRBCsGfndj4+fT5JUHT39NHR2U3FBk9yWQ6mYeK6uwwxnuhNQlbn+qWNEOBxJd/AHNsmFAqlHX61bFutru6jTG3B97MsentV6XG6DX/CkSi9AwNJj3k8CUGRhT9UNBajrb2L6XmupqZp0LhtK48cO5KRH4GUkmA4wqWm68Tjzuxjl5pu8MpLz2P6fItew4UF+ZQWFykviwTjEwHaO7vZs3P7ou2jV5OFeoE40iEciWZt+W8mCCFo2FqL1+NR99yETuro7GYiECA3Nz0xKYG4ZdHbN0D0bkFRVrqhcigyQQiB1+flyKF9fHjq7JygACYDU0SiUQrJtuhaemRnLDVDamuqqa/dknShTgSmOHX2U6amg5tqZZAJhmne0wo6Eo4QicRWNgtxncnNy00KjzpSMjwylrbT3tjYOJ2d3Su27247Dp09fUxMBtIe5r7+AQYGhpPO1ZLiYirLy7Iu211KyfR0kKvXb83uoQP4vD727dpxX6Hq3Tu2UZCXN3sNSykZGBympb1rydfl5PjZfVczqHg8xrkLl5gMBNbtPPd4vclRM9thamp609yLiosKqaupThJrU8EQl6/eTPKnWAopJcMjo/c0lcvJ8VNVWZ6xSdZGwhDK5TlZeGa+VZttbApBUVRYwFMnHk4yB3Ech8vXbvDWOx9kln28sX/PJExDUFRUkPRYMBRmYmJikVdsPIQQlJUkO/RJKeno6iGSRmJkPB7n+q1mOrp6VuxillLSNzDIreYWHCf1uWdZNqfPXmR8YnL2MSEE+/ftUu3PV+SoVg4poadvgJ6+uYiKEIL83Bz27t55H++owsD79iS/Nm5ZnDl/ccnfxRCCxx89RlFR4ewELiW0tnfxg5++nrF9MyS6SC5r+0tQkJeXJHJsx2F4ZHTTVJ+43W5OPHIsye/DsizOXLjI6Hh6HXLj8TgXLjXRNzA4+5gQgqryMhrqapd4ZXYgpcSZl1iZCY7jMD4+mWQIByqhcyN3ut0UgsIwDB46cpAnHn046SKORWK8+/5HvPfxKYKhex317sZxHGLx+Ka56F0uFzXVVUkTUigc5sNTZwklxmOjK2IhBEWFBZQWz5kgSSnp6e3n0pXrS1Zv2LZNe2c3b779/opXKgSDIT48eZbu3r5FBa2UKt/i4uWrXG66NnsMQggKC/I5sHd32q2g1xJHOty43UIsPucmKwRs21ZPXl5uxiF9IVRDtaOH9iVPwrZNS1tHktC697WCwoICXn7huaRoXNyyOHfhMu9+cJJQOHxPOe5CSCmJRKPcbmnjT//9n993GaRhCCoqSpIaWzmOw4VLTQwMDWMl3BQ3MkIIdjY2UF1ZkfR4V3cvH508SzQaW/Q7zlRV3WlpV9fePAMrt9vFw8eOUFhYsOBrs4mx8UnOX7zCwNAw0Wg07fuplJJwOMy1G7cITE3NPm4aBlUV5Rs6729TCApQk+cXv/AsOxrr56IUSKaCIX7y2lv84K9fo7m1jekFtkCklIRCYW7ebuEXb/2a0bHNsYJ3uVw0NmzF75+zJ7dtm6vXb/PjV1+ntb2DycmppIvh7j8bgYKC/HtWxlPBIK+++TYnz1wgHA4nfReZKHG7cfsOP/jJLxgYGsFlptfdMl2klNxp6+CHP/kFLW2dC66UY7EYTddv8tobbyd1zHS5XBw/cjCjVtBrhZSSUDBEa1s7jj03pkIY7N21PeMOszMYhkFNdRVlxclmdJOBaVVJssS5aJomjz18lCOH9iflzPZ7MkgAAA0HSURBVIQjEX7+1ju8+vqv6OruJRZb3E4/GovR09vPW2+/z3/8zz+gtaPzvs9/IQRbKispLS66Zwvnv/zoVS43XWd0bJxQKDxr1bzRrjshBBXlZTx67AjmvDGPxeK8897HvPnO+4yOjS34XcKRKFearvNffvwqgam5+7FhGGyr38ozjz+ataXS85mYmOCHP32dP/l3f85Pf/FLrt9qZmx8YsmomCMlI6NjvPfRKd754JOkFg85OX727dmZUYfVbGPjxlbuQghBZXkpv/HlF/jLH/yUvoE5X/WJyQC//ugUV67eZPeu7dTX1ZCXm4PP5yUYDhMITDM0PErTtRuMzbNNncHrdiNSlO45jsOFi00ML3IRASChpb0jKZzq2DbXb93Gsqx7bJfnf7figgKOHj6A35/+itUwDGq2VHFw/x7OX2yaXXGFwmHeff8Tmm7cpqa6iqLCAnJz/EmfbwiDhq21HD96KOsmtbvx+3wc2L+bM+cvMj4ZmA1FDgwO88Of/JzWtk7q6rZQWlyEaRiMBwK0t3dz/uIVJgIB/F4PO7Zv405rB6FweNnH43G58Pp9TE8Habp2k7HxCR45doRtDXUU5OcjHcnY5CR3Wto4d/EKQ8OjSY21qivKeerxRzJuBb1WDAyPMDA0nFQtVJCXR31dzbImgsLCArZsqWRwZG48QuEwnV09HNq/Z8ncjPy8XF743NP09w/S09+PbSuBPD4xyeu/eo+rN25zcN9utjXUUZifj8/nw7FtwpEIo+OTdHX3cvN2Cz29fcRtm5LiomXtfubl5fLEieP0DwwRSQgZ23G4cu0m7Z3d1NfVUlJcRH5+Hi7X3JgJBEVFhTx94mF8aUSnbNvmyrWb9A8MLVq9JaXkVnNrUuRVSsnZTy/R0d2z6HsLBNVVFRzct3vBvkher4enn3iU67duc6etc/Z+Ozk1xatvvE1rWwdHDu2nurKCnBwf8ZjFyPg4d1o7OHvhUiLHaC53orAgny89/ywFBXlZf88BVTEXDkfoGxikq6uH9z86ReO2erbVb6Wqspzy0hK1heF2EYlEmZ4OMjA8zMXL17h9p5VoLD57nrtdLg7u28OBvbsRG7gPzaYRFKBWKvt37+S3vvEVXn39V7R2dM2qRdu2GRwZYXBkBLfbjdfjweUyicfjRKKxBcObhmFQW13Fc88+RUF+3pKfLaXkg1NnuXb91uKhPpTwmP9Zlu1w8co1Ll+9sWh5oBCC7dvq2bWzMSNBAZCfn8dzzzzB4OAwnT19s5GIuG3T2zdAb9/Agq8zTZOnH3+EY0cOZv3FLYRg1/ZGjh05yIenzs2uRB3HYWxiknc++Bif10tOjh9DCMKRqAqDOw4ej5uHjhxk355ddHT1zLZQXg75+bk89sgxPjp5lunpIB3dvfT0D1JcmI/X60VKNVEGAlPY827yQggK8/N54bln2Fa/NStXaVJKOjq6CATmqjvUarWUstKSZb233++jrraGK9duzV4jlmXR2tFFLB7Hv4SgME2T7dsa+Btff5k3fvkuzS3ts9tdtm3T1tFFZ3cveXm5+H1e3C43UjrE4xahcJhgMHxPT5DlYJomJx4+Rlt7NxcuX006JycmA0xM3ljwdUIIttXX8fDRQ+kJCsfhk9PnuXCpacnIxt3ujFJK3vvo1JJN1ATwyPEj7NrRuKCgEEJQVlrMN77yRX786htJoiIajfLp5avcbG4hLy8Xj9uNbdsEQ2Gmg6Gke+CMmHjh859h395dWXnepyJu20xOTXOp6TpXrt0kN8dPbk4OHo8b0zCJW3Gi0RhTwRDRaCQpV9hlmuzdvZMvv/hcIg9w/b7HctlUggJUstCRg/soLMzn52+8w6dXrmHbVlLmcXwBZ7b5GEJgmAaN2+r59tdfYUdjQ8qMYwnYlkUsHs84ZGnbzpIVBkII1STqPpZMMyfrN3/jS/zFD3+mfAM2UGg1XfJyc3j+2afp6u2npa0j6YY10wY8HInMPiaEwOVy8dDhA3z9lZfoHxxeMeHk9nh58tHjxGNxtZ8cV6ZNw6Pji77GMAzy83L5m998hUf///bu7bmN6o4D+PecszdFsSVLxrJkSXYcAsEd7oQM6W3azpRJ24FSyjAMtDPQznR4aZ/4j3ihfcgTM33oSwaY1gyBFkiBENJgW5IvYFvW3dpd8bC7so3jYOW41HG/n2ePtas9Wn119pzf78zDh3ba0+/18MG/P9mx5kQIgWJhQruQlGkYmCpMwDIUWuH18zwPlcVlrK6uI5fN3PQaWZaJB++dQSoxjD9feB3vX/4Ivu/31094nodqdQPVvZdk9FtKDw/FtRbDCiGQTo3gV0+chxDA7KV/7XzG3ju4ajCu593SfSeYKd17nYgQIuxBsff/NQwDM6fvwjNPCbz62gXMLZT61V57CBaBR9sib/T/hRBIJIbx9C8ex/fOPQrnNqq/IETYFC0ck/2qob6PWr3R76C7tWl/p2iszZw+hReefSrYNXM7pwkcwUABhM/iigW8/Lvf4K3ZS3jj77OoLK6g2QqeWaK3NeCBYGAHIULBsW3kJ8bx3bOP4LFHHwp6BewzMVumBcexD3yrmhCDVx/czjAM3H/vDKaninjr7Uv48PLHWF1bR73ZRGezC8/1+lOPESVVWFhm79cUQsA0DcRsu//rTkoZrlIe/FiVlLDt8D0Mr85+z1sIgfxEFi8+/wz+cuF1XL0WPL7wtt3Eo+tsGAZGkgk8cN8MfvnzxzF0PI6VL1bh2DZiTnBDk2p3S+W9XtcyTcQcp/8eOpaFZGIYz/36CYyOpnDxzdl+Df9ez+8Pj6CSnoTjOJgq5vHkz34arEM4pKu8o+2iC6UK7G2BRwiJe+6+te2i20mlkMuOI51Oh4Wqgjeq3eng+twCxjNjUOrmY0FKicliHn96+SW8/e4/cfHNf2C+VEG73Ybn+f1W8P1jByCkDMaeYyGXGcPDD96HH//gnPb5CCEwkc3g9799DmfPPITZd97D0vIX2KjV0el04Lre7l1AQsAesA24aZrhF/FB/0AQME3zGwurybBd/St//AP++reLeOe997G2toau5+9aqBiFCKUU4sdiODk9hfM/+SHuPnUShjHAOiYhYCgFx7HhucF1UkpBqsH63kgV3nNsB0APSu3uU7KX8cwdePrJ87j80RVUFpfw5ep6f+bTDxv9RWFWYGusSSlhWSayY2M4e+YB/Oj75xA/FrstZ2a+TvSO0s/UG/A8D9WNGpZXvsTV/1zH5/NlbFQ30Gg20XVdKKUQc2wkEwlMTxVwYqqIsdFRJBNDAxfn+Xy+hHqj8c1/PCABIBaLoTCR3fdgv5FobUGz1Ua93kCz1ep3wvv6MBAIdk/ksuN7TsH5vo9SZQnVjRqim5mAQDod1E8YNG1Xa3VUKos7OvM5to18LhuGjP2dY73RwJVPr+HyJ59ibr4cFLnq9RBzHIwkE7hzehL33HUnctkMrPDmXa83sFBehOu5W+eRGsHYHembftBd10WpsoRafesRgGVZOFHMwzRNbHa7KFeCLaQfX/kMa+tVdDY3oZTC8XgchXwW3zl9CpOFPBLDw1CHtMx2pNVq4fp8aeeUNQQmi3nE48e0t7hGiyO3zyZJKTE2mkY6NTLQmIo++4vLK5ibK+Ha3DxW19bRbrXRdV1IEXxhplIpTOazmD4xidz4GJKJYRiGcaC/Fn3fR2dzE7V6A81GE5vd7q7HEJGY46BYmNjX9kHf97FQrmBjW4Gxg5QYGkI2m9nXYtter4dut4vK0grmF8q4cvUaFpdX0Gy24XpdSCFhOw5SyQROnihieqqIXHYcx+NxyD3Wj93stdbWq6gsLW/9YAjH4fF9FtYCgr4vC6Vtn3shMJJIIJfN7OsYonOu1upYXV1HqVxGeXEF1Vqt3/U6GGsSpmlgJJnERC6D6ckCCvkcUiPJAx9r/0tHPlBs53k+fN8LB4GLdqcNy7JgmiZUmBylUodu3z8NLnh27sPzXHQ6m3A9D8diDqRSUFJ+630Cgm6MwfG02h1YpgnLMiHDYzkqN5TDKlq75Pd6cN1gTEgpYFs2lKGC63CDVug0uOiL1vP9fk2PTrsN0zRhRmNeqkMfnm+F7/vBuqgobLguWq3g3C3LDB+RSKgBZ1JuF/9XgYKIiIj+O45eRCQiIqJvHQMFERERaWOgICIiIm0MFERERKSNgYKIiIi0MVAQERGRNgYKIiIi0sZAQURERNoYKIiIiEgbAwURERFpY6AgIiIibQwUREREpI2BgoiIiLQxUBAREZE2BgoiIiLSxkBBRERE2hgoiIiISBsDBREREWljoCAiIiJtDBRERESkjYGCiIiItDFQEBERkTYGCiIiItLGQEFERETaGCiIiIhIGwMFERERaWOgICIiIm0MFERERKSNgYKIiIi0MVAQERGRNgYKIiIi0sZAQURERNoYKIiIiEgbAwURERFp+wpI1k+k3Bw4YQAAAABJRU5ErkJggg==" vertex="1" parent="1">
          <mxGeometry x="-1060" y="841.31" width="200" height="150.75" as="geometry" />
        </mxCell>
        <mxCell id="KeAtxHLE9qD8ygLtUr-u-35" value="" style="endArrow=classic;html=1;rounded=0;fontSize=12;startSize=8;endSize=8;curved=1;" edge="1" parent="1">
          <mxGeometry width="50" height="50" relative="1" as="geometry">
            <mxPoint x="-816" y="926" as="sourcePoint" />
            <mxPoint x="-721" y="926.25" as="targetPoint" />
          </mxGeometry>
        </mxCell>
        <mxCell id="KeAtxHLE9qD8ygLtUr-u-38" value="" style="endArrow=classic;html=1;rounded=0;fontSize=12;startSize=8;endSize=8;curved=1;" edge="1" parent="1">
          <mxGeometry width="50" height="50" relative="1" as="geometry">
            <mxPoint x="-363" y="935.54" as="sourcePoint" />
            <mxPoint x="-268" y="935.79" as="targetPoint" />
          </mxGeometry>
        </mxCell>
        <mxCell id="KeAtxHLE9qD8ygLtUr-u-39" value="" style="endArrow=classic;html=1;rounded=0;fontSize=12;startSize=8;endSize=8;curved=1;" edge="1" parent="1">
          <mxGeometry width="50" height="50" relative="1" as="geometry">
            <mxPoint x="-974" y="704" as="sourcePoint" />
            <mxPoint x="-973.5" y="824.75" as="targetPoint" />
          </mxGeometry>
        </mxCell>
        <mxCell id="KeAtxHLE9qD8ygLtUr-u-40" value="git push" style="text;strokeColor=none;fillColor=none;html=1;align=center;verticalAlign=middle;whiteSpace=wrap;rounded=0;fontSize=16;" vertex="1" parent="1">
          <mxGeometry x="-956" y="749.5" width="60" height="29.5" as="geometry" />
        </mxCell>
        <mxCell id="KeAtxHLE9qD8ygLtUr-u-41" value="image&lt;br&gt;build &amp;amp; push" style="text;strokeColor=none;fillColor=none;html=1;align=center;verticalAlign=middle;whiteSpace=wrap;rounded=0;fontSize=16;" vertex="1" parent="1">
          <mxGeometry x="-851" y="862.52" width="127" height="48.5" as="geometry" />
        </mxCell>
        <mxCell id="KeAtxHLE9qD8ygLtUr-u-42" value="image deploy" style="text;strokeColor=none;fillColor=none;html=1;align=center;verticalAlign=middle;whiteSpace=wrap;rounded=0;fontSize=16;" vertex="1" parent="1">
          <mxGeometry x="-384" y="872" width="127" height="48.5" as="geometry" />
        </mxCell>
      </root>
    </mxGraphModel>
  </diagram>
</mxfile>
